SplineFontDB: 1.0
FontName: DBThaiText-BoldOblique
FullName: DBThaiText Bold Oblique
FamilyName: DBThaiText
Weight: Bold
Copyright: Typeface (c) The Monotype Corporation plc. Data (c) The Monotype Corporation plc/Type Solutions Inc. 1990-1992. All Rights Reserved\n\nModified by TLWG
Version: 1.1 : May 12, 2003
ItalicAngle: -12.3
UnderlinePosition: -477
UnderlineWidth: 205
Ascent: 1638
Descent: 410
NeedsXUIDChange: 1
FSType: 0
PfmFamily: 33
TTFWeight: 700
TTFWidth: 5
Panose: 2 0 8 3 0 0 0 0 0 0
LineGap: 184
VLineGap: 0
ScriptLang: 3
 1 DFLT 1 dflt 
 1 latn 1 dflt 
 1 thai 1 dflt 
LangName: 1033 "" "" "" "PfaEdit : DBThaiTextBoldItalic : 13-0-2003" 
Encoding: compacted
OldEncoding: iso8859_1
UnicodeInterp: none
DisplaySize: -72
AntiAlias: 1
FitToEm: 1
WinInfo: 64 8 2
BeginPrivate: 3
BlueValues 31 [-31 0 726 753 786 804 959 976]
OtherBlues 11 [-260 -260]
ForceBold 4 true
EndPrivate
BeginChars: 293 258
StartChar: .notdef
Encoding: 0 -1 0
OldEncoding: 0
Width: 1090
Flags: W
HStem: -55 144<243 935> 1745 144<492 1185>
DStem: 492 1889 607 1745 65 -55 243 89 1185 1745 1362 1889 821 89 935 -55
Fore
65 -55 m 5
 492 1889 l 5
 1362 1889 l 5
 935 -55 l 5
 65 -55 l 5
243 89 m 5
 821 89 l 5
 1185 1745 l 5
 607 1745 l 5
 243 89 l 5
EndSplineSet
EndChar
StartChar: exclam
Encoding: 33 33 3
OldEncoding: 33
Width: 408
Flags: W
HStem: -1 21G<7 204> 939 20G<218 412>
DStem: 49 191 243 191 7 -1 204 -1 218 959 412 959 156 681 351 681
Fore
117 272 m 1
 156 681 l 1
 218 959 l 1
 412 959 l 1
 351 681 l 1
 207 272 l 1
 117 272 l 1
49 191 m 1
 243 191 l 1
 204 -1 l 1
 7 -1 l 1
 49 191 l 1
EndSplineSet
EndChar
StartChar: quotedbl
Encoding: 34 34 4
OldEncoding: 34
Width: 621
Flags: W
HStem: 939 20G<161 358 457 654>
Fore
138 620 m 1
 127 802 l 1
 161 959 l 5
 358 959 l 1
 324 802 l 1
 226 620 l 1
 138 620 l 1
434 620 m 1
 423 802 l 1
 457 959 l 1
 654 959 l 1
 620 802 l 1
 522 620 l 1
 434 620 l 1
EndSplineSet
EndChar
StartChar: numbersign
Encoding: 35 35 5
OldEncoding: 35
Width: 688
Flags: W
HStem: 191 150<-68 19 220 291 495 588> 503 148<53 149 348 425 618 691>
DStem: 19 191 160 191 -74 -36 67 -36 149 503 288 503 81 341 220 341 291 191 430 191 197 -36 341 -36 319 920 458 920 209 651 348 651 425 503 564 503 354 341 495 341 589 920 728 920 480 653 618 651
Fore
319 920 m 1
 458 920 l 1
 348 651 l 1
 480 653 l 1
 589 920 l 1
 728 920 l 1
 618 651 l 1
 722 651 l 1
 691 503 l 1
 564 503 l 1
 495 341 l 1
 621 341 l 1
 588 191 l 1
 430 191 l 1
 341 -36 l 1
 197 -36 l 1
 291 191 l 1
 160 191 l 1
 67 -36 l 1
 -74 -36 l 1
 19 191 l 1
 -100 191 l 1
 -67 341 l 1
 81 341 l 1
 149 503 l 1
 23 503 l 1
 54 651 l 1
 209 651 l 1
 319 920 l 1
288 503 m 1
 220 341 l 1
 354 341 l 1
 425 503 l 1
 288 503 l 1
EndSplineSet
EndChar
StartChar: dollar
Encoding: 36 36 6
OldEncoding: 36
Width: 688
Flags: W
HStem: -19 20G<81 82>
DStem: 178 -23 265 -20 149 -158 237 -158 274 410 353 378 210 116 296 121 361 809 447 804 308 571 389 542
Fore
689 663 m 1
 517 663 l 1
 523 686 525 704 523 719 c 0
 522 734 516 749 507 763 c 0
 490 784 470 798 447 804 c 1
 389 542 l 1
 472 520 536 487 578 445 c 0
 602 419 616 389 620 355 c 0
 622 331 620 305 614 277 c 0
 599 216 578 167 551 131 c 0
 523 93 492 65 458 45 c 0
 423 22 388 8 353 1 c 1
 265 -20 l 1
 237 -158 l 1
 149 -158 l 1
 178 -23 l 1
 134 -15 l 1
 82 1 l 1
 81 1 l 2
 57 8 39 16 27 26 c 0
 10 40 -6 56 -20 72 c 0
 -39 99 -52 130 -56 167 c 0
 -59 203 -55 241 -45 279 c 1
 125 279 l 1
 121 256 121 233 123 211 c 2
 125 195 l 1
 130 176 136 160 145 149 c 0
 154 141 165 134 178 129 c 1
 186 123 196 119 210 116 c 1
 274 410 l 1
 202 425 146 453 105 494 c 0
 77 522 61 556 56 595 c 0
 55 612 57 636 62 668 c 1
 79 748 116 812 173 860 c 0
 228 906 300 933 389 940 c 1
 406 1012 l 1
 493 1012 l 1
 477 940 l 1
 609 929 682 869 693 760 c 0
 696 729 695 697 689 663 c 1
308 571 m 1
 361 809 l 1
 291 797 248 754 228 681 c 1
 228 648 l 1
 229 633 l 1
 233 619 242 607 256 598 c 1
 269 586 286 577 308 571 c 1
353 378 m 1
 296 121 l 1
 328 133 l 1
 370 151 l 1
 386 162 399 172 407 182 c 0
 419 199 427 216 431 233 c 0
 436 250 437 269 435 290 c 0
 430 332 403 362 353 378 c 1
EndSplineSet
EndChar
StartChar: percent
Encoding: 37 37 7
OldEncoding: 37
Width: 1103
Flags: W
HStem: -21 21G<92 198> -14 129<719 747> 335 132<797 827> 446 132<197 224> 798 131<273 303>
DStem: 831 934 933 934 92 -21 198 -21
Fore
198 -21 m 1
 92 -21 l 1
 831 934 l 1
 933 934 l 1
 198 -21 l 1
530 227 m 0
 543 288 579 344 639 395 c 0
 696 443 759 467 827 467 c 0
 892 467 942 443 980 395 c 0
 1001 368 1014 336 1017 300 c 0
 1020 276 1018 251 1011 227 c 1
 998 158 962 101 904 55 c 0
 847 9 785 -14 719 -14 c 0
 650 -14 599 9 564 55 c 1
 542 86 530 117 526 150 c 0
 523 179 524 205 530 227 c 0
5 686 m 0
 21 754 58 811 115 858 c 0
 171 906 233 929 303 929 c 0
 369 929 420 906 457 858 c 0
 478 830 490 798 494 763 c 0
 496 738 495 712 489 686 c 0
 475 619 440 563 382 516 c 0
 323 469 261 446 197 446 c 0
 129 446 77 469 39 516 c 0
 16 542 3 574 -1 611 c 0
 -4 634 -1 659 5 686 c 0
662 227 m 1
 661 192 l 1
 663 176 669 161 680 147 c 0
 694 126 717 115 747 115 c 0
 777 115 805 126 833 147 c 0
 860 171 875 197 879 227 c 1
 882 238 884 249 883 260 c 0
 881 276 876 289 866 302 c 0
 851 324 828 335 797 335 c 0
 768 335 740 324 714 302 c 1
 688 284 671 259 662 227 c 1
137 686 m 0
 134 675 132 665 133 655 c 0
 135 639 141 624 152 611 c 0
 170 589 194 578 224 578 c 0
 255 578 283 589 309 611 c 0
 334 630 350 656 356 686 c 0
 361 699 361 712 360 726 c 0
 358 740 353 754 343 768 c 0
 327 788 304 798 273 798 c 0
 243 798 214 788 186 768 c 1
 162 745 146 718 137 686 c 0
EndSplineSet
EndChar
StartChar: ampersand
Encoding: 38 38 8
OldEncoding: 38
Width: 899
Flags: W
HStem: -26 151<228 256> 0 21G<544 758> 813 148<446 478>
DStem: 299 419 460 519 426 201 562 340
Fore
640 493 m 1
 794 493 l 1
 780 436 760 386 735 343 c 0
 706 288 672 244 636 213 c 1
 758 0 l 1
 544 0 l 1
 497 82 l 1
 439 40 397 14 371 3 c 0
 329 -16 281 -26 228 -26 c 0
 143 -28 72 -4 19 47 c 0
 -13 76 -32 114 -37 160 c 0
 -40 190 -38 221 -30 252 c 1
 -11 310 l 1
 5 351 28 387 58 417 c 1
 93 448 124 470 151 484 c 0
 171 494 200 509 236 530 c 1
 201 588 l 1
 188 606 180 627 176 650 c 1
 171 669 l 1
 169 687 171 707 176 729 c 0
 184 763 198 794 217 822 c 0
 248 866 286 901 332 926 c 0
 376 949 425 961 478 961 c 0
 535 961 581 947 619 919 c 0
 648 896 664 865 668 826 c 1
 669 801 l 1
 665 751 l 1
 655 699 631 656 595 621 c 0
 563 589 518 555 460 519 c 1
 562 340 l 1
 576 352 592 370 609 396 c 1
 626 423 636 447 641 468 c 1
 640 493 l 1
369 674 m 1
 401 623 l 1
 444 645 l 1
 473 671 l 2
 486 684 495 700 501 720 c 0
 505 738 507 756 505 773 c 2
 503 787 l 1
 499 804 480 813 446 813 c 0
 403 813 373 797 357 766 c 1
 354 751 354 736 355 722 c 0
 357 704 362 688 369 674 c 1
426 201 m 1
 299 419 l 1
 196 361 l 1
 170 342 153 314 146 278 c 0
 142 262 142 247 143 234 c 0
 146 206 158 181 178 157 c 0
 198 136 224 125 256 125 c 0
 299 125 356 151 426 201 c 1
EndSplineSet
EndChar
StartChar: quotesingle
Encoding: 39 39 9
OldEncoding: 39
Width: 294
Flags: W
HStem: 939 20G<161 358>
Fore
138 620 m 5
 127 802 l 5
 161 959 l 5
 358 959 l 5
 324 802 l 5
 226 620 l 5
 138 620 l 5
EndSplineSet
EndChar
StartChar: parenleft
Encoding: 40 40 10
OldEncoding: 40
Width: 402
Flags: W
HStem: 955 20G<370 502>
Fore
370 975 m 1
 502 975 l 1
 421 870 357 776 311 694 c 0
 257 601 221 509 201 419 c 0
 197 401 194 382 192 361 c 1
 173 259 167 150 176 32 c 1
 178 -21 l 1
 188 -114 206 -192 233 -253 c 1
 101 -253 l 1
 46 -88 l 1
 33 -51 24 -12 17 32 c 1
 11 81 l 2
 7 126 5 160 6 184 c 0
 6 232 10 291 22 361 c 0
 32 413 52 475 84 546 c 0
 109 604 138 660 170 712 c 0
 203 766 233 809 261 842 c 2
 370 975 l 1
EndSplineSet
EndChar
StartChar: parenright
Encoding: 41 41 11
OldEncoding: 41
Width: 422
Flags: W
HStem: 955 20G<155 284>
Fore
155 975 m 1
 284 975 l 1
 328 870 359 772 377 683 c 1
 385 630 l 1
 394 546 387 456 365 361 c 0
 338 249 297 146 239 54 c 0
 186 -32 110 -134 13 -253 c 1
 -115 -253 l 1
 -49 -175 13 -80 71 32 c 0
 132 156 173 266 197 361 c 2
 211 414 l 1
 220 456 226 503 227 558 c 0
 231 594 229 637 224 688 c 2
 222 703 l 1
 214 762 205 808 196 842 c 0
 184 882 171 927 155 975 c 1
EndSplineSet
EndChar
StartChar: asterisk
Encoding: 42 42 12
OldEncoding: 42
Width: 482
Flags: W
DStem: 106 676 163 603 -24 548 47 477 163 603 262 676 234 477 335 548 189 930 290 930 153 768 257 768
Fore
47 477 m 1
 -24 548 l 1
 106 676 l 1
 -23 727 l 1
 29 819 l 1
 153 768 l 1
 189 930 l 1
 290 930 l 1
 257 768 l 1
 400 819 l 1
 416 727 l 1
 262 676 l 1
 335 548 l 1
 234 477 l 1
 163 603 l 1
 47 477 l 1
EndSplineSet
EndChar
StartChar: plus
Encoding: 43 43 13
OldEncoding: 43
Width: 723
Flags: W
HStem: 391 157<76 284 475 682> 769 20G<371 529>
DStem: 284 391 441 391 230 150 387 150 371 789 529 789 318 548 475 548
Fore
371 789 m 5
 529 789 l 5
 475 548 l 5
 716 548 l 5
 682 391 l 5
 441 391 l 5
 387 150 l 5
 230 150 l 5
 284 391 l 5
 43 391 l 5
 77 548 l 5
 318 548 l 5
 371 789 l 5
EndSplineSet
EndChar
StartChar: comma
Encoding: 44 44 14
OldEncoding: 44
Width: 424
Flags: W
Fore
172 81 m 4
 157 19 124 -33 73 -74 c 4
 19 -115 -29 -138 -73 -144 c 5
 -80 -111 l 5
 -44 -94 -18 -79 1 -67 c 4
 20 -53 36 -31 49 0 c 5
 25 0 3 7 -17 21 c 5
 -31 28 -38 41 -40 61 c 4
 -42 73 -41 86 -38 99 c 4
 -32 126 -19 150 3 172 c 5
 26 190 50 200 77 200 c 4
 117 200 144 189 158 167 c 4
 168 155 173 140 175 123 c 4
 176 111 176 97 172 81 c 4
EndSplineSet
EndChar
StartChar: hyphen
Encoding: 45 45 15
OldEncoding: 45
Width: 412
Flags: W
HStem: 286 180<32 353>
Fore
33 466 m 1
 390 466 l 1
 353 286 l 1
 -6 286 l 1
 33 466 l 1
EndSplineSet
EndChar
StartChar: period
Encoding: 46 46 16
OldEncoding: 46
Width: 309
Flags: W
HStem: -27 21G<1.5 32>
Fore
17 -27 m 4
 -14 -27 -36 -18 -50 1 c 4
 -57 11 -61 22 -63 35 c 5
 -61 70 l 5
 -55 96 -41 118 -20 137 c 4
 2 156 28 165 59 165 c 4
 87 165 108 156 122 137 c 4
 128 129 133 118 134 105 c 4
 135 93 133 81 131 70 c 5
 126 43 114 20 92 1 c 4
 72 -18 47 -27 17 -27 c 4
EndSplineSet
EndChar
StartChar: slash
Encoding: 47 47 17
OldEncoding: 47
Width: 344
Flags: W
HStem: -17 21G<-129 -46>
DStem: 357 943 438 943 -129 -17 -46 -17
Fore
357 943 m 1
 438 943 l 1
 -46 -17 l 1
 -129 -17 l 1
 357 943 l 1
EndSplineSet
EndChar
StartChar: zero
Encoding: 48 48 18
OldEncoding: 48
Width: 689
Flags: W
HStem: -30 170<200 237> 787 167<381 419>
Fore
200 -30 m 0
 156 -30 115 -22 81 -6 c 0
 42 11 15 33 -1 61 c 0
 -19 92 -29 130 -33 175 c 0
 -42 253 -33 349 -7 464 c 0
 34 652 94 785 173 864 c 0
 201 892 240 914 287 931 c 0
 326 947 371 954 419 954 c 0
 519 954 588 924 625 864 c 0
 643 835 654 797 659 751 c 0
 667 674 658 579 632 464 c 0
 589 273 527 138 448 61 c 1
 382 1 300 -30 200 -30 c 0
237 140 m 0
 297 140 340 161 366 202 c 1
 391 248 418 335 446 464 c 0
 474 590 485 676 480 723 c 2
 480 725 l 2
 475 767 443 787 381 787 c 0
 355 787 331 782 308 772 c 0
 284 759 268 743 260 725 c 1
 235 687 207 600 176 464 c 0
 150 340 140 256 145 213 c 2
 146 202 l 1
 146 200 l 2
 150 160 180 140 237 140 c 0
EndSplineSet
EndChar
StartChar: one
Encoding: 49 49 19
OldEncoding: 49
Width: 685
Flags: W
HStem: 0 21G<158 343> 646 123<105 135.483>
DStem: 301 646 548 933 158 0 343 0
Fore
548 933 m 1
 343 0 l 1
 158 0 l 1
 301 646 l 1
 78 646 l 1
 105 769 l 1
 139 769 179 773 221 782 c 0
 262 789 295 801 319 817 c 1
 378 853 414 891 426 933 c 1
 548 933 l 1
EndSplineSet
EndChar
StartChar: two
Encoding: 50 50 20
OldEncoding: 50
Width: 694
Flags: W
HStem: -1 166<169 524>
Fore
563 165 m 1
 524 -1 l 1
 -110 -1 l 1
 -95 55 -72 111 -41 168 c 0
 -10 221 37 269 103 311 c 2
 273 423 l 1
 335 461 377 491 400 513 c 0
 445 558 473 603 483 646 c 1
 487 674 489 692 490 703 c 1
 490 723 l 1
 487 747 478 765 460 776 c 1
 440 794 415 802 387 802 c 1
 354 798 l 1
 288 783 241 720 217 610 c 1
 39 610 l 1
 61 721 107 807 176 867 c 0
 248 930 336 959 440 955 c 0
 558 951 632 906 662 818 c 0
 666 805 670 786 674 763 c 0
 678 727 674 678 663 615 c 1
 633 524 536 430 373 330 c 0
 260 259 193 204 169 165 c 1
 563 165 l 1
EndSplineSet
EndChar
StartChar: three
Encoding: 51 51 21
OldEncoding: 51
Width: 690
Flags: W
HStem: -32 148<197 265> 418 124<231 262> 809 146<378 450>
Fore
-48 274 m 1
 127 274 l 1
 124 204 l 1
 124 200 l 2
 126 185 130 172 137 160 c 0
 146 148 160 138 180 131 c 0
 203 121 231 116 265 116 c 1
 294 130 313 140 322 147 c 0
 366 181 393 222 403 272 c 0
 407 286 408 299 406 313 c 0
 403 339 393 360 376 378 c 1
 345 405 297 418 231 418 c 1
 260 542 l 1
 308 542 352 551 390 568 c 0
 427 584 451 611 464 648 c 2
 478 688 l 1
 481 708 482 723 481 734 c 2
 479 749 l 1
 474 766 463 781 446 792 c 0
 428 803 405 809 378 809 c 0
 328 811 289 796 264 763 c 1
 241 731 225 690 215 639 c 1
 45 639 l 1
 59 707 81 762 109 807 c 0
 137 850 184 890 251 924 c 0
 294 947 360 957 450 955 c 0
 519 955 572 936 609 899 c 1
 637 869 654 836 660 800 c 1
 662 751 659 708 649 670 c 0
 641 637 625 607 600 580 c 0
 584 561 553 535 507 500 c 1
 552 469 579 436 589 401 c 1
 594 367 l 1
 598 331 596 290 585 244 c 1
 566 176 525 113 463 54 c 1
 400 -3 311 -32 197 -32 c 0
 157 -32 116 -25 69 -10 c 0
 29 4 -3 32 -27 72 c 0
 -42 99 -51 126 -54 154 c 2
 -56 167 l 1
 -57 206 -54 242 -48 274 c 1
EndSplineSet
EndChar
StartChar: four
Encoding: 52 52 22
OldEncoding: 52
Width: 691
Flags: W
HStem: 0 21G<256 442> 206 150<95 302 521 585>
DStem: 302 206 488 206 256 0 442 0 419 745 647 933 336 356 521 356 432 933 419 745 -36 364 95 356
Fore
432 933 m 1
 647 933 l 1
 521 356 l 1
 618 356 l 1
 585 206 l 1
 488 206 l 1
 442 0 l 1
 256 0 l 1
 302 206 l 1
 -71 206 l 1
 -36 364 l 1
 432 933 l 1
419 745 m 1
 95 356 l 1
 336 356 l 1
 419 745 l 1
EndSplineSet
EndChar
StartChar: five
Encoding: 53 53 23
OldEncoding: 53
Width: 687
Flags: W
HStem: -28 156<203 235> 771 164<206 666>
VStem: -67 190<185 245>
DStem: 206 935 282 771 6 417 209 578
Fore
-60 245 m 1
 123 245 l 1
 123 196 l 1
 124 187 l 2
 126 171 136 157 155 146 c 0
 173 134 200 128 235 128 c 0
 282 130 321 148 353 183 c 0
 383 218 403 258 411 305 c 0
 418 340 421 368 419 391 c 0
 417 405 413 418 407 428 c 0
 386 467 348 486 292 484 c 0
 242 484 203 461 175 417 c 1
 6 417 l 1
 206 935 l 1
 702 935 l 1
 666 771 l 1
 282 771 l 1
 209 578 l 1
 257 602 289 616 304 620 c 0
 333 628 359 632 381 632 c 0
 417 632 449 626 477 616 c 0
 538 594 577 555 594 499 c 0
 601 480 606 460 608 437 c 0
 612 402 609 361 600 314 c 0
 586 245 555 180 505 117 c 1
 462 71 421 38 383 18 c 0
 340 -5 279 -20 203 -28 c 1
 146 -28 101 -22 71 -9 c 0
 42 4 16 21 -6 44 c 0
 -31 69 -49 93 -57 117 c 1
 -67 161 l 1
 -67 185 l 1
 -67 206 -65 225 -60 245 c 1
EndSplineSet
EndChar
StartChar: six
Encoding: 54 54 24
OldEncoding: 54
Width: 688
Flags: W
HStem: 475 142<313 413> 725 21G<502 676> 811 146<410 439>
Fore
676 725 m 1
 502 725 l 1
 496 780 466 809 414 811 c 0
 375 811 341 802 313 783 c 1
 284 766 264 746 252 723 c 1
 230 689 214 647 203 597 c 0
 198 574 194 557 196 547 c 1
 227 570 257 587 288 597 c 0
 323 610 364 617 413 617 c 0
 498 617 556 579 589 505 c 0
 600 477 607 452 610 429 c 0
 613 397 609 359 600 316 c 0
 586 251 564 198 536 156 c 0
 492 92 446 47 397 19 c 0
 343 -11 282 -27 212 -30 c 0
 142 -32 84 -11 37 34 c 0
 -5 74 -30 126 -37 188 c 2
 -37 195 l 1
 -38 278 -28 368 -6 466 c 0
 19 574 45 655 75 709 c 0
 112 779 163 838 228 887 c 0
 288 933 358 957 439 957 c 1
 491 954 l 1
 577 943 631 914 653 866 c 0
 666 841 673 815 676 787 c 0
 678 766 678 745 676 725 c 1
176 392 m 0
 157 364 143 332 134 297 c 0
 127 272 126 248 128 226 c 0
 130 205 135 189 142 177 c 0
 157 150 185 133 227 126 c 1
 274 126 313 140 345 167 c 1
 388 208 415 255 427 310 c 0
 434 336 436 360 434 383 c 0
 432 395 429 407 423 420 c 0
 402 457 365 475 313 475 c 1
 287 473 264 465 241 452 c 1
 215 440 194 420 176 392 c 0
EndSplineSet
EndChar
StartChar: seven
Encoding: 55 55 25
OldEncoding: 55
Width: 681
Flags: W
HStem: 0 21G<15 200> 769 164<85 508>
Fore
86 933 m 1
 739 933 l 1
 708 789 l 1
 652 736 596 677 539 612 c 0
 481 544 433 481 396 424 c 0
 347 347 310 280 284 223 c 0
 247 143 219 69 200 0 c 1
 15 0 l 1
 46 92 79 173 113 241 c 0
 146 311 182 374 218 429 c 0
 259 487 302 542 347 592 c 0
 395 648 448 707 508 769 c 1
 50 769 l 1
 86 933 l 1
EndSplineSet
EndChar
StartChar: eight
Encoding: 56 56 26
OldEncoding: 56
Width: 690
Flags: W
HStem: -30 154<192 227> 436 125<307 327> 816 141<380 404>
Fore
522 133 m 1
 484 81 436 41 376 12 c 0
 309 -18 247 -32 192 -30 c 1
 135 -30 81 -14 32 17 c 0
 -17 46 -47 86 -59 135 c 1
 -65 173 l 1
 -68 199 -65 232 -58 272 c 0
 -34 380 32 459 140 510 c 1
 114 535 94 560 78 587 c 2
 76 593 l 1
 70 608 66 623 64 637 c 0
 62 659 63 679 67 697 c 0
 76 735 95 775 121 816 c 1
 158 861 199 895 245 919 c 0
 293 944 344 957 400 957 c 0
 531 957 613 922 645 853 c 0
 662 821 671 793 673 767 c 0
 676 744 674 719 669 695 c 0
 661 655 640 616 607 579 c 1
 574 545 538 522 500 510 c 1
 549 495 580 467 595 427 c 0
 603 409 608 389 610 367 c 0
 613 343 611 316 605 286 c 0
 593 228 565 177 522 133 c 1
425 591 m 1
 448 602 466 618 480 639 c 0
 497 663 507 684 511 703 c 1
 512 736 l 1
 510 751 506 764 499 774 c 0
 483 799 451 813 404 816 c 1
 355 816 316 804 286 780 c 1
 256 761 237 732 229 695 c 0
 226 681 225 667 226 654 c 0
 228 633 235 614 246 597 c 0
 264 573 291 561 327 561 c 0
 368 559 401 569 425 591 c 1
342 167 m 1
 355 177 368 193 379 215 c 1
 393 239 402 262 407 286 c 0
 412 308 414 327 412 341 c 0
 411 353 408 365 401 376 c 0
 386 414 354 434 307 436 c 0
 263 436 225 421 192 392 c 0
 165 368 145 331 133 281 c 0
 128 252 126 228 128 209 c 1
 135 177 l 1
 157 142 188 124 227 124 c 1
 270 121 309 135 342 167 c 1
EndSplineSet
EndChar
StartChar: nine
Encoding: 57 57 27
OldEncoding: 57
Width: 691
Flags: W
HStem: -30 146<175 205> 303 159<253 302> 804 157<372 403>
Fore
-51 221 m 1
 129 221 l 1
 128 193 l 1
 129 181 135 166 143 149 c 1
 160 127 180 116 205 116 c 0
 276 116 331 145 368 204 c 0
 396 251 416 295 426 334 c 0
 428 350 430 364 428 376 c 2
 428 385 l 1
 396 355 358 332 316 316 c 0
 296 307 274 303 253 303 c 0
 230 303 206 305 180 308 c 1
 94 327 41 379 22 464 c 1
 19 495 l 2
 16 528 19 571 29 625 c 0
 45 698 70 758 107 804 c 0
 143 848 187 886 239 917 c 0
 290 946 344 961 403 961 c 1
 448 956 l 1
 471 956 498 949 529 935 c 0
 561 919 589 898 612 871 c 0
 634 846 647 818 650 785 c 2
 651 776 l 1
 660 727 l 1
 667 659 661 582 642 498 c 0
 625 426 602 356 573 288 c 0
 546 219 517 166 486 128 c 0
 435 63 384 20 331 1 c 0
 275 -20 223 -30 175 -30 c 0
 81 -30 18 -2 -15 54 c 1
 -37 88 -50 123 -54 158 c 0
 -56 181 -55 202 -51 221 c 1
472 762 m 1
 453 790 419 804 372 804 c 0
 333 804 293 785 252 749 c 1
 224 718 203 677 190 625 c 0
 186 599 184 578 186 563 c 0
 188 540 195 520 208 504 c 0
 230 476 261 462 302 462 c 0
 344 462 382 477 417 508 c 0
 451 539 473 578 484 625 c 0
 491 655 493 683 490 711 c 0
 488 735 482 752 472 762 c 1
EndSplineSet
EndChar
StartChar: colon
Encoding: 58 58 28
OldEncoding: 58
Width: 375
Flags: W
HStem: -24 185<37 77> 537 182<161 199>
Fore
37 -24 m 4
 8 -24 -14 -14 -25 5 c 5
 -31 13 -35 23 -37 36 c 4
 -38 47 -37 58 -33 69 c 4
 -29 95 -17 116 4 133 c 5
 22 152 46 161 77 161 c 4
 105 161 126 152 140 133 c 5
 149 124 154 112 156 99 c 4
 157 90 156 80 152 69 c 4
 147 45 134 23 112 5 c 4
 93 -14 69 -24 37 -24 c 4
161 537 m 4
 132 537 111 546 97 564 c 4
 91 573 88 585 86 599 c 5
 88 629 l 5
 92 650 105 670 125 692 c 5
 145 710 169 719 199 719 c 4
 228 719 250 710 264 694 c 4
 271 684 275 672 277 657 c 5
 275 629 l 5
 269 606 257 584 236 564 c 5
 215 546 190 537 161 537 c 4
EndSplineSet
EndChar
StartChar: semicolon
Encoding: 59 59 29
OldEncoding: 59
Width: 424
Flags: W
HStem: 0 200<49 79> 479 205<147 193>
Fore
147 479 m 4
 115 479 93 489 81 510 c 5
 74 519 70 532 69 547 c 5
 70 581 l 5
 76 608 91 632 113 653 c 4
 133 673 160 684 193 684 c 4
 225 684 247 673 261 653 c 4
 268 643 273 631 274 616 c 4
 276 604 274 593 271 581 c 4
 265 554 251 531 229 510 c 5
 207 489 179 479 147 479 c 4
175 81 m 4
 160 18 128 -34 77 -74 c 4
 21 -115 -27 -138 -70 -144 c 5
 -78 -111 l 5
 -46 -96 -19 -81 3 -67 c 4
 23 -52 39 -30 49 0 c 5
 27 0 5 7 -15 21 c 5
 -29 29 -36 42 -38 61 c 4
 -40 74 -38 87 -34 99 c 4
 -28 127 -15 151 6 172 c 4
 28 191 52 200 79 200 c 4
 120 200 147 189 161 167 c 4
 171 154 176 140 178 123 c 4
 179 111 178 97 175 81 c 4
EndSplineSet
EndChar
StartChar: less
Encoding: 60 60 30
OldEncoding: 60
Width: 719
Flags: W
DStem: 29 391 277 469 617 150 655 321 759 789 721 617 62 548 277 469
Fore
29 391 m 5
 62 548 l 5
 759 789 l 5
 721 617 l 5
 277 469 l 5
 655 321 l 5
 617 150 l 5
 29 391 l 5
EndSplineSet
EndChar
StartChar: equal
Encoding: 61 61 31
OldEncoding: 61
Width: 722
Flags: W
HStem: 230 163<45 649> 549 157<114 719>
Fore
115 706 m 5
 754 706 l 5
 719 549 l 5
 80 549 l 5
 115 706 l 5
46 393 m 5
 683 393 l 5
 649 230 l 5
 10 230 l 5
 46 393 l 5
EndSplineSet
EndChar
StartChar: greater
Encoding: 62 62 32
OldEncoding: 62
Width: 728
Flags: W
DStem: 467 469 678 391 19 321 -16 150
Fore
125 789 m 5
 712 548 l 5
 678 391 l 5
 -16 150 l 5
 19 321 l 5
 467 469 l 5
 85 617 l 5
 125 789 l 5
EndSplineSet
EndChar
StartChar: question
Encoding: 63 63 33
OldEncoding: 63
Width: 750
Flags: W
HStem: -2 21G<143 339> 806 173<411 441>
DStem: 186 190 382 190 143 -2 339 -2
Fore
370 261 m 1
 211 261 l 1
 228 335 252 390 283 426 c 1
 314 465 361 505 426 546 c 0
 474 576 506 621 517 682 c 1
 521 695 523 708 521 720 c 0
 519 740 510 758 497 773 c 0
 476 795 448 806 412 806 c 0
 374 806 338 791 303 761 c 0
 268 732 244 689 231 632 c 1
 54 632 l 1
 79 745 132 838 214 909 c 1
 281 955 356 979 441 979 c 0
 492 979 537 971 577 956 c 0
 617 940 647 919 667 894 c 1
 696 861 712 821 717 775 c 0
 720 743 717 712 709 682 c 1
 699 629 678 582 646 541 c 1
 642 534 631 522 615 507 c 0
 605 497 592 486 576 477 c 1
 564 466 551 457 537 451 c 1
 494 421 l 2
 447 388 419 367 411 358 c 0
 410 356 408 354 406 351 c 0
 390 328 378 298 370 261 c 1
143 -2 m 1
 186 190 l 1
 382 190 l 1
 339 -2 l 1
 143 -2 l 1
EndSplineSet
EndChar
StartChar: at
Encoding: 64 64 34
OldEncoding: 64
Width: 1207
Flags: W
HStem: -173 116<426 464> 85 104<774 800> 598 92<638 663> 880 108<690 732>
Fore
831 679 m 1
 950 679 l 1
 752 281 l 1
 745 228 l 1
 746 223 l 2
 747 210 752 200 762 193 c 0
 768 190 778 189 790 189 c 0
 813 189 835 194 853 205 c 1
 884 217 912 236 938 260 c 0
 970 292 990 316 997 332 c 1
 1034 378 1059 433 1073 496 c 0
 1080 527 1082 558 1079 589 c 1
 1079 607 l 1
 1076 638 1064 670 1042 704 c 0
 1018 745 988 779 952 807 c 0
 886 856 800 880 690 880 c 0
 660 880 621 877 575 869 c 0
 526 860 471 835 412 794 c 1
 357 760 303 715 250 661 c 0
 160 571 103 466 77 346 c 0
 69 308 66 275 69 246 c 2
 70 237 l 2
 73 205 79 177 88 154 c 0
 94 138 104 117 117 92 c 1
 168 27 242 -18 341 -43 c 0
 375 -52 415 -57 460 -57 c 0
 551 -57 644 -40 742 -8 c 1
 757 -112 l 1
 665 -152 556 -173 428 -173 c 0
 386 -173 351 -171 323 -166 c 0
 267 -155 229 -147 208 -140 c 0
 172 -129 135 -109 99 -80 c 0
 57 -49 22 -10 -6 34 c 0
 -31 74 -48 122 -56 177 c 1
 -61 214 l 1
 -66 256 -65 293 -57 326 c 0
 -46 375 -31 422 -12 467 c 0
 5 509 28 550 56 591 c 1
 85 638 116 676 148 706 c 1
 197 761 259 813 332 865 c 0
 397 908 471 942 555 966 c 0
 610 981 668 988 732 988 c 0
 843 988 936 964 1011 913 c 0
 1125 836 1188 741 1200 628 c 1
 1202 591 l 1
 1201 556 1196 519 1187 483 c 1
 1174 416 1149 356 1109 302 c 1
 1047 211 977 148 900 112 c 0
 859 94 817 85 776 85 c 0
 749 85 723 89 696 96 c 0
 663 105 638 130 623 172 c 1
 563 132 521 107 497 98 c 0
 462 86 432 79 408 79 c 0
 387 79 359 88 325 105 c 0
 291 120 268 143 255 174 c 0
 244 198 239 220 237 240 c 0
 235 261 235 284 241 309 c 1
 257 355 l 1
 298 460 362 544 449 605 c 0
 531 662 602 690 663 690 c 0
 681 690 697 688 708 684 c 0
 758 670 787 642 793 600 c 1
 831 679 l 1
438 187 m 1
 483 187 523 199 558 223 c 0
 600 254 635 292 662 337 c 0
 690 385 710 431 723 476 c 1
 724 515 l 1
 720 554 698 580 661 593 c 1
 638 598 l 1
 617 598 594 592 569 580 c 0
 547 571 522 554 493 529 c 1
 464 502 441 474 422 445 c 0
 404 413 388 378 376 341 c 1
 372 320 372 299 374 277 c 1
 382 240 l 1
 392 211 411 193 438 187 c 1
EndSplineSet
EndChar
StartChar: A
Encoding: 65 65 35
OldEncoding: 65
Width: 910
Flags: W
HStem: -1 21G<-115 86 574 775> 191 164<294 550> 939 20G<429 659>
DStem: 429 959 195 191 -115 -1 86 -1 495 728 659 959 539 355 775 -1
Fore
659 959 m 1
 775 -1 l 1
 574 -1 l 1
 550 191 l 1
 195 191 l 1
 86 -1 l 1
 -115 -1 l 1
 429 959 l 1
 659 959 l 1
495 728 m 1
 294 355 l 1
 539 355 l 1
 495 728 l 1
EndSplineSet
EndChar
StartChar: B
Encoding: 66 66 36
OldEncoding: 66
Width: 896
Flags: W
HStem: -1 164<177 411> 411 164<269 494> 795 164<156 570>
DStem: 156 959 316 795 -56 -1 269 575 156 959 233 411 -56 -1 177 163
Fore
-56 -1 m 1
 156 959 l 1
 581 959 l 2
 614 959 654 953 702 941 c 1
 743 928 774 910 796 885 c 1
 814 867 828 846 839 820 c 1
 844 802 l 1
 844 767 l 1
 845 707 l 1
 836 672 821 638 797 606 c 1
 776 571 746 539 707 511 c 1
 734 489 753 460 765 425 c 0
 773 403 777 382 779 363 c 0
 781 346 781 328 778 308 c 0
 769 257 751 210 725 168 c 0
 701 129 667 94 624 63 c 0
 565 20 482 -1 377 -1 c 2
 -56 -1 l 1
316 795 m 1
 269 575 l 1
 494 575 l 2
 537 575 572 585 598 606 c 0
 625 625 643 651 648 684 c 0
 650 700 651 713 650 723 c 0
 645 771 612 795 550 795 c 2
 316 795 l 1
233 411 m 1
 177 163 l 1
 409 163 l 2
 449 163 485 171 517 186 c 0
 552 203 575 240 587 297 c 0
 591 314 592 331 591 346 c 0
 589 366 581 380 568 387 c 0
 545 403 512 411 469 411 c 2
 233 411 l 1
EndSplineSet
EndChar
StartChar: C
Encoding: 67 67 37
OldEncoding: 67
Width: 891
Flags: W
HStem: -31 170<317 345> 810 164<483 545>
Fore
617 329 m 1
 807 329 l 1
 795 282 772 233 737 183 c 0
 704 135 665 94 619 62 c 0
 578 35 533 14 482 0 c 0
 419 -21 364 -31 317 -31 c 0
 211 -33 129 -4 69 57 c 0
 17 111 -14 181 -23 266 c 2
 -27 303 l 1
 -29 339 -23 395 -7 472 c 1
 11 546 31 607 57 655 c 0
 167 868 330 974 545 974 c 0
 649 974 730 949 788 900 c 0
 841 857 871 802 878 733 c 0
 881 702 880 669 874 634 c 1
 684 634 l 1
 685 671 l 1
 677 708 l 1
 670 735 650 759 618 779 c 1
 587 802 542 812 483 810 c 0
 445 810 403 794 356 764 c 1
 316 733 283 698 256 657 c 0
 235 623 212 567 187 490 c 1
 181 451 175 415 172 382 c 0
 171 356 170 333 172 312 c 2
 175 289 l 1
 193 225 225 180 272 155 c 1
 295 144 319 139 345 139 c 0
 363 139 392 142 430 150 c 1
 492 165 535 189 561 222 c 0
 582 249 601 285 617 329 c 1
EndSplineSet
EndChar
StartChar: D
Encoding: 68 68 38
OldEncoding: 68
Width: 896
Flags: W
HStem: -1 164<170 371> 795 164<149 499>
DStem: 149 959 309 795 -62 -1 170 163
Fore
-62 -1 m 1
 149 959 l 1
 596 959 l 2
 632 959 667 952 700 938 c 0
 733 923 763 900 790 867 c 0
 817 834 838 790 853 734 c 0
 856 725 858 711 860 690 c 0
 866 642 861 586 848 522 c 0
 831 447 807 377 777 314 c 0
 746 254 714 205 681 168 c 1
 642 121 592 80 529 45 c 0
 475 14 422 -1 371 -1 c 2
 -62 -1 l 1
309 795 m 1
 170 163 l 1
 328 163 l 2
 426 163 505 206 564 293 c 1
 596 342 622 409 643 496 c 1
 654 557 658 607 654 646 c 0
 652 670 647 690 641 707 c 0
 626 740 607 763 582 776 c 1
 552 789 520 795 488 795 c 2
 309 795 l 1
EndSplineSet
EndChar
StartChar: E
Encoding: 69 69 39
OldEncoding: 69
Width: 824
Flags: W
HStem: -1 164<172 657> 411 164<263 687> 795 164<150 809>
DStem: 150 959 310 795 -61 -1 263 575 150 959 227 411 -61 -1 172 163
Fore
150 959 m 1
 845 959 l 1
 809 795 l 1
 310 795 l 1
 263 575 l 1
 723 575 l 1
 687 411 l 1
 227 411 l 1
 172 163 l 1
 693 163 l 1
 657 -1 l 1
 -61 -1 l 1
 150 959 l 1
EndSplineSet
EndChar
StartChar: F
Encoding: 70 70 40
OldEncoding: 70
Width: 754
Flags: W
HStem: -1 21G<-66 131> 411 164<259 643> 795 164<145 783>
DStem: 145 959 306 795 -66 -1 259 575 145 959 222 411 -66 -1 131 -1
Fore
145 959 m 1
 819 959 l 1
 783 795 l 1
 306 795 l 1
 259 575 l 1
 680 575 l 1
 643 411 l 1
 222 411 l 1
 131 -1 l 1
 -66 -1 l 1
 145 959 l 1
EndSplineSet
EndChar
StartChar: G
Encoding: 71 71 41
OldEncoding: 71
Width: 963
Flags: W
HStem: -5 21G<648 764> 351 165<493 677> 812 162<519 557>
Fore
460 351 m 1
 494 516 l 1
 878 516 l 1
 764 -5 l 1
 648 -5 l 1
 649 115 l 1
 607 77 578 53 563 44 c 1
 541 25 507 8 461 -7 c 0
 408 -25 355 -33 303 -31 c 0
 270 -31 235 -24 196 -12 c 1
 167 -4 144 5 129 16 c 0
 111 29 95 43 81 57 c 1
 68 73 58 85 50 92 c 1
 13 141 -10 197 -18 261 c 1
 -21 285 l 2
 -27 342 -23 404 -10 472 c 0
 13 577 58 671 124 755 c 1
 191 843 272 906 365 942 c 0
 419 963 483 974 557 974 c 0
 617 974 671 967 722 953 c 0
 771 939 813 911 848 870 c 1
 883 823 905 774 910 722 c 0
 912 700 912 678 909 655 c 1
 729 655 l 1
 728 669 l 2
 723 715 703 750 670 773 c 0
 632 799 585 812 530 812 c 0
 473 812 411 795 347 759 c 1
 305 728 271 686 242 634 c 0
 218 591 197 536 179 470 c 1
 169 422 165 378 169 340 c 1
 176 303 l 1
 205 199 265 141 355 130 c 1
 455 130 534 160 594 220 c 1
 634 256 662 300 677 351 c 1
 460 351 l 1
EndSplineSet
EndChar
StartChar: H
Encoding: 72 72 42
OldEncoding: 72
Width: 892
Flags: W
HStem: -1 21G<-75 119 501 698> 434 164<253 596> 939 20G<133 330 710 908>
DStem: 133 959 330 959 -75 -1 253 598 133 959 216 434 -75 -1 119 -1 596 434 908 959 501 -1 698 -1 710 959 908 959 632 598 698 -1
Fore
-75 -1 m 5
 133 959 l 1
 330 959 l 1
 253 598 l 1
 632 598 l 1
 710 959 l 1
 908 959 l 1
 698 -1 l 1
 501 -1 l 1
 596 434 l 1
 216 434 l 1
 119 -1 l 1
 -75 -1 l 5
EndSplineSet
EndChar
StartChar: I
Encoding: 73 73 43
OldEncoding: 73
Width: 343
Flags: W
HStem: -1 21G<-48 146> 939 20G<161 357>
DStem: 161 959 357 959 -48 -1 146 -1
Fore
357 959 m 1
 146 -1 l 1
 -48 -1 l 1
 161 959 l 1
 357 959 l 1
EndSplineSet
EndChar
StartChar: J
Encoding: 74 74 44
OldEncoding: 74
Width: 688
Flags: W
HStem: -30 167<199 221> 941 20G<503 699>
DStem: 503 961 699 961 344 243 538 230
Fore
503 961 m 1
 699 961 l 1
 538 230 l 2
 523 167 488 110 433 60 c 4
 368 2 290 -28 199 -30 c 0
 119 -32 57 -21 9 5 c 0
 -17 21 -36 42 -48 67 c 0
 -59 89 -66 113 -69 140 c 2
 -70 151 l 1
 -71 191 -69 222 -64 246 c 2
 -40 354 l 1
 156 354 l 1
 136 257 l 2
 132 239 131 220 133 202 c 1
 138 175 l 1
 146 147 172 135 219 137 c 0
 256 137 284 149 305 172 c 0
 325 194 338 218 344 243 c 1
 503 961 l 1
EndSplineSet
EndChar
StartChar: K
Encoding: 75 75 45
OldEncoding: 75
Width: 890
Flags: W
HStem: -1 21G<-73 123 535 773> 939 20G<137 334 712 945>
DStem: 137 959 334 959 -73 -1 242 538 137 959 191 306 -73 -1 123 -1 712 959 945 959 242 538 473 542
Fore
-73 -1 m 1
 137 959 l 1
 334 959 l 1
 242 538 l 1
 712 959 l 1
 945 959 l 1
 473 542 l 1
 773 -1 l 1
 535 -1 l 1
 318 416 l 1
 191 306 l 1
 123 -1 l 1
 -73 -1 l 1
EndSplineSet
EndChar
StartChar: L
Encoding: 76 76 46
OldEncoding: 76
Width: 769
Flags: W
HStem: -1 164<191 614> 939 20G<167 367>
DStem: 167 959 367 959 -44 -1 191 163
Fore
167 959 m 1
 367 959 l 1
 191 163 l 1
 650 163 l 1
 614 -1 l 1
 -44 -1 l 1
 167 959 l 1
EndSplineSet
EndChar
StartChar: M
Encoding: 77 77 47
OldEncoding: 77
Width: 1032
Flags: W
HStem: -1 21G<-91 108 277 475 647 846> 939 20G<120 407 768 1055>
DStem: 120 959 278 776 -91 -1 108 -1 815 776 1055 959 647 -1 846 -1
Fore
475 -1 m 1
 277 -1 l 1
 278 776 l 1
 108 -1 l 1
 -91 -1 l 1
 120 959 l 1
 407 959 l 1
 428 221 l 1
 768 959 l 1
 1055 959 l 1
 846 -1 l 1
 647 -1 l 1
 815 776 l 1
 475 -1 l 1
EndSplineSet
EndChar
StartChar: N
Encoding: 78 78 48
OldEncoding: 78
Width: 892
Flags: W
HStem: -1 21G<-76 119 507 702> 939 20G<133 327 716 913>
DStem: 133 959 266 668 -76 -1 119 -1 266 668 327 959 507 -1 571 299 716 959 913 959 571 299 702 -1
Fore
133 959 m 1
 327 959 l 1
 571 299 l 1
 716 959 l 1
 913 959 l 1
 702 -1 l 1
 507 -1 l 1
 266 668 l 1
 119 -1 l 1
 -76 -1 l 1
 133 959 l 1
EndSplineSet
EndChar
StartChar: O
Encoding: 79 79 49
OldEncoding: 79
Width: 963
Flags: W
HStem: -31 172<339 377> 803 173<523 560>
Fore
911 472 m 0
 897 406 869 337 825 263 c 0
 782 189 736 131 686 90 c 0
 591 9 476 -31 339 -31 c 0
 202 -31 104 9 45 90 c 0
 12 135 -9 193 -20 263 c 1
 -22 289 l 2
 -29 350 -25 411 -12 472 c 0
 6 551 35 621 72 682 c 0
 116 754 162 812 212 856 c 1
 310 936 425 976 560 976 c 0
 595 976 634 972 675 965 c 0
 714 956 748 942 776 923 c 1
 805 908 830 886 853 856 c 0
 888 810 910 752 920 682 c 1
 923 660 l 2
 929 595 925 533 911 472 c 0
377 141 m 0
 447 141 510 162 567 205 c 1
 606 236 638 274 664 319 c 1
 692 374 710 424 721 472 c 0
 734 526 736 577 731 624 c 0
 724 674 707 712 683 737 c 1
 643 781 590 803 523 803 c 0
 453 803 388 781 331 737 c 0
 295 711 264 674 236 627 c 0
 207 576 188 525 178 472 c 0
 168 426 165 380 170 333 c 2
 171 322 l 2
 177 271 191 232 212 205 c 0
 251 162 306 141 377 141 c 0
EndSplineSet
EndChar
StartChar: P
Encoding: 80 80 50
OldEncoding: 80
Width: 827
Flags: W
HStem: -1 21G<-63 136> 341 165<247 471> 795 164<148 530>
DStem: 148 959 311 795 -63 -1 247 506 148 959 211 341 -63 -1 136 -1
Fore
-63 -1 m 1
 148 959 l 1
 576 959 l 2
 635 959 687 950 732 931 c 1
 780 914 810 872 824 804 c 1
 826 785 l 2
 830 748 827 707 817 661 c 0
 801 591 781 542 758 513 c 1
 679 398 575 341 445 341 c 2
 211 341 l 1
 136 -1 l 1
 -63 -1 l 1
311 795 m 1
 247 506 l 1
 469 506 l 2
 515 506 556 533 595 586 c 1
 610 621 l 1
 616 634 622 650 626 670 c 0
 629 681 632 698 632 721 c 1
 625 771 588 795 522 795 c 2
 311 795 l 1
EndSplineSet
EndChar
StartChar: Q
Encoding: 81 81 51
OldEncoding: 81
Width: 961
Flags: W
HStem: -29 172<348 386> 805 173<530 568>
Fore
742 136 m 1
 825 37 l 1
 699 -69 l 1
 611 37 l 1
 529 -7 441 -29 348 -29 c 0
 212 -29 114 12 55 92 c 1
 21 136 -1 193 -12 263 c 1
 -14 287 l 2
 -21 351 -17 413 -4 474 c 1
 16 555 45 626 83 687 c 1
 122 754 169 811 222 858 c 1
 317 938 432 978 568 978 c 0
 635 978 694 968 742 949 c 0
 796 926 835 896 861 858 c 0
 895 812 918 754 930 684 c 1
 932 669 l 2
 938 607 934 542 919 474 c 0
 904 403 882 342 853 291 c 0
 822 233 785 182 742 136 c 1
500 168 m 1
 422 261 l 1
 549 370 l 1
 634 265 l 1
 680 324 713 394 730 474 c 0
 740 519 743 568 738 622 c 2
 737 629 l 1
 730 677 714 713 690 740 c 1
 656 784 603 805 530 805 c 0
 459 805 396 784 338 740 c 0
 305 713 275 676 246 627 c 0
 222 584 201 533 183 474 c 1
 175 426 173 380 177 338 c 2
 179 324 l 1
 186 272 202 233 223 208 c 0
 261 165 315 143 386 143 c 0
 425 143 463 151 500 168 c 1
EndSplineSet
EndChar
StartChar: R
Encoding: 82 82 52
OldEncoding: 82
Width: 895
Flags: W
HStem: -1 21G<-61 137 513 725> 378 164<257 468> 795 164<149 596>
DStem: 149 959 312 795 -61 -1 257 542 149 959 221 378 -61 -1 137 -1
Fore
-61 -1 m 1
 149 959 l 1
 685 959 l 2
 713 959 742 953 772 941 c 0
 798 930 822 913 843 889 c 1
 857 867 865 844 868 818 c 2
 869 807 l 1
 871 769 l 1
 871 730 l 1
 866 693 l 1
 852 652 843 625 837 612 c 0
 819 575 797 545 772 524 c 0
 752 505 718 485 672 462 c 1
 700 443 l 2
 713 434 722 426 727 420 c 0
 738 407 745 395 748 383 c 1
 753 359 l 1
 752 328 l 1
 734 224 l 1
 713 114 l 1
 708 100 707 86 708 73 c 1
 711 63 l 2
 716 52 722 42 730 34 c 1
 725 -1 l 1
 513 -1 l 1
 506 34 l 1
 504 55 505 73 508 89 c 1
 547 281 l 1
 549 314 l 1
 544 337 l 1
 534 352 523 363 511 369 c 0
 496 375 475 378 451 378 c 2
 221 378 l 1
 137 -1 l 1
 -61 -1 l 1
312 795 m 1
 257 542 l 1
 525 542 l 2
 552 542 582 555 613 580 c 1
 643 604 663 640 675 686 c 0
 679 701 681 716 679 730 c 0
 675 774 641 795 579 795 c 2
 312 795 l 1
EndSplineSet
EndChar
StartChar: S
Encoding: 83 83 53
OldEncoding: 83
Width: 827
Flags: W
HStem: -33 163<245 323> 819 155<437 478>
Fore
791 667 m 1
 601 667 l 1
 604 680 604 694 603 708 c 1
 595 740 l 1
 588 763 572 782 545 799 c 1
 519 812 483 819 439 819 c 0
 330 819 264 782 243 708 c 1
 237 682 235 666 236 660 c 0
 237 651 238 647 240 645 c 1
 247 632 260 622 280 613 c 1
 282 606 299 599 328 592 c 1
 341 586 375 578 430 569 c 1
 509 552 l 1
 611 534 679 503 713 459 c 0
 730 436 741 409 744 377 c 0
 747 349 744 320 738 289 c 0
 726 239 705 191 674 146 c 1
 644 100 607 64 563 37 c 0
 488 -7 382 -31 245 -33 c 0
 217 -33 180 -27 133 -14 c 0
 85 -2 49 15 26 37 c 1
 -10 67 -34 103 -46 148 c 0
 -52 172 -56 191 -58 206 c 0
 -61 234 -59 261 -55 285 c 1
 137 285 l 1
 133 269 131 255 132 243 c 0
 135 222 143 203 157 185 c 0
 185 148 240 130 323 130 c 0
 353 130 384 134 415 143 c 1
 443 149 468 160 489 174 c 0
 515 193 532 222 540 259 c 1
 540 296 l 1
 538 312 534 326 527 335 c 0
 516 351 499 363 475 373 c 0
 434 386 399 395 370 400 c 2
 256 421 l 2
 217 430 190 437 173 444 c 0
 145 454 120 470 95 493 c 0
 74 514 59 542 51 578 c 1
 49 601 l 2
 45 636 49 673 59 711 c 0
 83 789 131 854 203 905 c 1
 272 951 364 974 478 974 c 0
 542 974 597 967 648 954 c 0
 704 939 747 905 775 854 c 0
 786 835 794 810 797 777 c 0
 801 746 798 709 791 667 c 1
EndSplineSet
EndChar
StartChar: T
Encoding: 84 84 54
OldEncoding: 84
Width: 743
Flags: W
HStem: -1 21G<135 332> 795 164<55 311 56 787>
DStem: 311 795 510 795 135 -1 332 -1
Fore
56 959 m 1
 824 959 l 1
 787 795 l 1
 510 795 l 1
 332 -1 l 1
 135 -1 l 1
 311 795 l 1
 20 795 l 1
 56 959 l 1
EndSplineSet
EndChar
StartChar: U
Encoding: 85 85 55
OldEncoding: 85
Width: 887
Flags: W
HStem: -30 172<309 342> 941 20G<141 341 706 903>
DStem: 141 961 341 961 -1 299 196 297 706 961 903 961 562 297 758 299
Fore
706 961 m 1
 903 961 l 1
 758 299 l 2
 727 160 645 64 513 10 c 0
 446 -17 378 -30 309 -30 c 0
 246 -30 186 -19 129 3 c 1
 45 55 -1 122 -9 202 c 0
 -12 229 -9 261 -1 299 c 2
 141 961 l 1
 341 961 l 1
 196 297 l 1
 192 285 192 267 194 243 c 0
 197 221 202 202 209 188 c 0
 228 157 272 142 342 142 c 0
 412 142 464 157 496 188 c 0
 529 217 551 254 562 297 c 1
 706 961 l 1
EndSplineSet
EndChar
StartChar: V
Encoding: 86 86 56
OldEncoding: 86
Width: 807
Flags: W
HStem: -1 21G<174 344> 939 20G<62 258 682 881>
Fore
682 959 m 1
 881 959 l 1
 344 -1 l 1
 174 -1 l 1
 62 959 l 1
 258 959 l 1
 312 235 l 1
 682 959 l 1
EndSplineSet
EndChar
StartChar: W
Encoding: 87 87 57
OldEncoding: 87
Width: 1154
Flags: W
HStem: -1 21G<85 262 580 758> 939 20G<28 238 530 735 1029 1236>
VStem: 580 140<-1 959>
Fore
28 959 m 1
 238 959 l 1
 228 239 l 1
 530 959 l 1
 735 959 l 1
 720 230 l 1
 1029 959 l 1
 1236 959 l 1
 758 -1 l 1
 580 -1 l 1
 582 730 l 1
 262 -1 l 1
 85 -1 l 1
 28 959 l 1
EndSplineSet
EndChar
StartChar: X
Encoding: 88 88 58
OldEncoding: 88
Width: 826
Flags: W
HStem: -1 21G<-134 97 464 695> 939 20G<89 323 668 899>
Fore
89 959 m 1
 323 959 l 1
 423 648 l 1
 668 959 l 1
 899 959 l 1
 501 489 l 1
 695 -1 l 1
 464 -1 l 1
 353 325 l 1
 97 -1 l 1
 -134 -1 l 1
 276 482 l 1
 89 959 l 1
EndSplineSet
EndChar
StartChar: Y
Encoding: 89 89 59
OldEncoding: 89
Width: 807
Flags: W
HStem: -1 21G<169 366> 939 20G<64 284 663 885>
DStem: 248 355 445 355 169 -1 366 -1
Fore
663 959 m 1
 885 959 l 1
 445 355 l 1
 366 -1 l 1
 169 -1 l 1
 248 355 l 1
 64 959 l 1
 284 959 l 1
 390 545 l 1
 663 959 l 1
EndSplineSet
MinimumDistance: x6,1 
EndChar
StartChar: Z
Encoding: 90 90 60
OldEncoding: 90
Width: 758
Flags: W
HStem: -1 164<148 603> 792 167<90 544>
DStem: 544 792 777 795 -83 163 148 163
Fore
91 959 m 1
 813 959 l 1
 777 795 l 1
 148 163 l 1
 639 163 l 1
 603 -1 l 1
 -119 -1 l 1
 -83 163 l 1
 544 792 l 1
 55 795 l 1
 91 959 l 1
EndSplineSet
EndChar
StartChar: bracketleft
Encoding: 91 91 61
OldEncoding: 91
Width: 408
Flags: W
HStem: 842 132<199 488>
DStem: 199 974 343 842 -70 -253 130 -116
Fore
488 842 m 1
 343 842 l 1
 130 -116 l 1
 275 -116 l 1
 244 -253 l 1
 -70 -253 l 1
 199 974 l 1
 516 974 l 1
 488 842 l 1
EndSplineSet
EndChar
StartChar: backslash
Encoding: 92 92 62
OldEncoding: 92
Width: 343
Flags: W
HStem: -26 21G<151 248>
DStem: 64 934 164 934 151 -26 248 -26
Fore
64 934 m 1
 164 934 l 1
 248 -26 l 1
 151 -26 l 1
 64 934 l 1
EndSplineSet
EndChar
StartChar: bracketright
Encoding: 93 93 63
OldEncoding: 93
Width: 416
Flags: W
HStem: -253 137<-100 192> 955 20G<142 460>
DStem: 260 842 460 975 49 -116 192 -253
Fore
114 842 m 1
 142 975 l 1
 460 975 l 1
 192 -253 l 1
 -128 -253 l 1
 -99 -116 l 1
 49 -116 l 1
 260 842 l 1
 114 842 l 1
EndSplineSet
EndChar
StartChar: asciicircum
Encoding: 94 94 64
OldEncoding: 94
Width: 733
Flags: W
DStem: 305 897 355 731 -36 337 112 337 355 731 470 897 420 337 568 337
Fore
-36 337 m 1
 305 897 l 1
 470 897 l 1
 568 337 l 1
 420 337 l 1
 355 731 l 1
 112 337 l 1
 -36 337 l 1
EndSplineSet
EndChar
StartChar: underscore
Encoding: 95 95 65
OldEncoding: 95
Width: 689
Flags: W
HStem: -184 92<-200 571>
Fore
592 -92 m 5
 571 -184 l 5
 -220 -184 l 5
 -199 -92 l 5
 592 -92 l 5
EndSplineSet
EndChar
StartChar: grave
Encoding: 96 96 66
OldEncoding: 96
Width: 535
Flags: W
HStem: 776 183<158 527>
Fore
527 776 m 5
 369 776 l 5
 158 959 l 5
 420 959 l 5
 527 776 l 5
EndSplineSet
EndChar
StartChar: a
Encoding: 97 97 67
OldEncoding: 97
Width: 692
Flags: W
HStem: -16 153<102 260> 606 132<370 400>
Fore
578 14 m 1
 384 14 l 1
 379 21 375 30 374 42 c 0
 372 57 374 71 378 85 c 1
 347 60 311 37 270 16 c 0
 223 -5 167 -16 102 -16 c 1
 13 -7 -36 35 -43 109 c 0
 -46 136 -43 168 -34 204 c 0
 -20 263 8 313 47 352 c 0
 86 390 144 416 221 429 c 1
 281 431 345 442 414 460 c 1
 447 476 469 503 478 542 c 1
 480 555 l 1
 478 570 471 582 460 590 c 0
 443 601 413 606 370 606 c 0
 322 604 288 593 270 572 c 0
 248 550 233 523 225 491 c 1
 48 491 l 1
 89 656 206 738 400 738 c 0
 470 738 524 730 562 712 c 0
 615 690 646 651 651 595 c 0
 654 570 652 543 645 514 c 2
 560 123 l 1
 558 93 l 1
 560 74 568 57 582 40 c 1
 578 14 l 1
426 310 m 1
 436 350 l 1
 414 340 379 330 333 321 c 1
 257 312 l 2
 232 310 209 300 188 283 c 0
 167 264 155 244 152 222 c 1
 152 197 l 1
 153 193 l 2
 154 181 157 171 162 164 c 0
 168 155 178 149 194 144 c 0
 209 140 232 137 260 137 c 1
 313 144 351 163 376 195 c 1
 398 221 415 259 426 310 c 1
EndSplineSet
EndChar
StartChar: b
Encoding: 98 98 68
OldEncoding: 98
Width: 765
Flags: W
HStem: -30 158<290 317> 1 21G<-68 114> 566 159<393 478> 941 20G<143 324>
DStem: 143 961 324 961 -68 1 248 616
Fore
-68 1 m 1
 143 961 l 1
 324 961 l 1
 248 616 l 1
 300 689 377 725 478 725 c 0
 594 723 664 669 687 566 c 1
 694 512 l 1
 700 454 698 402 688 356 c 0
 669 280 634 207 586 135 c 0
 563 99 534 67 501 40 c 1
 476 17 444 0 404 -13 c 0
 373 -24 335 -30 291 -30 c 0
 219 -28 165 6 130 72 c 1
 114 1 l 1
 -68 1 l 1
393 566 m 0
 342 566 294 538 253 484 c 0
 222 442 200 396 190 345 c 0
 182 315 179 283 183 248 c 1
 191 206 l 1
 209 154 245 128 298 128 c 0
 354 128 400 154 437 206 c 0
 467 247 487 293 499 345 c 1
 506 384 507 415 505 440 c 1
 496 484 l 1
 491 513 479 533 460 546 c 1
 437 559 415 566 393 566 c 0
EndSplineSet
EndChar
StartChar: c
Encoding: 99 99 69
OldEncoding: 99
Width: 688
Flags: W
HStem: -16 153<244 288> 579 159<383 419>
VStem: -10 192<262 273>
Fore
671 460 m 1
 495 460 l 1
 491 491 l 2
 488 523 481 545 469 555 c 0
 450 571 421 579 383 579 c 0
 322 581 273 547 234 475 c 1
 226 451 l 1
 208 410 l 1
 194 354 l 1
 185 319 182 289 182 266 c 1
 184 243 l 2
 188 205 198 179 214 164 c 0
 231 149 256 140 288 137 c 1
 323 137 352 145 376 160 c 0
 403 176 428 210 453 264 c 1
 627 264 l 1
 616 218 594 177 561 142 c 0
 521 97 489 66 467 49 c 0
 436 27 405 11 372 1 c 0
 335 -11 293 -16 244 -16 c 0
 176 -19 121 -4 82 28 c 0
 45 58 18 95 3 140 c 0
 -4 160 -8 181 -10 204 c 0
 -13 224 -13 243 -10 262 c 1
 -10 280 -5 313 5 359 c 1
 20 429 44 488 78 537 c 0
 121 599 157 643 188 669 c 0
 225 700 261 718 294 725 c 0
 335 734 376 738 419 738 c 0
 502 740 563 727 600 699 c 1
 631 679 651 643 662 590 c 1
 672 535 l 1
 675 504 675 479 671 460 c 1
EndSplineSet
EndChar
StartChar: d
Encoding: 100 100 70
OldEncoding: 100
Width: 755
Flags: W
HStem: -30 158<185 251> -4 21G<374 560> 568 157<329 349> 941 20G<585 771>
DStem: 585 961 771 961 508 616 560 -4
Fore
771 961 m 1
 560 -4 l 1
 374 -4 l 1
 389 72 l 1
 363 40 329 16 289 -2 c 0
 246 -21 212 -30 185 -30 c 0
 148 -32 113 -27 79 -13 c 0
 49 -2 24 15 7 40 c 0
 -14 65 -27 97 -33 135 c 1
 -40 160 -45 185 -48 211 c 0
 -52 251 -51 292 -43 334 c 0
 -24 421 6 498 49 563 c 0
 118 669 212 723 331 725 c 0
 435 725 495 689 508 616 c 1
 585 961 l 1
 771 961 l 1
347 568 m 0
 294 568 246 541 203 486 c 1
 174 440 155 393 146 347 c 0
 138 308 136 271 139 237 c 2
 142 206 l 1
 159 154 196 128 251 128 c 0
 308 128 354 154 390 206 c 0
 419 246 439 293 451 347 c 0
 459 379 461 413 457 449 c 1
 451 486 l 1
 432 541 398 568 347 568 c 0
EndSplineSet
EndChar
StartChar: e
Encoding: 101 101 71
OldEncoding: 101
Width: 690
Flags: W
HStem: -16 150<237 307> 312 125<196 644> 586 153<381 404>
Fore
644 312 m 1
 167 312 l 1
 160 280 158 251 160 227 c 0
 161 217 164 208 168 199 c 0
 179 175 195 158 219 149 c 0
 242 139 271 134 307 134 c 1
 341 144 367 154 384 164 c 0
 404 179 419 196 429 215 c 1
 614 215 l 1
 593 169 560 129 516 95 c 1
 471 58 424 31 377 14 c 1
 327 -6 280 -16 237 -16 c 0
 177 -16 119 1 61 37 c 1
 34 61 13 86 0 114 c 0
 -13 142 -22 172 -25 202 c 2
 -26 208 l 1
 -26 239 -25 268 -21 294 c 1
 -5 363 7 414 18 447 c 1
 50 530 90 595 140 639 c 1
 184 682 228 710 274 723 c 0
 315 733 358 739 404 739 c 0
 468 739 521 725 562 699 c 0
 602 672 630 639 646 599 c 0
 655 578 661 550 665 518 c 2
 666 505 l 1
 667 463 667 432 664 412 c 1
 644 312 l 1
196 437 m 1
 480 437 l 1
 484 455 485 476 483 498 c 1
 475 537 l 1
 461 570 430 586 381 586 c 0
 330 588 289 573 256 542 c 0
 223 509 202 473 196 437 c 1
EndSplineSet
EndChar
StartChar: f
Encoding: 102 102 72
OldEncoding: 102
Width: 406
Flags: W
HStem: -1 21G<-26 160> 575 122<28 102 316 398> 820 139<359 447>
DStem: 102 575 290 575 -26 -1 160 -1
Fore
2 575 m 1
 29 697 l 1
 128 697 l 1
 148 781 l 2
 161 837 184 881 218 913 c 1
 255 944 302 959 359 959 c 2
 476 959 l 1
 447 820 l 1
 381 820 l 2
 353 820 336 804 331 772 c 1
 316 697 l 1
 425 697 l 1
 398 575 l 1
 290 575 l 1
 160 -1 l 1
 -26 -1 l 1
 102 575 l 1
 2 575 l 1
EndSplineSet
EndChar
StartChar: g
Encoding: 103 103 73
OldEncoding: 103
Width: 756
Flags: W
HStem: -260 127<169 250> -2 148<263 326> 587 166<409 438> 722 20G<618 791>
Fore
618 742 m 1
 791 742 l 1
 632 11 l 1
 622 -33 604 -75 574 -115 c 1
 543 -151 508 -182 469 -205 c 0
 403 -244 304 -263 169 -260 c 0
 102 -258 48 -235 5 -191 c 0
 -23 -164 -38 -134 -41 -101 c 0
 -43 -86 -43 -70 -39 -54 c 1
 153 -54 l 1
 153 -73 l 1
 156 -101 187 -121 247 -133 c 1
 299 -133 346 -119 386 -91 c 0
 422 -65 446 -34 455 3 c 1
 476 104 l 1
 456 84 434 65 411 47 c 0
 391 31 369 20 345 13 c 1
 322 3 294 -2 263 -2 c 0
 214 -2 177 4 152 15 c 0
 124 27 99 48 77 78 c 1
 59 97 46 124 37 157 c 1
 30 208 l 1
 27 254 l 1
 26 282 31 318 40 362 c 0
 54 421 76 478 104 533 c 0
 134 586 171 631 214 667 c 0
 278 725 351 753 432 753 c 0
 460 753 482 750 497 744 c 0
 507 740 521 731 540 718 c 1
 565 687 l 1
 594 636 l 1
 618 742 l 1
421 587 m 0
 362 587 313 561 275 508 c 1
 245 470 222 423 205 367 c 1
 202 333 201 303 204 276 c 1
 211 228 l 1
 231 174 269 146 326 146 c 0
 387 146 436 174 474 228 c 1
 503 265 524 311 536 367 c 0
 544 405 547 438 544 469 c 1
 536 508 l 1
 516 561 478 587 421 587 c 0
EndSplineSet
EndChar
StartChar: h
Encoding: 104 104 74
OldEncoding: 104
Width: 765
Flags: W
HStem: -1 21G<-63 121 376 561> 561 162<410 488> 939 20G<147 317>
DStem: 147 959 317 959 -63 -1 243 619 147 959 214 416 -63 -1 121 -1 475 450 675 520 376 -1 561 -1
Fore
317 959 m 1
 243 619 l 1
 307 688 388 723 488 723 c 0
 550 723 601 707 641 674 c 1
 664 653 677 626 681 591 c 0
 683 571 682 547 675 520 c 2
 561 -1 l 1
 376 -1 l 1
 475 450 l 2
 479 468 480 487 478 506 c 1
 474 524 l 2
 469 542 448 555 410 561 c 1
 365 561 324 550 286 526 c 1
 249 501 225 464 214 416 c 1
 121 -1 l 1
 -63 -1 l 1
 147 959 l 1
 317 959 l 1
EndSplineSet
EndChar
StartChar: i
Encoding: 105 105 75
OldEncoding: 105
Width: 344
Flags: W
HStem: -1 21G<-46 139> 795 21G<129 314> 939 20G<165 351>
DStem: 110 712 295 712 -46 -1 139 -1
Fore
129 795 m 1
 165 959 l 1
 351 959 l 1
 314 795 l 1
 129 795 l 1
-46 -1 m 1
 110 712 l 1
 295 712 l 1
 139 -1 l 1
 -46 -1 l 1
EndSplineSet
EndChar
StartChar: j
Encoding: 106 106 76
OldEncoding: 106
Width: 348
Flags: W
HStem: -274 153<-142 -93> 708 20G<163 347> 956 20G<219 402>
DStem: 163 728 347 728 -11 -70 163 -117
Fore
184 812 m 1
 219 976 l 1
 402 976 l 1
 367 812 l 1
 184 812 l 1
-11 -70 m 2
 163 728 l 1
 347 728 l 1
 163 -117 l 1
 158 -140 148 -162 135 -181 c 0
 121 -205 104 -222 88 -234 c 1
 68 -251 47 -260 26 -263 c 0
 -26 -270 -81 -274 -142 -274 c 1
 -107 -121 l 1
 -73 -121 -51 -118 -39 -112 c 0
 -25 -106 -15 -92 -11 -70 c 2
EndSplineSet
EndChar
StartChar: k
Encoding: 107 107 77
OldEncoding: 107
Width: 690
Flags: W
HStem: -1 21G<-75 108 348 569> 939 20G<137 317>
DStem: 137 959 317 959 -75 -1 201 434 137 959 157 221 -75 -1 108 -1 498 712 708 712 201 434 409 441
Fore
137 959 m 1
 317 959 l 1
 201 434 l 1
 498 712 l 1
 708 712 l 1
 409 441 l 1
 569 -1 l 1
 348 -1 l 1
 252 304 l 1
 157 221 l 1
 108 -1 l 1
 -75 -1 l 1
 137 959 l 1
EndSplineSet
EndChar
StartChar: l
Encoding: 108 108 78
OldEncoding: 108
Width: 344
Flags: W
HStem: -1 21G<-46 139> 939 20G<165 351>
DStem: 165 959 351 959 -46 -1 139 -1
Fore
165 959 m 1
 351 959 l 1
 139 -1 l 1
 -46 -1 l 1
 165 959 l 1
EndSplineSet
EndChar
StartChar: m
Encoding: 109 109 79
OldEncoding: 109
Width: 1106
Flags: W
HStem: 579 162<792 870> 705 20G<94 282>
DStem: 94 725 220 449 -60 12 123 12 457 502 629 449 352 12 533 12 870 502 1054 507 761 12 944 12
Fore
123 12 m 1
 -60 12 l 1
 94 725 l 1
 282 725 l 1
 255 619 l 1
 295 662 332 692 367 708 c 1
 401 727 446 736 502 736 c 1
 545 732 574 722 589 708 c 1
 605 696 624 671 648 632 c 1
 676 665 709 692 745 714 c 1
 780 732 821 741 870 741 c 1
 921 736 l 1
 1008 725 1054 681 1063 604 c 0
 1065 578 1063 545 1054 507 c 2
 944 12 l 1
 761 12 l 1
 870 502 l 1
 870 524 l 1
 867 556 841 575 792 579 c 1
 749 579 713 565 683 538 c 1
 654 507 635 477 629 449 c 2
 533 12 l 1
 352 12 l 1
 457 502 l 1
 459 514 l 1
 455 555 425 577 372 579 c 0
 342 579 309 568 277 544 c 1
 248 522 229 490 220 449 c 2
 123 12 l 1
EndSplineSet
EndChar
StartChar: n
Encoding: 110 110 80
OldEncoding: 110
Width: 761
Flags: W
HStem: 589 148<408 485> 705 20G<120 303>
DStem: 120 725 246 468 -37 12 146 12 511 450 705 491 415 12 600 12
Fore
-37 12 m 1
 120 725 l 1
 303 725 l 1
 279 619 l 1
 307 656 339 685 376 706 c 0
 412 726 448 737 485 737 c 0
 627 737 703 687 713 589 c 0
 716 562 713 529 705 491 c 2
 600 12 l 1
 415 12 l 1
 511 450 l 1
 516 481 518 505 516 524 c 1
 511 551 l 1
 501 576 467 589 408 589 c 1
 355 582 317 567 296 545 c 1
 273 524 257 499 246 468 c 1
 146 12 l 1
 -37 12 l 1
EndSplineSet
EndChar
StartChar: o
Encoding: 111 111 81
OldEncoding: 111
Width: 758
Flags: W
HStem: -19 160<274 308> 581 157<405 439>
Fore
274 -19 m 0
 174 -19 97 12 44 72 c 0
 18 103 2 145 -7 197 c 1
 -7 204 l 2
 -12 251 -8 303 5 361 c 0
 16 417 37 473 69 528 c 0
 97 582 132 623 172 653 c 1
 247 710 336 738 439 738 c 0
 540 738 615 710 665 653 c 0
 693 623 710 582 719 528 c 1
 719 522 l 2
 724 473 721 419 709 361 c 1
 691 296 671 242 646 197 c 0
 619 147 582 104 537 70 c 0
 461 11 373 -19 274 -19 c 0
405 581 m 0
 348 581 298 555 255 502 c 1
 221 455 199 408 190 361 c 1
 182 332 179 302 183 271 c 1
 194 222 l 1
 212 169 251 141 308 141 c 0
 368 141 417 169 457 222 c 1
 489 263 512 309 523 361 c 0
 529 392 531 422 527 452 c 1
 517 502 l 1
 499 555 461 581 405 581 c 0
EndSplineSet
EndChar
StartChar: p
Encoding: 112 112 82
OldEncoding: 112
Width: 762
Flags: W
HStem: -260 21G<-59 124> -2 154<356 377> 592 161<468 537> 722 20G<162 345>
DStem: 162 742 203 104 -59 -260 124 -260
Fore
162 742 m 1
 345 742 l 1
 319 636 l 1
 366 679 l 1
 415 718 l 1
 441 733 458 742 465 744 c 0
 483 750 507 753 537 753 c 0
 618 753 679 725 718 667 c 0
 741 637 757 593 765 536 c 1
 766 528 l 2
 771 474 768 419 755 362 c 0
 743 304 724 250 696 203 c 0
 668 152 634 110 596 78 c 0
 559 47 523 27 490 15 c 0
 464 4 425 -2 375 -2 c 0
 342 -2 317 3 297 13 c 0
 281 19 265 30 249 45 c 0
 246 48 231 67 203 104 c 1
 124 -260 l 1
 -59 -260 l 1
 162 742 l 1
468 592 m 0
 410 592 363 565 325 510 c 0
 297 470 277 423 264 371 c 0
 256 339 255 302 260 261 c 1
 265 232 l 1
 281 179 317 152 370 152 c 0
 428 152 474 179 510 232 c 1
 538 273 559 319 572 371 c 0
 580 402 581 438 577 478 c 1
 571 510 l 1
 557 565 522 592 468 592 c 0
EndSplineSet
EndChar
StartChar: q
Encoding: 113 113 83
OldEncoding: 113
Width: 751
Flags: W
HStem: -260 21G<386 568> -2 141<250 318> 587 166<397 419> 720 20G<604 788>
DStem: 464 104 788 740 386 -260 568 -260
Fore
788 740 m 1
 568 -260 l 1
 386 -260 l 1
 464 104 l 1
 444 84 422 65 398 47 c 0
 378 31 356 20 332 13 c 1
 309 3 281 -2 250 -2 c 0
 199 -2 162 4 137 15 c 0
 110 27 85 48 62 78 c 0
 39 108 23 150 18 203 c 2
 17 210 l 2
 12 257 16 308 27 362 c 0
 42 421 63 478 92 533 c 1
 127 592 162 637 199 667 c 0
 225 692 258 713 296 731 c 0
 328 746 369 753 419 753 c 1
 470 751 507 740 531 721 c 0
 554 702 571 673 582 636 c 1
 604 740 l 1
 788 740 l 1
415 587 m 0
 361 587 315 560 276 506 c 0
 244 460 222 413 212 365 c 0
 204 332 203 297 207 258 c 1
 213 221 l 1
 229 167 265 139 318 139 c 0
 367 139 414 167 458 221 c 1
 489 264 511 312 522 365 c 0
 530 402 532 435 529 464 c 1
 521 506 l 1
 504 560 468 587 415 587 c 0
EndSplineSet
EndChar
StartChar: r
Encoding: 114 114 84
OldEncoding: 114
Width: 477
Flags: W
HStem: 554 183<432 537> 705 20G<130 315>
DStem: 130 725 245 415 -25 12 156 12
Fore
-25 12 m 1
 130 725 l 1
 315 725 l 1
 285 589 l 1
 297 609 311 628 328 646 c 0
 340 660 364 678 399 699 c 0
 436 724 482 737 537 737 c 1
 492 549 l 1
 432 554 l 1
 391 554 355 544 325 524 c 0
 290 502 264 465 245 415 c 1
 156 12 l 1
 -25 12 l 1
EndSplineSet
EndChar
StartChar: s
Encoding: 115 115 85
OldEncoding: 115
Width: 690
Flags: W
HStem: -16 139<233 289> 599 139<364 386>
Fore
-30 224 m 1
 153 224 l 1
 156 199 164 179 175 167 c 0
 186 155 200 145 219 137 c 0
 239 127 262 123 289 123 c 0
 365 121 409 145 420 197 c 1
 422 220 l 1
 418 237 l 1
 412 248 402 255 389 257 c 1
 173 324 l 2
 117 341 83 365 68 396 c 1
 61 408 56 424 55 442 c 0
 53 461 54 480 58 498 c 0
 75 574 117 636 183 685 c 1
 235 721 303 738 386 738 c 0
 477 740 547 724 596 688 c 0
 635 660 657 631 662 599 c 1
 667 581 l 1
 670 554 667 526 660 498 c 1
 481 498 l 1
 485 512 487 527 485 542 c 1
 482 555 l 1
 472 570 455 581 432 588 c 0
 408 596 387 599 366 599 c 0
 339 599 310 593 280 579 c 0
 260 569 248 552 244 528 c 2
 241 511 l 1
 243 499 252 490 272 483 c 2
 273 483 l 1
 277 482 l 1
 525 410 l 2
 548 402 568 390 585 375 c 0
 600 358 611 338 618 315 c 1
 623 305 626 296 627 288 c 0
 629 267 627 250 621 237 c 1
 612 191 591 147 557 104 c 0
 522 60 475 28 415 7 c 0
 398 2 369 -3 329 -9 c 0
 296 -14 265 -16 233 -16 c 0
 166 -14 117 -5 81 12 c 0
 13 46 -25 96 -32 160 c 0
 -34 182 -33 204 -30 224 c 1
EndSplineSet
EndChar
StartChar: t
Encoding: 116 116 86
OldEncoding: 116
Width: 409
Flags: W
HStem: -26 143<170 223> 581 122<43 108 320 395>
DStem: 108 581 293 581 5 115 205 181 177 898 362 898 135 703 320 703
Fore
44 703 m 1
 135 703 l 1
 177 898 l 1
 362 898 l 1
 320 703 l 1
 422 703 l 1
 395 581 l 1
 293 581 l 1
 205 181 l 1
 201 166 199 152 200 139 c 0
 202 125 210 117 223 117 c 2
 292 115 l 1
 263 -9 l 1
 227 -20 196 -26 170 -26 c 0
 137 -28 110 -25 88 -16 c 1
 38 0 11 32 5 81 c 1
 5 115 l 1
 108 581 l 1
 18 581 l 1
 44 703 l 1
EndSplineSet
EndChar
StartChar: u
Encoding: 117 117 87
OldEncoding: 117
Width: 755
Flags: W
HStem: 708 20G<113 298 563 749>
DStem: 113 728 298 728 6 233 201 286 563 728 749 728 462 267 592 15
Fore
749 728 m 1
 592 15 l 1
 408 15 l 1
 426 103 l 1
 390 60 359 31 333 17 c 0
 308 4 272 -7 227 -16 c 1
 175 -14 133 -8 99 1 c 0
 65 9 39 32 19 70 c 0
 8 90 1 110 -1 130 c 0
 -4 159 -1 193 6 233 c 1
 113 728 l 1
 298 728 l 1
 201 286 l 2
 195 257 194 233 196 214 c 0
 196 205 198 196 202 186 c 0
 212 162 245 149 303 149 c 1
 356 156 393 170 415 191 c 1
 441 213 456 238 462 267 c 2
 563 728 l 1
 749 728 l 1
EndSplineSet
EndChar
StartChar: v
Encoding: 118 118 88
OldEncoding: 118
Width: 676
Flags: W
HStem: 706 20G<45 240 538 733>
Fore
45 726 m 1
 240 726 l 1
 273 203 l 1
 538 726 l 1
 733 726 l 1
 328 13 l 1
 134 13 l 1
 45 726 l 1
EndSplineSet
EndChar
StartChar: w
Encoding: 119 119 89
OldEncoding: 119
Width: 952
Flags: W
HStem: 706 20G<19 208 426 616 828 1020>
VStem: 475 133<13 726>
DStem: 426 726 476 515 209 225 251 13
Fore
19 726 m 1
 208 726 l 1
 209 225 l 1
 426 726 l 1
 616 726 l 1
 608 225 l 1
 828 726 l 1
 1020 726 l 1
 665 13 l 1
 475 13 l 1
 476 515 l 1
 251 13 l 1
 62 13 l 1
 19 726 l 1
EndSplineSet
EndChar
StartChar: x
Encoding: 120 120 90
OldEncoding: 120
Width: 689
Flags: W
HStem: 706 20G<70 291 523 741>
Fore
70 726 m 1
 291 726 l 1
 359 510 l 1
 523 726 l 1
 741 726 l 1
 432 369 l 1
 587 13 l 1
 368 13 l 1
 297 223 l 1
 125 13 l 1
 -95 13 l 1
 216 369 l 1
 70 726 l 1
EndSplineSet
EndChar
StartChar: y
Encoding: 121 121 91
OldEncoding: 121
Width: 683
Flags: W
HStem: -260 151<-29 5> 723 20G<93 296 597 789>
Fore
93 743 m 1
 296 743 l 1
 337 224 l 1
 597 743 l 1
 789 743 l 1
 296 -118 l 1
 284 -147 260 -177 222 -209 c 0
 200 -228 163 -242 111 -248 c 0
 53 -256 6 -260 -29 -260 c 1
 3 -109 l 1
 60 -109 100 -103 121 -90 c 1
 156 -74 176 -48 183 -12 c 1
 184 25 l 1
 184 30 l 1
 93 743 l 1
EndSplineSet
EndChar
StartChar: z
Encoding: 122 122 92
OldEncoding: 122
Width: 620
Flags: W
HStem: 13 150<178 504> 576 150<98 391>
DStem: 391 576 618 576 -51 163 178 163
Fore
99 726 m 1
 652 726 l 1
 618 576 l 1
 178 163 l 1
 537 163 l 1
 504 13 l 1
 -84 13 l 1
 -51 163 l 1
 391 576 l 1
 64 576 l 1
 99 726 l 1
EndSplineSet
EndChar
StartChar: braceleft
Encoding: 123 123 93
OldEncoding: 123
Width: 475
Flags: W
HStem: -253 130<217 251> 306 123<5 30> 845 130<408 491>
DStem: 95 229 246 227 30 -72 186 -53 219 794 366 776 153 491 303 495
Fore
5 306 m 1
 30 429 l 1
 103 429 145 450 153 491 c 2
 219 794 l 1
 233 850 260 894 300 926 c 0
 340 958 377 975 408 975 c 2
 520 975 l 1
 491 845 l 1
 443 845 l 2
 414 845 397 839 389 829 c 1
 378 817 371 799 366 776 c 1
 303 495 l 1
 288 424 238 381 154 366 c 1
 185 361 212 350 232 334 c 0
 243 324 249 310 251 292 c 0
 253 275 251 254 246 227 c 2
 186 -53 l 1
 181 -67 178 -79 179 -90 c 0
 180 -97 182 -102 183 -103 c 0
 188 -116 204 -123 229 -123 c 2
 278 -123 l 1
 251 -253 l 1
 137 -253 l 2
 109 -253 81 -236 53 -204 c 0
 37 -185 28 -162 25 -134 c 0
 23 -117 25 -97 30 -72 c 1
 95 229 l 1
 97 255 l 1
 94 289 63 306 5 306 c 1
EndSplineSet
EndChar
StartChar: bar
Encoding: 124 124 94
OldEncoding: 124
Width: 346
Flags: W
HStem: 955 20G<250 354>
DStem: 250 975 354 975 -19 -253 85 -253
Fore
354 975 m 1
 85 -253 l 1
 -19 -253 l 1
 250 975 l 1
 354 975 l 1
EndSplineSet
EndChar
StartChar: braceright
Encoding: 125 125 95
OldEncoding: 125
Width: 487
Flags: W
HStem: 306 123<431 457> 955 20G<211 321>
DStem: 154 227 307 229 94 -53 241 -72 275 776 431 794 212 495 365 493
Fore
457 429 m 1
 431 306 l 1
 397 306 369 300 349 290 c 1
 327 275 313 255 307 229 c 1
 241 -72 l 2
 228 -128 202 -172 160 -204 c 0
 118 -236 81 -253 50 -253 c 2
 -58 -253 l 1
 -28 -123 l 1
 20 -123 l 2
 46 -123 64 -116 74 -103 c 0
 82 -90 90 -73 94 -53 c 1
 154 227 l 2
 173 312 226 359 313 368 c 1
 284 370 256 380 229 398 c 1
 219 407 213 422 211 442 c 0
 209 457 209 475 212 495 c 1
 275 776 l 1
 280 792 281 806 280 820 c 1
 276 829 l 1
 273 841 257 847 230 847 c 2
 182 847 l 1
 211 975 l 1
 321 975 l 2
 340 975 360 969 381 957 c 1
 403 941 417 920 427 893 c 1
 436 859 l 1
 437 844 436 822 431 794 c 1
 365 493 l 1
 364 475 l 1
 367 444 399 429 457 429 c 1
EndSplineSet
EndChar
StartChar: asciitilde
Encoding: 126 126 96
OldEncoding: 126
Width: 723
Flags: W
Fore
118 248 m 1
 27 248 l 1
 51 315 86 366 130 401 c 0
 166 429 200 443 234 443 c 0
 259 443 282 435 303 419 c 1
 421 343 l 2
 446 326 468 317 486 317 c 0
 524 317 549 345 563 401 c 1
 665 401 l 1
 658 373 649 347 638 324 c 1
 623 299 600 275 569 250 c 1
 537 221 503 206 469 206 c 0
 442 206 413 217 382 237 c 1
 254 315 l 2
 235 328 217 334 201 334 c 0
 178 334 161 325 151 308 c 1
 136 288 125 268 118 248 c 1
EndSplineSet
EndChar
StartChar: uni0E10.descless
Encoding: 128 63232 97
OldEncoding: 63232
Width: 681
Flags: W
HStem: -1 21G<310 458> 188 93<151 171> 403 97<196 218> 644 107<591 612> 705 99<342 363>
Fore
310 -1 m 1
 307 73 l 1
 297 149 l 1
 286 209 280 239 277 239 c 1
 271 233 256 222 234 207 c 0
 214 195 186 188 151 188 c 0
 101 188 67 204 47 235 c 1
 35 249 27 268 25 290 c 0
 22 310 24 327 28 343 c 0
 39 389 61 425 95 452 c 1
 129 482 171 498 218 500 c 0
 261 500 296 492 320 476 c 1
 340 457 352 427 357 385 c 1
 375 316 l 1
 380 289 383 274 385 272 c 1
 406 381 l 1
 415 426 419 456 417 471 c 0
 417 479 415 485 411 491 c 0
 399 507 369 522 321 535 c 0
 247 556 195 568 167 573 c 2
 46 591 l 1
 60 642 l 1
 105 691 155 731 207 763 c 1
 258 790 310 804 363 804 c 0
 408 804 456 796 507 778 c 0
 558 760 593 751 612 751 c 0
 639 751 670 758 705 772 c 1
 705 769 l 1
 707 732 l 1
 705 665 l 1
 658 651 619 644 591 644 c 1
 536 648 l 1
 465 674 l 1
 397 697 l 2
 381 702 364 705 345 705 c 0
 324 705 302 700 280 690 c 0
 256 681 242 673 238 665 c 1
 326 652 l 2
 366 644 397 637 417 630 c 0
 492 610 536 582 549 547 c 1
 554 520 l 1
 558 484 553 439 540 385 c 1
 458 -1 l 1
 310 -1 l 1
168 281 m 1
 188 281 205 287 218 299 c 0
 230 309 238 324 244 343 c 1
 243 367 l 1
 240 385 l 1
 230 397 216 403 196 403 c 0
 178 403 162 397 149 385 c 0
 138 376 130 362 123 343 c 1
 120 325 l 1
 121 315 125 308 130 301 c 0
 139 290 151 283 168 281 c 1
EndSplineSet
EndChar
StartChar: uni0E34.left
Encoding: 129 63233 98
OldEncoding: 63233
Width: 0
Flags: W
HStem: 915 97<-610 -570.976>
Fore
-440 1176 m 0
 -385 1176 -339 1161 -303 1130 c 0
 -271 1105 -250 1075 -240 1040 c 0
 -233 1019 -229 996 -226 971 c 1
 -224 929 l 1
 -223 841 l 1
 -322 873 l 1
 -374 886 -427 897 -482 905 c 0
 -519 912 -569 915 -631 915 c 1
 -752 911 l 1
 -829 903 l 1
 -798 981 -747 1046 -676 1097 c 1
 -605 1152 -526 1179 -440 1176 c 0
-457 1084 m 1
 -500 1084 -539 1076 -576 1061 c 1
 -613 1043 -636 1025 -646 1008 c 1
 -610 1012 l 1
 -551 1012 l 1
 -473 1008 l 1
 -428 1003 -394 996 -369 989 c 1
 -321 968 l 1
 -337 1036 -382 1075 -457 1084 c 1
EndSplineSet
EndChar
StartChar: uni0E35.left
Encoding: 130 63234 99
OldEncoding: 63234
Width: 0
Flags: W
DStem: -543 1012 -543 1012 -612 1010 -475 1007 -260 1259 -138 1259 -292 1120 -209 940
Fore
-440 1176 m 0
 -407 1176 -373 1168 -340 1153 c 1
 -292 1120 l 1
 -260 1259 l 1
 -138 1259 l 1
 -209 940 l 1
 -208 933 l 1
 -207 836 l 1
 -325 873 l 2
 -365 884 -419 895 -485 906 c 0
 -525 912 -576 915 -637 915 c 2
 -722 912 l 1
 -788 908 l 1
 -830 902 l 1
 -812 950 -784 995 -744 1039 c 0
 -706 1083 -659 1116 -607 1138 c 1
 -552 1166 -496 1178 -440 1176 c 0
-462 1083 m 1
 -502 1083 -540 1076 -575 1060 c 0
 -611 1044 -635 1025 -649 1005 c 1
 -612 1010 l 1
 -543 1012 l 1
 -475 1007 l 2
 -442 1004 -406 997 -369 988 c 1
 -318 968 l 1
 -327 995 -341 1019 -360 1041 c 0
 -379 1062 -412 1076 -462 1083 c 1
EndSplineSet
EndChar
StartChar: uni0E36.left
Encoding: 131 63235 100
OldEncoding: 63235
Width: 0
Flags: W
HStem: 914 97<-620 -583.127> 1082 93<-473 -447> 1182 90<-273 -250>
Fore
-146 1157 m 1
 -161 1088 -192 1043 -235 1022 c 1
 -219 953 l 1
 -217 928 l 2
 -213 897 -213 866 -216 835 c 1
 -334 872 l 2
 -374 883 -427 894 -494 905 c 0
 -534 911 -584 914 -645 914 c 2
 -731 912 l 1
 -797 907 l 1
 -839 902 l 1
 -821 949 -793 995 -753 1038 c 0
 -714 1082 -668 1115 -616 1138 c 1
 -565 1163 -509 1175 -447 1175 c 1
 -422 1173 l 1
 -403 1168 l 1
 -394 1190 -377 1212 -353 1235 c 1
 -329 1260 -296 1272 -250 1272 c 0
 -215 1272 -188 1262 -167 1241 c 1
 -156 1225 -148 1205 -145 1182 c 1
 -146 1157 l 1
-471 1082 m 1
 -511 1082 -548 1075 -583 1060 c 0
 -622 1042 -646 1024 -657 1007 c 1
 -620 1011 l 1
 -563 1011 l 1
 -483 1007 l 1
 -449 1003 -415 996 -377 987 c 1
 -327 967 l 1
 -335 994 -350 1019 -369 1040 c 0
 -388 1062 -421 1076 -471 1082 c 1
-292 1102 m 0
 -282 1102 -272 1106 -262 1115 c 1
 -251 1122 -244 1131 -243 1142 c 2
 -242 1155 l 1
 -243 1162 -245 1167 -246 1168 c 0
 -252 1177 -260 1182 -273 1182 c 0
 -300 1182 -316 1169 -322 1142 c 1
 -323 1124 l 1
 -322 1109 -311 1102 -292 1102 c 0
EndSplineSet
EndChar
StartChar: uni0E37.left
Encoding: 132 63236 101
OldEncoding: 63236
Width: 0
Flags: W
HStem: 1083 93<-471 -443>
DStem: -551 1012 -551 1012 -620 1010 -483 1007 -261 1259 -146 1259 -295 1116 -217 940
Fore
-295 1116 m 1
 -261 1259 l 1
 -146 1259 l 1
 -217 940 l 1
 -216 933 l 1
 -215 836 l 1
 -333 873 l 2
 -373 884 -427 895 -493 906 c 0
 -533 912 -584 915 -645 915 c 2
 -730 912 l 1
 -796 908 l 1
 -838 902 l 1
 -787 1013 -727 1086 -655 1123 c 0
 -582 1158 -511 1176 -443 1176 c 1
 -424 1259 l 1
 -314 1259 l 1
 -341 1149 l 1
 -336 1149 -321 1138 -295 1116 c 1
-470 1083 m 1
 -510 1083 -548 1076 -583 1060 c 0
 -619 1044 -643 1025 -657 1005 c 1
 -620 1010 l 1
 -551 1012 l 1
 -483 1007 l 2
 -450 1004 -414 997 -377 988 c 1
 -326 968 l 1
 -335 995 -349 1019 -368 1041 c 0
 -387 1062 -420 1076 -470 1083 c 1
EndSplineSet
EndChar
StartChar: ellipsis
Encoding: 133 8230 102
OldEncoding: 8230
Width: 932
Flags: W
HStem: -44 20G<-10.5 32 307 368 626.5 668>
Fore
39 178 m 4
 95 178 126 155 131 109 c 4
 135 66 122 31 92 6 c 4
 70 -14 46 -24 18 -24 c 4
 -39 -24 -70 -1 -75 44 c 4
 -76 54 -75 65 -73 76 c 4
 -66 144 -29 178 39 178 c 4
355 178 m 4
 412 178 443 154 447 108 c 4
 448 98 448 87 447 76 c 4
 439 10 402 -24 334 -24 c 4
 280 -24 250 -1 244 44 c 4
 243 54 243 65 245 76 c 4
 253 144 289 178 355 178 c 4
675 178 m 4
 732 178 763 154 767 108 c 4
 770 65 758 31 728 6 c 4
 706 -14 682 -24 654 -24 c 4
 599 -24 569 -1 564 44 c 4
 563 54 563 65 565 76 c 4
 573 144 609 178 675 178 c 4
EndSplineSet
EndChar
StartChar: uni0E48.low_left
Encoding: 134 63237 103
OldEncoding: 63237
Width: 0
Flags: W
DStem: -317 1221 -183 1221 -393 869 -259 869
Fore
-393 869 m 5
 -317 1221 l 5
 -183 1221 l 5
 -259 869 l 5
 -393 869 l 5
EndSplineSet
EndChar
StartChar: uni0E49.low_left
Encoding: 135 63238 104
OldEncoding: 63238
Width: 0
Flags: W
HStem: 1153 97<-543 -520>
Fore
-402 1098 m 1
 -414 1059 -428 1027 -443 1003 c 0
 -457 983 -468 971 -477 968 c 1
 -447 973 l 1
 -407 987 l 1
 -354 1012 l 1
 -332 1029 -317 1042 -310 1052 c 0
 -273 1101 -249 1146 -240 1188 c 1
 -230 1241 l 1
 -100 1241 l 1
 -137 1070 -217 959 -338 906 c 0
 -413 875 -489 860 -569 860 c 1
 -632 862 l 1
 -670 869 l 5
 -659 915 l 1
 -649 919 -636 926 -624 936 c 0
 -611 947 -601 957 -595 968 c 1
 -635 980 l 2
 -659 987 -675 1003 -685 1029 c 0
 -690 1040 -694 1052 -695 1063 c 0
 -696 1079 -696 1096 -694 1112 c 0
 -684 1151 -662 1183 -629 1209 c 1
 -599 1237 -562 1250 -520 1250 c 0
 -485 1250 -459 1243 -442 1228 c 0
 -422 1210 -410 1189 -406 1167 c 2
 -400 1144 l 1
 -399 1129 -400 1114 -402 1098 c 1
-561 1063 m 0
 -547 1063 -535 1068 -526 1078 c 0
 -518 1086 -511 1096 -508 1109 c 1
 -507 1124 l 1
 -511 1140 l 1
 -517 1149 -527 1153 -543 1153 c 0
 -555 1153 -567 1149 -579 1140 c 0
 -589 1131 -595 1121 -596 1109 c 1
 -597 1096 l 1
 -592 1078 l 1
 -587 1068 -577 1063 -561 1063 c 0
EndSplineSet
EndChar
StartChar: uni0E4A.low_left
Encoding: 136 63239 105
OldEncoding: 63239
Width: 0
Flags: W
HStem: 841 71<-668 -654> 955 20G<-651.5 -635> 1086 86<-596 -578>
DStem: -145 1176 -145 1176 -245 1144 -144 1172
Fore
-668 841 m 4
 -711 843 -739 861 -753 894 c 5
 -763 911 -768 928 -769 945 c 4
 -772 968 -770 993 -764 1019 c 4
 -754 1058 -733 1095 -701 1128 c 4
 -675 1157 -639 1172 -594 1172 c 4
 -565 1172 -545 1166 -533 1155 c 4
 -519 1142 -511 1134 -509 1130 c 5
 -508 1131 -496 1140 -473 1155 c 5
 -460 1166 -438 1172 -409 1172 c 4
 -368 1172 -341 1159 -327 1134 c 5
 -319 1125 -315 1112 -313 1095 c 4
 -312 1081 -314 1061 -319 1033 c 4
 -327 996 -343 961 -368 929 c 5
 -338 947 l 6
 -324 954 -311 967 -297 984 c 4
 -272 1019 -256 1051 -252 1081 c 4
 -247 1101 -245 1122 -245 1144 c 5
 -145 1176 l 5
 -144 1172 l 6
 -142 1155 -144 1134 -150 1108 c 4
 -164 1041 -192 985 -235 940 c 4
 -266 905 -303 882 -344 871 c 4
 -381 860 -432 854 -495 854 c 5
 -492 873 l 5
 -492 892 l 5
 -481 900 -468 912 -454 929 c 4
 -439 945 -427 969 -417 1002 c 5
 -415 1019 -414 1033 -415 1044 c 4
 -417 1069 -430 1081 -451 1081 c 4
 -466 1081 -479 1078 -491 1070 c 6
 -517 1051 l 5
 -543 1072 l 5
 -555 1081 -570 1086 -590 1086 c 4
 -628 1086 -651 1069 -660 1035 c 5
 -638 1040 l 5
 -610 1044 l 5
 -580 1042 -559 1032 -548 1015 c 5
 -539 984 l 5
 -538 966 -540 949 -545 933 c 5
 -549 910 -563 888 -588 868 c 4
 -611 850 -638 841 -668 841 c 4
-641 975 m 4
 -662 975 -674 965 -679 945 c 5
 -679 938 l 5
 -675 924 l 5
 -671 916 -665 912 -656 912 c 4
 -644 912 -634 915 -628 922 c 4
 -623 928 -619 936 -617 945 c 5
 -616 954 l 5
 -620 966 l 5
 -622 972 -629 975 -641 975 c 4
EndSplineSet
EndChar
StartChar: uni0E4B.low_left
Encoding: 137 63240 106
OldEncoding: 63240
Width: 0
Flags: W
HStem: 1001 123<-563 -457 -303 -198>
DStem: -457 1001 -332 1001 -487 869 -359 869 -402 1255 -276 1255 -430 1124 -303 1124
Fore
-457 1001 m 5
 -591 1001 l 5
 -562 1124 l 5
 -430 1124 l 5
 -402 1255 l 5
 -276 1255 l 5
 -303 1124 l 5
 -169 1124 l 5
 -198 1001 l 5
 -332 1001 l 5
 -359 869 l 5
 -487 869 l 5
 -457 1001 l 5
EndSplineSet
EndChar
StartChar: uni0E4C.low_left
Encoding: 138 63241 107
OldEncoding: 63241
Width: 0
Flags: W
HStem: 847 93<-360 -346> 1028 92<-326 -297>
Fore
-90 1136 m 4
 -147 1126 -216 1120 -297 1120 c 4
 -257 1120 -227 1108 -210 1083 c 5
 -199 1070 -193 1054 -191 1035 c 4
 -190 1023 -190 1009 -192 993 c 5
 -203 953 -223 919 -250 891 c 5
 -283 862 -319 847 -360 847 c 4
 -413 845 -452 859 -480 891 c 5
 -494 911 -502 932 -504 954 c 4
 -506 975 -506 995 -502 1014 c 4
 -481 1102 -431 1163 -351 1200 c 4
 -317 1214 -270 1222 -213 1224 c 4
 -152 1229 -111 1236 -88 1246 c 4
 -64 1255 -47 1279 -38 1317 c 5
 79 1317 l 5
 67 1271 49 1232 21 1200 c 4
 -10 1164 -47 1143 -90 1136 c 4
-326 1028 m 4
 -340 1028 -353 1024 -365 1016 c 5
 -375 1007 -381 997 -381 984 c 6
 -383 970 l 5
 -376 954 l 5
 -370 945 -361 940 -348 940 c 4
 -334 940 -321 945 -312 954 c 5
 -303 960 -296 970 -292 984 c 4
 -289 991 -288 998 -288 1003 c 4
 -290 1019 -303 1028 -326 1028 c 4
EndSplineSet
EndChar
StartChar: uni0E48.low
Encoding: 139 63242 108
OldEncoding: 63242
Width: 0
Flags: W
DStem: -62 1221 72 1221 -138 869 -4 869
Fore
-138 869 m 5
 -62 1221 l 5
 72 1221 l 5
 -4 869 l 5
 -138 869 l 5
EndSplineSet
EndChar
StartChar: uni0E49.low
Encoding: 140 63243 109
OldEncoding: 63243
Width: 0
Flags: W
HStem: 1153 97<-213 -188>
Fore
-72 1098 m 4
 -84 1055 -97 1023 -111 1001 c 4
 -126 981 -137 970 -143 968 c 5
 -134 968 -121 971 -105 978 c 5
 -83 983 -62 990 -40 1001 c 4
 -21 1010 1 1027 24 1052 c 5
 58 1099 81 1146 94 1193 c 5
 102 1241 l 5
 232 1241 l 5
 193 1070 112 959 -8 906 c 4
 -81 875 -157 860 -237 860 c 5
 -300 862 l 5
 -338 869 l 5
 -327 915 l 5
 -318 917 -306 924 -292 936 c 5
 -276 945 -265 956 -261 968 c 5
 -303 980 l 6
 -329 986 -345 1003 -355 1029 c 5
 -362 1058 l 5
 -364 1078 -363 1096 -359 1112 c 4
 -352 1150 -331 1182 -297 1209 c 5
 -267 1237 -230 1250 -188 1250 c 4
 -140 1250 -108 1234 -88 1202 c 4
 -78 1186 -71 1168 -69 1149 c 4
 -67 1129 -68 1112 -72 1098 c 4
-231 1063 m 4
 -218 1063 -205 1068 -196 1078 c 4
 -182 1090 -174 1100 -174 1109 c 6
 -173 1122 l 5
 -173 1127 -176 1133 -181 1140 c 4
 -189 1149 -199 1153 -213 1153 c 4
 -226 1153 -238 1149 -249 1140 c 4
 -260 1131 -265 1121 -267 1109 c 5
 -267 1096 l 5
 -263 1078 l 5
 -257 1068 -247 1063 -231 1063 c 4
EndSplineSet
EndChar
StartChar: uni0E4A.low
Encoding: 141 63244 110
OldEncoding: 63244
Width: 0
Flags: W
HStem: 843 81<-294 -262> 1107 94<-226 -196>
Fore
-294 843 m 4
 -338 843 -369 863 -387 903 c 4
 -395 919 -401 939 -403 962 c 4
 -406 990 -405 1015 -398 1035 c 4
 -388 1080 -366 1119 -330 1153 c 4
 -297 1185 -257 1201 -212 1201 c 4
 -197 1201 -183 1199 -169 1194 c 5
 -143 1181 l 6
 -135 1176 -129 1171 -128 1167 c 6
 -120 1156 l 5
 -79 1182 l 5
 -78 1183 l 6
 -58 1195 -36 1201 -13 1201 c 4
 31 1201 62 1188 81 1163 c 5
 87 1148 91 1132 93 1116 c 4
 94 1100 93 1077 89 1049 c 5
 76 1006 57 968 31 936 c 5
 64 954 l 5
 79 964 94 978 110 995 c 4
 137 1028 155 1067 165 1112 c 4
 171 1134 172 1156 170 1176 c 6
 169 1188 l 5
 280 1209 l 5
 279 1186 278 1162 273 1137 c 5
 255 1058 223 994 177 947 c 5
 145 909 106 885 61 873 c 4
 13 861 -43 854 -105 854 c 5
 -102 871 l 5
 -99 896 l 5
 -95 898 -81 912 -57 938 c 5
 -42 957 -30 983 -22 1017 c 4
 -18 1034 -15 1050 -17 1066 c 4
 -20 1091 -33 1104 -56 1104 c 4
 -76 1104 -93 1099 -106 1090 c 5
 -125 1082 -136 1075 -140 1070 c 5
 -140 1070 l 5
 -147 1081 l 5
 -173 1099 l 5
 -186 1105 -198 1107 -209 1107 c 4
 -252 1107 -277 1089 -285 1053 c 5
 -262 1061 l 5
 -228 1066 l 5
 -199 1063 -177 1052 -161 1031 c 5
 -154 995 l 5
 -152 978 -153 960 -158 942 c 4
 -164 917 -180 894 -204 873 c 4
 -230 853 -260 843 -294 843 c 4
-248 991 m 4
 -272 991 -286 980 -291 958 c 5
 -291 945 l 5
 -290 931 -280 924 -262 924 c 4
 -239 924 -226 936 -222 958 c 5
 -221 971 l 5
 -224 982 l 5
 -227 988 -235 991 -248 991 c 4
EndSplineSet
EndChar
StartChar: uni0E4B.low
Encoding: 142 63245 111
OldEncoding: 63245
Width: 0
Flags: W
HStem: 1001 123<-223 -114 37 142>
DStem: -114 1001 9 1001 -144 869 -19 869 -60 1255 64 1255 -88 1124 37 1124
Fore
-114 1001 m 5
 -251 1001 l 5
 -222 1124 l 5
 -88 1124 l 5
 -60 1255 l 5
 64 1255 l 5
 37 1124 l 5
 171 1124 l 5
 142 1001 l 5
 9 1001 l 5
 -19 869 l 5
 -144 869 l 5
 -114 1001 l 5
EndSplineSet
EndChar
StartChar: uni0E4C.low
Encoding: 143 63246 112
OldEncoding: 63246
Width: 0
Flags: W
HStem: 849 90<-183 -168>
Fore
83 1136 m 4
 57 1132 19 1128 -30 1125 c 6
 -123 1120 l 5
 -84 1120 -54 1108 -37 1083 c 4
 -26 1069 -21 1053 -19 1034 c 4
 -18 1023 -18 1009 -21 993 c 4
 -29 951 -46 917 -75 891 c 5
 -108 863 -144 849 -183 849 c 4
 -241 849 -283 865 -307 895 c 4
 -321 914 -329 935 -332 959 c 4
 -333 972 -331 990 -326 1014 c 4
 -314 1060 -296 1098 -273 1127 c 4
 -249 1157 -216 1181 -177 1199 c 4
 -143 1213 -97 1222 -39 1227 c 4
 19 1229 61 1235 87 1246 c 5
 110 1252 127 1275 138 1317 c 5
 252 1317 l 5
 228 1213 172 1153 83 1136 c 4
-151 1030 m 4
 -165 1030 -177 1025 -187 1016 c 4
 -201 1005 -208 995 -208 986 c 6
 -208 972 l 5
 -202 954 l 5
 -196 944 -186 939 -170 939 c 4
 -156 939 -144 944 -134 954 c 4
 -127 962 -121 973 -118 986 c 5
 -116 999 l 5
 -123 1019 l 5
 -129 1026 -138 1030 -151 1030 c 4
EndSplineSet
EndChar
StartChar: uni0E0D.descless
Encoding: 144 63247 113
OldEncoding: 63247
Width: 1031
Flags: W
HStem: -14 85<173 195> -1 120<407 734> 196 86<223 237> 710 95<452 506> 766 20G<934 1068>
DStem: 591 592 721 571 485 119 620 119 934 786 1068 786 803 187 926 150
Fore
1068 786 m 1
 926 150 l 1
 917 103 905 71 888 53 c 0
 870 31 847 18 822 11 c 0
 789 3 749 -1 704 -1 c 2
 385 -1 l 1
 408 119 l 1
 485 119 l 1
 591 592 l 1
 592 627 l 1
 590 650 580 667 564 677 c 0
 537 697 500 708 452 710 c 0
 428 710 398 705 359 693 c 0
 315 682 284 666 264 645 c 1
 285 642 306 636 328 627 c 0
 359 616 385 601 407 583 c 1
 393 518 l 1
 366 518 338 510 312 494 c 0
 287 479 267 445 254 390 c 2
 229 280 l 1
 232 282 l 1
 239 282 l 2
 270 282 296 275 317 260 c 0
 334 246 347 228 353 205 c 1
 358 182 l 1
 360 166 359 150 357 134 c 0
 350 110 339 86 322 62 c 0
 305 37 284 19 259 6 c 0
 232 -7 203 -14 173 -14 c 0
 128 -14 96 1 74 30 c 1
 64 47 59 65 57 83 c 0
 55 100 57 117 61 136 c 2
 116 381 l 1
 124 426 138 460 156 485 c 1
 171 512 194 534 226 552 c 1
 213 559 196 565 175 571 c 0
 143 580 114 586 89 587 c 1
 99 631 l 1
 119 655 165 691 237 740 c 0
 307 783 396 805 506 805 c 0
 559 805 600 797 629 781 c 0
 659 766 683 747 700 724 c 1
 713 703 721 679 723 653 c 2
 724 647 l 1
 725 612 723 586 721 571 c 1
 620 119 l 1
 731 119 l 2
 755 119 772 123 783 132 c 1
 791 141 797 159 803 187 c 1
 934 786 l 1
 1068 786 l 1
195 71 m 0
 208 71 220 74 231 81 c 0
 246 90 254 97 258 103 c 0
 267 117 272 127 274 134 c 1
 273 157 l 1
 267 180 l 1
 258 191 243 196 223 196 c 0
 204 196 188 190 172 178 c 0
 156 164 147 150 146 134 c 1
 144 115 l 1
 150 92 l 1
 160 78 175 71 195 71 c 0
EndSplineSet
EndChar
StartChar: quoteleft
Encoding: 145 8216 114
OldEncoding: 8216
Width: 291
Flags: W
Fore
75 802 m 4
 88 865 122 917 173 957 c 4
 229 1000 276 1023 319 1027 c 5
 327 994 l 5
 287 975 259 960 245 950 c 4
 228 937 211 915 197 883 c 5
 222 883 245 876 264 862 c 4
 277 854 285 841 286 823 c 4
 288 810 287 797 285 784 c 4
 278 759 265 735 243 711 c 5
 221 693 196 684 169 684 c 4
 129 684 102 695 88 716 c 4
 78 729 73 743 71 760 c 4
 70 773 71 787 75 802 c 4
EndSplineSet
EndChar
StartChar: quoteright
Encoding: 146 8217 115
OldEncoding: 8217
Width: 295
Flags: W
HStem: 976 21G<195.5 230.5>
Fore
306 857 m 4
 292 795 260 743 207 702 c 4
 153 661 104 638 62 633 c 5
 53 665 l 5
 99 688 126 703 134 709 c 4
 154 723 170 746 182 777 c 5
 157 777 136 784 116 797 c 4
 103 805 96 818 94 837 c 4
 93 850 93 863 96 876 c 4
 102 904 116 928 137 947 c 4
 157 966 181 976 210 976 c 4
 251 976 280 965 293 943 c 4
 301 930 307 915 309 899 c 4
 310 888 309 874 306 857 c 4
EndSplineSet
EndChar
StartChar: quotedblleft
Encoding: 147 8220 116
OldEncoding: 8220
Width: 587
Flags: W
Fore
89 778 m 4
 100 843 131 897 179 939 c 4
 233 983 280 1008 321 1014 c 5
 331 983 l 5
 286 958 260 942 252 935 c 4
 233 919 219 895 207 865 c 5
 232 866 255 860 275 847 c 5
 289 840 297 828 300 809 c 4
 301 795 301 782 297 769 c 4
 293 741 281 717 260 696 c 4
 241 676 218 666 190 664 c 4
 148 662 120 671 105 692 c 4
 96 705 90 720 88 736 c 4
 86 747 87 761 89 778 c 4
341 791 m 4
 353 854 384 907 433 951 c 4
 485 996 533 1021 574 1027 c 5
 583 995 l 5
 542 971 516 955 504 948 c 4
 485 931 471 907 460 877 c 5
 485 878 507 872 528 860 c 5
 541 854 550 841 552 821 c 4
 554 808 554 795 552 782 c 4
 547 755 534 730 515 708 c 4
 494 688 470 677 442 677 c 4
 402 674 374 684 359 705 c 4
 349 717 343 732 340 749 c 4
 338 759 339 773 341 791 c 4
EndSplineSet
EndChar
StartChar: quotedblright
Encoding: 148 8221 117
OldEncoding: 8221
Width: 587
Flags: W
HStem: 976 21G<208 242 462 497>
Fore
573 857 m 5
 558 794 525 742 474 702 c 4
 419 661 370 638 327 633 c 5
 320 665 l 5
 366 688 392 703 400 709 c 4
 421 725 437 747 449 777 c 5
 424 777 402 784 382 797 c 5
 369 805 361 818 359 837 c 4
 358 850 359 863 363 876 c 4
 369 904 382 928 404 947 c 4
 423 966 448 976 476 976 c 4
 518 976 546 965 559 943 c 4
 568 930 574 915 576 899 c 4
 577 888 575 874 573 857 c 5
319 857 m 5
 303 795 270 743 218 702 c 4
 165 661 116 638 73 633 c 5
 65 665 l 5
 109 687 136 701 146 709 c 4
 167 725 182 747 195 777 c 5
 170 777 148 784 128 797 c 5
 114 804 107 817 105 837 c 4
 104 850 104 863 108 876 c 4
 114 903 128 926 148 947 c 5
 170 966 194 976 222 976 c 4
 262 976 290 965 305 943 c 4
 314 930 319 915 321 899 c 4
 322 888 321 874 319 857 c 5
EndSplineSet
EndChar
StartChar: bullet
Encoding: 149 8226 118
OldEncoding: 8226
Width: 370
Flags: W
Fore
132 205 m 0
 71 205 27 225 -2 265 c 1
 -15 286 -23 310 -26 340 c 0
 -28 361 -27 382 -23 402 c 0
 -14 438 1 470 20 497 c 0
 43 526 71 551 105 572 c 0
 138 590 176 599 217 599 c 0
 259 599 293 590 320 572 c 0
 345 553 361 529 370 499 c 1
 374 474 l 1
 376 452 374 428 368 402 c 0
 357 348 331 301 287 263 c 0
 246 225 194 205 132 205 c 0
EndSplineSet
EndChar
StartChar: endash
Encoding: 150 8211 119
OldEncoding: 8211
Width: 1090
Flags: W
HStem: 343 67<-57 1087>
Fore
-56 410 m 1
 1101 410 l 1
 1087 343 l 1
 -70 343 l 1
 -56 410 l 1
EndSplineSet
EndChar
StartChar: emdash
Encoding: 151 8212 120
OldEncoding: 8212
Width: 2183
Flags: W
HStem: 343 67<-124 2180>
Fore
-123 410 m 1
 2193 410 l 1
 2180 343 l 1
 -136 343 l 1
 -123 410 l 1
EndSplineSet
EndChar
StartChar: uni0E31.left
Encoding: 152 63248 121
OldEncoding: 63248
Width: 0
Flags: W
HStem: 847 112<-347 -326> 977 21G<-462.5 -444> 1088 93<-431 -410>
Fore
-410 1181 m 0
 -362 1181 -330 1166 -311 1138 c 0
 -301 1122 -294 1106 -293 1090 c 0
 -291 1075 -294 1055 -299 1030 c 0
 -302 1018 -306 1003 -313 986 c 1
 -334 959 l 1
 -277 959 -221 972 -166 999 c 0
 -114 1024 -59 1078 -4 1160 c 1
 97 1118 l 1
 73 1068 36 1020 -15 975 c 1
 -70 928 -121 896 -169 880 c 0
 -229 858 -288 847 -347 847 c 1
 -395 849 l 1
 -456 856 -508 875 -551 907 c 0
 -578 927 -594 953 -597 984 c 0
 -599 999 -598 1014 -595 1030 c 0
 -585 1073 -563 1109 -528 1138 c 0
 -498 1166 -458 1181 -410 1181 c 0
-453 977 m 0
 -435 977 -420 982 -408 993 c 1
 -399 1005 -391 1018 -385 1032 c 0
 -384 1037 -383 1043 -383 1050 c 1
 -392 1072 l 1
 -399 1082 -411 1088 -429 1088 c 0
 -450 1088 -465 1082 -475 1072 c 0
 -486 1060 -494 1046 -496 1032 c 2
 -499 1016 l 1
 -492 993 l 1
 -485 982 -472 977 -453 977 c 0
EndSplineSet
EndChar
StartChar: uni0E4D.left
Encoding: 153 63249 122
OldEncoding: 63249
Width: 0
Flags: W
HStem: 903 95<-373 -351> 1121 95<-325 -304>
Fore
-304 1216 m 4
 -257 1216 -221 1201 -197 1170 c 5
 -188 1149 -182 1129 -180 1112 c 4
 -178 1096 -178 1079 -182 1061 c 4
 -190 1019 -213 982 -249 949 c 5
 -286 918 -328 903 -373 903 c 4
 -422 903 -456 918 -478 949 c 5
 -489 969 -496 988 -498 1007 c 4
 -500 1026 -499 1044 -495 1061 c 4
 -486 1104 -464 1140 -429 1170 c 4
 -393 1201 -352 1216 -304 1216 c 4
-351 998 m 4
 -334 998 -318 1004 -302 1017 c 4
 -288 1027 -280 1042 -277 1061 c 5
 -277 1082 l 5
 -283 1102 l 5
 -291 1115 -305 1121 -325 1121 c 4
 -345 1121 -360 1115 -371 1104 c 5
 -385 1094 -393 1079 -398 1061 c 5
 -399 1037 l 5
 -393 1017 l 5
 -383 1004 -369 998 -351 998 c 4
EndSplineSet
EndChar
StartChar: uni0E47.left
Encoding: 154 63250 123
OldEncoding: 63250
Width: 0
Flags: W
HStem: 842 84<-345 -327> 954 104<-543 -507> 998 83<-313 -293> 1100 93<-371 -337>
Fore
-345 842 m 0
 -368 842 -388 848 -404 859 c 0
 -418 868 -434 882 -453 900 c 0
 -471 918 -487 931 -498 939 c 0
 -511 949 -525 954 -543 954 c 0
 -561 954 -577 942 -590 917 c 1
 -608 892 -619 866 -623 838 c 1
 -654 838 l 1
 -682 855 -703 884 -718 924 c 0
 -725 942 -729 960 -731 979 c 0
 -734 1004 -733 1025 -729 1043 c 0
 -724 1064 -717 1083 -707 1100 c 0
 -681 1138 -653 1164 -622 1178 c 0
 -592 1192 -553 1199 -502 1199 c 2
 -444 1197 l 1
 -346 1193 l 1
 -304 1193 -273 1199 -251 1213 c 0
 -231 1224 -216 1251 -207 1294 c 1
 -102 1294 l 1
 -115 1226 -143 1177 -185 1146 c 0
 -227 1115 -289 1100 -371 1100 c 0
 -404 1100 -436 1101 -466 1104 c 1
 -514 1104 -550 1098 -576 1085 c 0
 -599 1073 -614 1047 -621 1007 c 1
 -617 1017 -605 1028 -587 1039 c 0
 -570 1052 -543 1058 -507 1058 c 0
 -478 1058 -457 1052 -443 1041 c 1
 -416 1014 l 1
 -390 1058 -349 1081 -293 1081 c 0
 -255 1081 -227 1070 -210 1049 c 0
 -203 1038 -199 1024 -197 1007 c 0
 -195 994 -197 979 -199 963 c 0
 -207 925 -224 896 -250 877 c 0
 -280 854 -311 842 -345 842 c 0
-327 926 m 0
 -315 926 -305 930 -296 937 c 0
 -288 946 -283 955 -283 963 c 2
 -281 974 l 1
 -286 988 l 1
 -291 995 -300 998 -312 998 c 0
 -322 998 -331 994 -339 986 c 0
 -347 979 -352 971 -354 963 c 1
 -355 952 l 1
 -349 937 l 2
 -346 930 -339 926 -327 926 c 0
EndSplineSet
EndChar
StartChar: uni0E48.left
Encoding: 155 63251 124
OldEncoding: 63251
Width: 0
Flags: W
DStem: -194 1580 -71 1580 -254 1309 -131 1309
Fore
-254 1309 m 5
 -194 1580 l 5
 -71 1580 l 5
 -131 1309 l 5
 -254 1309 l 5
EndSplineSet
EndChar
StartChar: uni0E49.left
Encoding: 156 63252 125
OldEncoding: 63252
Width: 0
Flags: W
HStem: 1552 80<-316 -298>
Fore
-198 1503 m 4
 -208 1466 -219 1439 -231 1422 c 5
 -243 1404 -252 1394 -258 1391 c 6
 -224 1399 l 6
 -204 1405 -185 1413 -169 1422 c 4
 -150 1433 -131 1447 -115 1464 c 5
 -103 1480 -89 1503 -76 1533 c 4
 -66 1555 -58 1585 -52 1623 c 5
 58 1623 l 5
 24 1475 -42 1380 -142 1338 c 4
 -204 1312 -269 1299 -334 1299 c 4
 -345 1299 -363 1301 -390 1304 c 6
 -421 1309 l 5
 -414 1347 l 5
 -382 1364 l 6
 -371 1372 -364 1381 -360 1391 c 5
 -393 1402 l 6
 -414 1408 -428 1421 -435 1442 c 5
 -441 1452 -444 1462 -445 1473 c 4
 -446 1486 -445 1500 -440 1515 c 5
 -435 1545 -418 1573 -389 1598 c 4
 -362 1621 -333 1632 -298 1632 c 4
 -258 1632 -229 1619 -213 1594 c 5
 -203 1575 -197 1559 -195 1545 c 4
 -194 1531 -195 1517 -198 1503 c 4
-334 1473 m 4
 -308 1473 -291 1486 -285 1512 c 5
 -284 1526 l 5
 -290 1540 l 5
 -296 1548 -304 1552 -316 1552 c 4
 -328 1552 -339 1548 -348 1540 c 4
 -357 1532 -362 1523 -363 1512 c 6
 -364 1501 l 5
 -358 1484 l 5
 -351 1477 -344 1473 -334 1473 c 4
EndSplineSet
EndChar
StartChar: uni0E4A.left
Encoding: 157 63253 126
OldEncoding: 63253
Width: 0
Flags: W
HStem: 1286 69<-484 -468> 1518 81<-427 -404>
DStem: 12 1604 12 1604 -83 1575 13 1599
Fore
-484 1286 m 0
 -524 1288 -552 1306 -569 1339 c 0
 -577 1353 -582 1371 -584 1392 c 0
 -587 1407 -586 1428 -581 1454 c 1
 -563 1502 -541 1536 -518 1558 c 1
 -491 1586 -456 1599 -416 1599 c 0
 -399 1599 -385 1598 -373 1593 c 1
 -343 1573 l 1
 -333 1560 l 1
 -333 1560 l 1
 -327 1567 -315 1576 -298 1586 c 0
 -283 1595 -264 1599 -242 1599 c 0
 -202 1599 -176 1588 -162 1565 c 1
 -154 1555 -150 1542 -148 1526 c 0
 -147 1515 -149 1496 -155 1470 c 0
 -162 1430 -178 1396 -202 1368 c 1
 -171 1390 l 1
 -132 1421 l 1
 -109 1454 -94 1486 -87 1516 c 0
 -85 1537 -83 1557 -83 1575 c 1
 12 1604 l 1
 13 1599 l 2
 15 1580 14 1563 10 1544 c 0
 -6 1477 -35 1423 -75 1381 c 1
 -105 1348 -139 1326 -180 1315 c 0
 -217 1305 -265 1299 -323 1299 c 5
 -318 1317 l 1
 -316 1337 l 1
 -304 1346 -294 1357 -281 1370 c 0
 -269 1385 -257 1408 -248 1440 c 0
 -244 1459 -242 1474 -243 1487 c 2
 -244 1496 l 1
 -249 1509 -260 1516 -279 1516 c 0
 -293 1516 -306 1512 -318 1505 c 2
 -342 1487 l 1
 -342 1487 l 1
 -349 1496 l 1
 -374 1512 l 1
 -385 1516 -399 1518 -412 1518 c 0
 -448 1518 -470 1503 -478 1472 c 0
 -478 1473 -472 1475 -460 1478 c 1
 -431 1480 l 2
 -404 1480 -384 1471 -372 1452 c 0
 -367 1443 -364 1433 -362 1421 c 0
 -361 1405 -362 1390 -367 1375 c 0
 -370 1352 -384 1332 -406 1313 c 0
 -430 1295 -456 1286 -484 1286 c 0
-458 1412 m 0
 -479 1412 -492 1403 -498 1385 c 1
 -498 1373 l 1
 -497 1361 -487 1355 -470 1355 c 0
 -451 1355 -439 1365 -436 1385 c 1
 -434 1396 l 1
 -435 1407 -443 1412 -458 1412 c 0
EndSplineSet
EndChar
StartChar: uni0E4B.left
Encoding: 158 63254 127
OldEncoding: 63254
Width: 0
Flags: W
HStem: 1409 106<-323 -228 -90 4>
Fore
-228 1409 m 1
 -343 1409 l 1
 -322 1515 l 1
 -206 1515 l 1
 -185 1617 l 1
 -69 1617 l 1
 -90 1515 l 1
 25 1515 l 1
 4 1409 l 1
 -112 1409 l 1
 -134 1309 l 5
 -250 1309 l 1
 -228 1409 l 1
EndSplineSet
EndChar
StartChar: uni0E4C.left
Encoding: 159 63255 128
OldEncoding: 63255
Width: 0
Flags: W
HStem: 1237 79<-354 -342>
Fore
-126 1482 m 0
 -128 1482 -170 1479 -253 1471 c 1
 -303 1469 l 1
 -266 1469 -240 1459 -225 1438 c 0
 -216 1425 -211 1411 -210 1394 c 1
 -210 1363 l 1
 -218 1328 -235 1299 -261 1274 c 0
 -285 1250 -317 1237 -354 1237 c 4
 -399 1235 -433 1248 -455 1277 c 1
 -468 1289 -475 1306 -478 1328 c 0
 -479 1346 -478 1363 -474 1378 c 0
 -456 1457 -414 1509 -347 1535 c 0
 -313 1549 -273 1557 -229 1559 c 0
 -187 1561 -152 1567 -125 1575 c 0
 -103 1581 -88 1601 -80 1635 c 1
 17 1635 l 1
 9 1594 -7 1561 -32 1535 c 0
 -62 1504 -93 1486 -126 1482 c 0
-326 1392 m 0
 -352 1392 -367 1380 -372 1356 c 2
 -375 1337 l 1
 -373 1323 -363 1316 -344 1316 c 0
 -319 1316 -304 1329 -298 1356 c 1
 -297 1367 l 1
 -303 1381 l 1
 -309 1388 -316 1392 -326 1392 c 0
EndSplineSet
EndChar
StartChar: uni0E01
Encoding: 161 3585 130
OldEncoding: 3585
Width: 807
Flags: W
HStem: -1 21G<-6 130 473 607> 703 102<434 469>
DStem: 79 381 216 390 -6 -1 130 -1 590 533 725 544 473 -1 607 -1
Fore
188 551 m 1
 179 557 163 564 137 570 c 0
 107 579 79 585 51 586 c 1
 64 630 l 1
 100 665 l 1
 114 680 138 700 176 723 c 1
 225 749 268 769 305 781 c 0
 353 796 407 805 469 805 c 0
 532 805 584 795 625 776 c 0
 668 756 698 726 717 688 c 0
 725 674 730 656 732 633 c 0
 736 604 734 575 725 544 c 1
 607 -1 l 1
 473 -1 l 1
 590 533 l 1
 596 556 598 575 596 591 c 0
 593 618 582 641 563 661 c 0
 534 689 492 703 436 703 c 0
 371 703 301 682 227 642 c 1
 234 639 244 637 258 635 c 1
 311 619 l 1
 333 609 353 597 370 582 c 1
 357 517 l 1
 331 517 305 509 277 494 c 0
 248 477 228 442 216 390 c 1
 130 -1 l 1
 -6 -1 l 1
 79 381 l 1
 88 427 101 462 119 485 c 1
 134 510 157 532 188 551 c 1
EndSplineSet
EndChar
StartChar: uni0E02
Encoding: 162 3586 131
OldEncoding: 3586
Width: 781
Flags: W
HStem: -1 120<92 410> 445 95<136 159> 661 145<186 297> 765 20G<616 753>
DStem: 239 354 377 359 186 119 323 119 616 785 753 785 487 186 613 149
Fore
390 588 m 1
 394 606 396 622 394 637 c 0
 392 654 388 666 381 674 c 1
 363 691 343 700 322 703 c 1
 333 667 l 1
 337 656 l 1
 339 642 336 624 330 603 c 0
 319 559 296 521 262 489 c 1
 225 460 183 445 136 445 c 0
 89 445 54 460 32 491 c 0
 20 509 12 529 10 551 c 0
 8 571 9 588 14 603 c 0
 22 645 41 682 71 714 c 1
 105 745 140 768 178 783 c 0
 217 799 257 806 297 806 c 0
 373 806 431 785 471 743 c 0
 493 719 506 690 510 656 c 0
 512 636 511 616 507 597 c 0
 500 564 490 541 479 526 c 1
 467 503 454 484 438 471 c 1
 398 420 l 1
 391 408 384 388 377 359 c 2
 323 119 l 1
 408 119 l 2
 436 119 455 122 465 131 c 1
 475 141 482 160 487 186 c 2
 616 785 l 1
 753 785 l 1
 613 149 l 1
 600 88 577 48 544 29 c 1
 513 9 459 -1 382 -1 c 2
 68 -1 l 1
 93 119 l 1
 186 119 l 1
 239 354 l 2
 244 380 253 403 263 425 c 1
 283 450 301 469 315 482 c 1
 361 531 l 1
 390 588 l 1
159 540 m 0
 178 540 195 546 208 559 c 0
 219 570 228 583 233 600 c 1
 233 623 l 1
 235 629 232 636 226 644 c 0
 219 655 206 661 186 661 c 0
 169 661 152 654 136 641 c 0
 124 630 116 616 113 600 c 1
 113 579 l 1
 120 559 l 1
 128 546 141 540 159 540 c 0
EndSplineSet
EndChar
StartChar: uni0E03
Encoding: 163 3587 132
OldEncoding: 3587
Width: 866
Flags: W
HStem: -2 120<175 518> 341 93<139 159> 554 92<181 206> 765 20G<703 836>
DStem: 353 484 483 473 271 118 408 118 703 785 836 785 572 186 705 186
Fore
139 341 m 0
 77 341 36 360 17 398 c 1
 6 417 -1 438 -4 462 c 0
 -7 490 -4 518 5 544 c 1
 20 607 l 1
 34 645 58 681 95 716 c 0
 125 745 158 768 193 785 c 0
 227 801 255 809 277 809 c 1
 353 760 l 1
 465 809 l 1
 503 802 538 783 568 753 c 1
 587 731 598 707 600 683 c 1
 599 648 l 1
 593 620 581 599 567 584 c 2
 516 537 l 1
 502 522 491 501 483 473 c 1
 408 118 l 1
 496 118 l 2
 525 118 542 122 549 131 c 0
 557 139 565 157 572 186 c 1
 703 785 l 1
 836 785 l 1
 705 186 l 1
 692 120 671 72 643 42 c 1
 617 13 568 -2 497 -2 c 2
 151 -2 l 1
 176 118 l 1
 271 118 l 1
 353 484 l 1
 366 550 400 595 454 621 c 1
 474 632 484 643 485 654 c 2
 487 663 l 1
 486 676 472 690 448 705 c 1
 331 654 l 1
 233 705 l 1
 209 701 188 690 168 672 c 0
 154 658 143 644 137 630 c 1
 140 634 147 637 158 639 c 1
 167 644 183 646 206 646 c 0
 236 646 262 639 283 626 c 0
 301 614 314 597 323 575 c 1
 327 549 l 1
 329 533 329 517 325 500 c 0
 316 455 295 416 262 385 c 1
 227 355 185 341 139 341 c 0
157 434 m 0
 173 434 190 439 206 452 c 1
 218 464 226 478 229 493 c 1
 231 517 l 1
 225 537 l 1
 216 549 203 554 183 554 c 0
 167 554 151 548 137 535 c 0
 124 525 115 511 109 493 c 1
 109 478 l 1
 110 468 113 460 118 452 c 0
 127 439 140 434 157 434 c 0
EndSplineSet
EndChar
StartChar: uni0E04
Encoding: 164 3588 133
OldEncoding: 3588
Width: 797
Flags: W
HStem: -2 21G<44 181 461 598> 512 95<359 378> 705 106<412 443>
DStem: 74 135 251 308 44 -2 181 -2 577 526 713 533 461 -2 598 -2
Fore
309 294 m 1
 274 299 l 1
 258 303 251 306 251 308 c 1
 251 308 l 1
 181 -2 l 1
 44 -2 l 1
 74 135 l 2
 81 162 82 188 80 213 c 2
 78 230 l 1
 75 245 66 277 52 325 c 1
 39 359 32 391 29 422 c 2
 27 433 l 2
 25 461 26 491 33 524 c 0
 46 582 74 635 118 681 c 0
 163 725 212 758 268 778 c 0
 327 800 386 811 443 811 c 0
 503 811 555 801 599 780 c 0
 647 759 681 727 701 685 c 0
 711 663 717 641 719 621 c 0
 721 598 719 568 713 533 c 1
 598 -2 l 1
 461 -2 l 1
 577 526 l 2
 582 549 583 569 581 586 c 0
 578 614 568 638 549 658 c 1
 514 689 468 705 412 705 c 0
 353 705 298 688 247 656 c 0
 193 622 159 576 146 519 c 0
 141 488 140 460 142 433 c 2
 143 427 l 2
 146 402 148 389 149 389 c 2
 151 392 l 1
 161 432 183 478 219 528 c 0
 254 579 307 605 378 607 c 0
 426 607 462 593 483 563 c 0
 494 547 501 528 503 508 c 0
 505 487 504 468 499 451 c 0
 490 411 470 375 437 343 c 1
 399 313 357 297 309 294 c 1
332 389 m 0
 350 389 366 395 381 407 c 1
 391 420 399 435 405 451 c 1
 407 475 l 1
 400 495 l 1
 392 507 378 512 359 512 c 0
 341 512 326 506 312 493 c 1
 299 483 290 469 284 451 c 1
 284 431 l 1
 291 407 l 1
 299 395 313 389 332 389 c 0
EndSplineSet
EndChar
StartChar: uni0E05
Encoding: 165 3589 134
OldEncoding: 3589
Width: 797
Flags: W
HStem: -1 21G<46 183 463 600> 513 95<361 380>
DStem: 76 136 251 309 46 -1 183 -1 578 529 715 533 463 -1 600 -1
Fore
331 800 m 1
 442 749 l 1
 581 800 l 1
 621 789 654 767 680 735 c 1
 701 707 713 674 720 635 c 0
 724 603 721 569 715 533 c 1
 600 -1 l 1
 463 -1 l 1
 578 529 l 1
 588 567 592 598 590 622 c 0
 587 643 573 663 546 681 c 1
 417 637 l 1
 310 688 l 1
 264 671 230 649 206 622 c 1
 176 591 157 557 148 520 c 0
 143 489 142 460 144 434 c 2
 145 427 l 2
 148 402 150 390 151 390 c 2
 153 392 l 1
 162 433 185 478 220 529 c 0
 256 579 309 606 380 608 c 0
 428 608 464 593 485 564 c 0
 496 547 502 529 505 509 c 0
 507 488 506 469 501 452 c 0
 493 411 472 375 439 344 c 1
 401 313 359 297 311 295 c 1
 278 299 l 1
 259 304 251 307 251 309 c 1
 251 309 l 1
 183 -1 l 1
 46 -1 l 1
 76 136 l 2
 83 163 84 189 82 214 c 2
 80 231 l 1
 77 246 68 277 54 325 c 1
 41 359 34 392 31 423 c 2
 29 434 l 2
 26 462 28 492 35 524 c 0
 70 660 168 752 331 800 c 1
334 390 m 0
 352 390 368 396 383 408 c 1
 393 421 401 435 406 452 c 1
 409 476 l 1
 402 496 l 1
 394 507 380 513 361 513 c 0
 343 513 328 507 314 494 c 1
 301 484 292 470 285 452 c 1
 286 432 l 1
 293 408 l 1
 301 396 315 390 334 390 c 0
EndSplineSet
EndChar
StartChar: uni0E06
Encoding: 166 3590 135
OldEncoding: 3590
Width: 992
Flags: W
HStem: -16 104<230 243> 0 21G<661 798> 335 90<140 158> 548 90<181 207> 766 20G<836 969>
DStem: 305 256 438 252 273 120 407 120 836 786 969 786 713 220 798 0
Fore
485 465 m 2
 464 364 l 1
 498 358 532 349 566 335 c 0
 588 325 619 306 658 278 c 1
 686 256 704 237 713 220 c 1
 836 786 l 1
 969 786 l 1
 798 0 l 1
 661 0 l 1
 661 16 l 1
 659 34 654 56 646 79 c 0
 633 117 609 155 574 192 c 0
 542 225 496 245 438 252 c 1
 407 120 l 1
 398 79 378 47 349 22 c 0
 315 -3 278 -16 235 -16 c 0
 180 -16 142 2 120 37 c 0
 108 56 100 78 97 104 c 0
 95 120 97 139 103 161 c 0
 113 212 139 257 181 296 c 0
 221 335 270 358 329 364 c 1
 354 479 l 1
 368 544 401 590 455 616 c 1
 476 622 486 632 487 645 c 1
 486 655 l 2
 485 670 472 685 449 698 c 1
 332 647 l 1
 234 698 l 1
 207 694 184 682 165 664 c 1
 124 616 l 1
 133 621 143 625 155 629 c 0
 165 632 182 635 207 638 c 1
 253 638 285 624 306 596 c 0
 319 581 326 562 328 539 c 0
 330 525 330 509 326 493 c 0
 319 451 295 414 258 382 c 0
 221 351 182 335 140 335 c 0
 78 338 39 356 19 391 c 0
 7 410 -0 431 -3 453 c 0
 -5 474 -3 501 4 534 c 1
 22 599 l 1
 44 657 83 706 139 744 c 0
 195 782 241 801 276 801 c 1
 356 755 l 1
 464 801 l 1
 500 797 535 780 568 748 c 1
 588 725 598 702 601 678 c 1
 600 643 l 1
 594 622 587 606 581 594 c 1
 543 556 l 2
 518 530 506 517 505 516 c 0
 496 503 490 486 485 465 c 2
210 108 m 1
 214 95 224 88 241 88 c 0
 258 88 269 99 273 120 c 2
 305 256 l 1
 282 254 261 244 241 225 c 1
 223 201 211 179 207 159 c 1
 206 128 l 1
 210 108 l 1
154 425 m 0
 171 425 189 432 205 444 c 1
 217 455 225 470 228 488 c 1
 230 512 l 1
 223 530 l 1
 214 542 200 548 181 548 c 0
 166 548 150 542 133 530 c 0
 122 520 114 506 108 488 c 1
 108 470 l 1
 109 459 112 451 117 444 c 1
 123 432 135 425 154 425 c 0
EndSplineSet
EndChar
StartChar: uni0E07
Encoding: 167 3591 136
OldEncoding: 3591
Width: 634
Flags: W
HStem: -22 115<292 313> 491 92<384 408> 493 90<403 412> 706 95<432 454>
DStem: 4 493 127 563 167 53 179 431 4 493 179 431 167 53 249 236 412 493 582 653 334 137 464 113
Fore
454 801 m 0
 500 801 535 787 559 760 c 1
 574 738 584 717 586 699 c 0
 587 683 586 668 582 653 c 1
 464 113 l 1
 455 72 434 39 400 14 c 0
 369 -10 333 -22 292 -22 c 0
 227 -22 186 3 167 53 c 2
 4 493 l 1
 127 563 l 1
 179 431 l 1
 249 236 l 1
 286 126 l 1
 295 104 303 93 311 93 c 0
 320 93 328 108 334 137 c 1
 412 493 l 1
 404 493 l 1
 384 491 l 1
 336 491 302 506 283 537 c 0
 270 555 263 575 260 597 c 0
 258 615 260 631 264 645 c 1
 271 688 293 724 329 755 c 0
 364 786 406 801 454 801 c 0
408 583 m 0
 424 583 440 589 457 601 c 1
 468 613 476 628 481 645 c 1
 481 667 l 1
 474 690 l 1
 467 701 454 706 434 706 c 0
 417 706 401 700 388 687 c 1
 373 677 364 663 361 645 c 1
 359 625 l 1
 360 617 363 609 369 601 c 0
 377 589 390 583 408 583 c 0
EndSplineSet
EndChar
StartChar: uni0E08
Encoding: 168 3592 137
OldEncoding: 3592
Width: 748
Flags: W
HStem: 0 97<400 420> 245 95<187 209> 460 95<234 257> 701 110<387 418>
DStem: 533 546 668 550 444 139 585 166
Fore
585 166 m 2
 569 97 547 52 515 32 c 0
 481 11 443 0 400 0 c 0
 364 0 337 9 317 27 c 0
 296 44 284 69 280 102 c 2
 279 111 l 1
 276 210 l 1
 273 261 l 1
 272 270 l 1
 269 267 260 262 246 254 c 0
 232 248 212 245 187 245 c 0
 136 247 101 263 82 292 c 1
 70 307 63 326 60 349 c 0
 58 367 60 384 64 400 c 0
 75 443 98 479 132 508 c 0
 166 539 208 555 257 555 c 0
 335 555 379 521 389 452 c 1
 391 440 l 1
 456 -246 463 -350 413 127 c 1
 412 108 l 1
 412 101 416 97 420 97 c 0
 429 97 437 111 444 139 c 1
 533 546 l 2
 538 571 540 591 538 606 c 0
 536 630 526 650 508 667 c 1
 479 689 439 701 389 701 c 0
 294 701 203 658 116 572 c 1
 41 634 l 1
 139 751 265 811 418 811 c 0
 507 811 576 788 626 742 c 1
 654 715 670 680 674 636 c 0
 677 612 675 583 668 550 c 1
 585 166 l 2
207 340 m 0
 228 340 245 345 257 356 c 0
 269 366 277 381 280 400 c 1
 281 424 l 1
 277 444 l 1
 270 455 256 460 234 460 c 0
 217 460 200 454 185 442 c 0
 174 431 164 417 159 400 c 1
 159 382 l 1
 160 373 163 365 167 358 c 0
 178 346 190 340 207 340 c 0
EndSplineSet
EndChar
StartChar: uni0E09
Encoding: 169 3593 138
OldEncoding: 3593
Width: 872
Flags: W
HStem: -16 99<594 644> 0 318<125 208> 439 95<155 176> 696 109<439 473>
DStem: 529 258 662 258 495 110 629 113 589 539 723 541 550 358 682 358
Fore
176 534 m 0
 220 534 253 521 277 495 c 0
 291 478 299 459 301 437 c 0
 302 426 302 412 298 395 c 1
 258 207 l 1
 291 244 336 276 392 302 c 0
 441 327 494 346 550 358 c 1
 589 539 l 2
 595 563 597 582 595 596 c 0
 593 620 584 640 569 657 c 1
 541 685 498 698 439 696 c 0
 399 696 355 683 308 657 c 0
 264 632 222 601 184 565 c 1
 106 627 l 1
 150 676 205 720 271 757 c 1
 338 789 405 805 473 805 c 0
 568 805 640 782 687 735 c 1
 712 704 727 669 731 631 c 0
 734 601 731 571 723 541 c 1
 682 358 l 1
 729 349 763 326 780 289 c 0
 787 275 792 257 794 236 c 0
 797 212 796 185 790 154 c 0
 779 104 754 63 717 32 c 1
 681 0 640 -16 594 -16 c 0
 559 -16 532 -6 515 13 c 0
 501 27 493 42 491 57 c 0
 489 72 492 90 495 110 c 2
 529 258 l 1
 455 241 386 207 323 157 c 1
 267 108 228 56 208 0 c 1
 77 0 l 1
 126 227 l 1
 117 224 l 1
 107 222 l 1
 57 224 24 241 5 271 c 1
 -9 287 -16 305 -18 326 c 0
 -20 340 -19 357 -14 377 c 0
 -7 416 14 452 51 485 c 0
 88 518 129 534 176 534 c 0
701 166 m 0
 703 180 704 193 702 205 c 1
 696 229 l 1
 689 244 678 254 662 258 c 1
 629 113 l 1
 628 99 l 1
 629 88 634 83 644 83 c 1
 653 86 660 91 666 97 c 0
 677 109 683 120 688 132 c 0
 696 147 699 158 701 166 c 0
130 318 m 0
 148 318 164 323 179 335 c 0
 191 346 198 361 201 379 c 1
 203 402 l 1
 199 423 l 1
 191 434 177 439 155 439 c 0
 139 439 122 433 109 421 c 0
 97 410 88 396 83 379 c 1
 81 358 l 1
 82 351 85 344 90 337 c 0
 98 324 112 318 130 318 c 0
EndSplineSet
EndChar
StartChar: uni0E0A
Encoding: 170 3594 139
OldEncoding: 3594
Width: 790
Flags: W
HStem: -4 120<101 423> 440 97<151 176> 572 97<505 513> 779 20G<285.5 330>
DStem: 252 356 383 343 199 116 334 116 548 449 686 461 493 183 617 146
Fore
397 588 m 0
 401 605 403 622 401 637 c 0
 400 651 395 663 390 672 c 0
 375 691 357 702 336 704 c 1
 349 667 l 1
 350 654 l 2
 352 635 351 618 347 603 c 0
 338 555 315 516 280 486 c 0
 242 455 199 440 151 440 c 0
 105 440 69 455 46 486 c 0
 34 504 26 524 24 546 c 0
 21 567 23 585 27 603 c 0
 35 640 54 673 86 704 c 0
 116 735 150 757 190 773 c 0
 234 791 271 799 300 799 c 0
 360 799 408 787 448 762 c 0
 488 736 509 706 513 669 c 1
 533 669 564 681 610 704 c 1
 653 724 708 773 772 850 c 1
 853 787 l 1
 819 733 781 694 740 669 c 0
 698 644 668 628 648 621 c 1
 658 616 671 602 685 579 c 0
 690 572 693 562 694 548 c 0
 697 527 694 498 686 461 c 2
 617 146 l 1
 608 105 596 73 581 49 c 1
 565 27 547 13 524 7 c 0
 497 0 461 -4 415 -4 c 2
 74 -4 l 1
 102 116 l 1
 199 116 l 1
 252 356 l 1
 260 385 268 406 276 420 c 1
 321 475 l 1
 342 492 359 509 369 524 c 0
 379 539 389 560 397 588 c 0
176 537 m 0
 195 537 211 544 224 556 c 0
 236 566 244 580 250 597 c 1
 250 621 l 1
 244 641 l 1
 236 652 222 658 202 658 c 0
 184 658 168 652 155 639 c 1
 141 628 132 614 127 597 c 1
 126 579 l 1
 127 571 131 563 136 556 c 0
 146 544 159 537 176 537 c 0
505 572 m 1
 495 538 487 515 479 505 c 0
 470 492 458 478 442 464 c 0
 432 452 421 436 408 415 c 0
 396 395 388 371 383 343 c 1
 334 116 l 1
 409 116 l 2
 437 116 457 120 471 128 c 1
 479 137 487 156 493 183 c 2
 548 449 l 2
 554 477 557 499 555 517 c 0
 553 530 550 539 545 546 c 0
 530 563 516 572 505 572 c 1
EndSplineSet
EndChar
StartChar: uni0E0B
Encoding: 171 3595 140
OldEncoding: 3595
Width: 839
Flags: W
HStem: -4 120<149 470> 338 93<117 137> 552 92<160 185>
DStem: 303 369 432 343 248 116 382 116 599 449 739 461 541 183 668 146
Fore
442 806 m 1
 472 804 502 788 531 760 c 0
 557 734 571 709 574 685 c 1
 574 669 l 1
 594 672 625 686 666 709 c 0
 710 731 761 779 820 850 c 1
 906 787 l 1
 872 733 834 694 793 669 c 0
 751 644 721 628 701 621 c 1
 711 617 724 603 738 579 c 1
 743 548 l 1
 747 518 745 489 739 461 c 2
 668 146 l 1
 652 81 632 40 606 24 c 1
 580 5 533 -4 465 -4 c 2
 125 -4 l 1
 150 116 l 1
 248 116 l 1
 303 369 l 1
 312 399 320 420 328 431 c 1
 376 480 l 1
 397 497 413 513 424 528 c 0
 436 544 446 564 452 588 c 0
 458 614 460 635 459 651 c 2
 458 658 l 1
 454 673 443 688 424 702 c 1
 309 651 l 1
 211 702 l 1
 184 698 163 687 148 669 c 1
 132 654 121 640 115 628 c 1
 123 633 131 636 137 637 c 1
 146 641 162 644 185 644 c 0
 214 644 239 637 261 623 c 0
 279 613 292 596 304 572 c 1
 309 546 l 1
 310 530 310 514 307 498 c 1
 293 450 271 412 240 385 c 0
 203 354 162 338 117 338 c 0
 59 338 18 357 -7 396 c 1
 -17 420 -23 442 -25 461 c 0
 -28 486 -26 512 -20 542 c 1
 -1 605 l 2
 12 644 35 680 68 711 c 1
 109 745 143 769 173 782 c 0
 205 798 232 806 253 806 c 1
 332 757 l 1
 400 787 l 1
 442 806 l 1
553 572 m 1
 544 545 535 525 524 512 c 1
 515 495 504 480 491 468 c 0
 478 455 467 438 456 417 c 0
 445 393 436 368 432 343 c 1
 382 116 l 1
 460 116 l 2
 489 116 508 120 519 128 c 0
 528 137 535 156 541 183 c 2
 599 449 l 2
 605 477 608 499 606 517 c 0
 604 530 600 540 594 546 c 0
 578 563 565 572 553 572 c 1
133 431 m 0
 153 431 169 437 182 449 c 0
 194 462 203 476 208 491 c 1
 210 515 l 1
 209 521 207 528 201 535 c 0
 194 546 179 552 160 552 c 0
 143 552 127 545 113 533 c 0
 98 521 90 507 87 491 c 1
 86 475 l 1
 94 449 l 1
 103 437 116 431 133 431 c 0
EndSplineSet
EndChar
StartChar: uni0E0C
Encoding: 172 3596 141
OldEncoding: 3596
Width: 1038
Flags: W
HStem: -14 80<416 429> -14 85<120 143> -1 21G<707 841> 196 86<169 182> 710 95<396 451> 766 20G<878 1012>
DStem: 536 592 664 571 470 293 603 286 878 786 1012 786 748 185 841 -1
Fore
560 92 m 1
 555 65 539 39 513 15 c 1
 488 -4 456 -14 416 -14 c 0
 377 -14 351 0 336 28 c 0
 330 40 326 55 325 71 c 0
 323 88 325 109 330 136 c 0
 336 174 352 208 377 238 c 0
 400 264 431 283 470 293 c 1
 536 592 l 1
 537 627 l 1
 535 649 526 666 511 677 c 0
 485 697 446 708 396 710 c 0
 371 710 342 705 305 693 c 0
 264 683 233 667 208 645 c 1
 229 642 250 636 273 627 c 0
 304 616 330 601 352 583 c 1
 339 518 l 1
 313 518 286 510 259 494 c 0
 230 478 208 443 198 390 c 2
 176 280 l 1
 179 282 l 1
 186 282 l 2
 219 282 243 275 260 260 c 1
 281 247 294 228 298 205 c 2
 303 182 l 1
 305 166 304 150 302 134 c 0
 298 110 287 86 267 62 c 1
 252 39 232 21 206 6 c 0
 180 -7 151 -14 120 -14 c 0
 72 -14 39 1 21 30 c 0
 10 46 4 63 2 83 c 0
 0 100 2 117 6 136 c 2
 61 381 l 1
 70 428 83 463 101 485 c 1
 116 511 139 533 170 552 c 1
 161 558 145 564 119 571 c 0
 92 580 64 585 33 587 c 1
 46 631 l 1
 64 657 110 693 185 740 c 0
 254 783 342 805 451 805 c 0
 502 805 543 797 574 781 c 0
 606 766 629 746 642 724 c 0
 657 700 666 677 668 653 c 2
 669 647 l 1
 670 619 668 594 664 571 c 1
 603 286 l 1
 628 280 652 268 674 251 c 0
 703 230 719 217 724 212 c 0
 737 201 744 192 748 185 c 1
 878 786 l 1
 1012 786 l 1
 841 -1 l 1
 707 -1 l 1
 702 22 690 56 671 101 c 1
 649 145 619 172 581 182 c 1
 560 92 l 1
143 71 m 0
 155 71 166 74 177 81 c 0
 188 87 197 94 205 103 c 0
 210 110 214 120 218 134 c 1
 217 157 l 1
 211 180 l 1
 204 191 190 196 169 196 c 0
 150 196 133 190 116 178 c 0
 103 167 95 152 92 134 c 1
 89 115 l 1
 90 106 93 99 98 92 c 0
 107 78 121 71 143 71 c 0
444 79 m 1
 472 205 l 1
 454 203 438 195 427 182 c 0
 413 168 405 150 402 127 c 1
 400 106 l 1
 406 85 l 1
 409 73 417 66 427 66 c 0
 435 66 441 70 444 79 c 1
EndSplineSet
EndChar
StartChar: uni0E0D
Encoding: 173 3597 142
OldEncoding: 3597
Width: 1031
Flags: W
HStem: -99 85<474 495> -43 20G<746 880> 7 85<171 192> 21 120<405 743> 217 86<221 235> 731 95<450 504>
DStem: 589 613 719 592 483 141 618 141 932 807 1066 807 801 208 924 171
Fore
1066 807 m 1
 924 171 l 1
 915 124 902 92 886 74 c 0
 867 53 845 39 820 32 c 0
 786 24 747 21 702 21 c 2
 383 21 l 1
 406 141 l 1
 483 141 l 1
 589 613 l 1
 590 648 l 1
 587 671 578 688 562 699 c 0
 535 718 497 729 450 731 c 0
 426 731 396 726 357 714 c 0
 313 703 282 687 262 666 c 1
 282 663 304 657 326 648 c 0
 357 637 383 623 405 604 c 1
 390 539 l 1
 363 539 336 531 310 516 c 0
 284 500 265 466 252 412 c 2
 226 301 l 1
 230 303 l 1
 237 303 l 2
 268 303 294 296 314 282 c 0
 332 267 345 249 351 226 c 1
 356 204 l 1
 357 187 357 171 355 155 c 0
 348 131 337 107 320 83 c 0
 303 59 282 40 257 27 c 0
 230 14 201 7 171 7 c 0
 126 7 94 22 72 51 c 1
 62 68 57 86 55 104 c 0
 53 121 54 139 58 157 c 2
 114 403 l 1
 122 447 135 482 154 507 c 1
 169 533 192 555 224 573 c 1
 211 580 193 586 173 592 c 0
 141 601 112 607 87 608 c 1
 96 652 l 1
 117 676 163 713 235 761 c 0
 304 804 394 826 504 826 c 0
 557 826 598 818 627 803 c 0
 657 788 681 768 698 745 c 1
 711 724 718 700 721 674 c 2
 722 668 l 1
 722 633 721 607 719 592 c 1
 618 141 l 1
 729 141 l 2
 753 141 770 145 781 153 c 1
 789 162 795 180 801 208 c 1
 932 807 l 1
 1066 807 l 1
566 -246 m 1
 598 -246 630 -232 665 -204 c 0
 698 -178 724 -117 746 -23 c 1
 880 -23 l 1
 861 -108 831 -176 791 -227 c 1
 747 -278 703 -313 656 -331 c 0
 610 -351 560 -361 508 -361 c 0
 471 -361 438 -356 409 -345 c 1
 359 -324 330 -300 319 -273 c 0
 314 -262 310 -247 308 -229 c 0
 306 -213 307 -190 312 -162 c 0
 321 -124 342 -89 377 -58 c 0
 410 -29 449 -14 495 -14 c 0
 545 -14 579 -29 595 -58 c 0
 604 -76 610 -93 611 -109 c 0
 613 -127 612 -146 608 -165 c 0
 601 -199 587 -226 566 -246 c 1
448 -224 m 0
 466 -224 483 -219 500 -207 c 0
 512 -197 520 -182 527 -162 c 1
 529 -141 l 1
 528 -132 524 -124 517 -118 c 1
 509 -106 494 -99 476 -99 c 0
 459 -99 442 -106 424 -118 c 0
 412 -129 403 -144 400 -162 c 2
 396 -181 l 1
 397 -190 401 -198 407 -207 c 0
 416 -219 430 -224 448 -224 c 0
192 92 m 0
 205 92 218 95 229 102 c 0
 243 111 251 119 256 125 c 0
 264 138 269 148 272 155 c 1
 271 178 l 1
 265 201 l 1
 256 212 241 217 221 217 c 0
 202 217 186 211 170 199 c 0
 153 186 145 171 144 155 c 1
 142 136 l 1
 148 113 l 1
 158 99 172 92 192 92 c 0
EndSplineSet
EndChar
StartChar: uni0E0E
Encoding: 174 3598 143
OldEncoding: 3598
Width: 876
Flags: W
HStem: -357 114<126 161> -128 113<205 232> 226 88<150 171> 724 102<564 598>
DStem: 720 555 858 566 559 -174 654 -357
Fore
451 -88 m 1
 482 -108 506 -123 522 -134 c 1
 559 -174 l 1
 720 555 l 1
 725 577 727 597 726 612 c 0
 723 638 712 661 692 683 c 1
 663 710 622 724 566 724 c 0
 536 724 501 719 463 707 c 0
 422 698 386 683 356 663 c 1
 377 660 397 655 420 648 c 0
 445 642 471 627 500 603 c 1
 484 539 l 1
 458 539 432 531 407 515 c 0
 378 499 356 464 346 411 c 2
 292 162 l 1
 279 114 258 77 227 51 c 1
 197 22 155 7 103 5 c 1
 55 7 21 22 -0 51 c 0
 -13 66 -20 84 -22 106 c 0
 -24 123 -23 140 -19 157 c 0
 -5 203 17 240 49 268 c 1
 81 299 122 314 171 314 c 2
 183 314 l 1
 187 312 l 1
 208 402 l 1
 219 449 232 484 248 506 c 0
 268 534 292 556 320 573 c 1
 308 580 290 586 267 592 c 0
 237 601 208 606 181 608 c 1
 191 652 l 1
 229 687 l 2
 254 711 280 730 306 745 c 1
 339 767 382 786 435 802 c 0
 483 818 537 826 598 826 c 0
 656 826 708 816 755 796 c 0
 800 774 830 745 847 707 c 0
 855 692 860 673 862 652 c 0
 865 628 863 599 858 566 c 1
 654 -357 l 1
 520 -357 l 1
 497 -311 474 -277 451 -255 c 1
 390 -202 l 1
 362 -245 327 -281 283 -311 c 1
 229 -344 177 -359 126 -357 c 0
 82 -357 47 -340 21 -306 c 0
 7 -286 -1 -265 -3 -243 c 0
 -5 -229 -3 -209 1 -185 c 0
 11 -135 39 -94 84 -63 c 0
 124 -33 174 -17 232 -15 c 0
 266 -15 306 -23 353 -40 c 1
 371 -2 l 1
 401 64 l 1
 508 38 l 1
 499 11 489 -13 478 -33 c 1
 451 -87 l 1
 451 -88 l 1
122 92 m 0
 143 92 161 99 176 113 c 0
 191 127 200 142 206 159 c 1
 208 182 l 1
 207 193 204 201 198 208 c 0
 190 220 174 226 152 226 c 0
 131 226 115 220 101 208 c 0
 87 195 77 179 71 159 c 1
 71 138 l 1
 79 113 l 1
 88 99 102 92 122 92 c 0
206 -234 m 1
 234 -222 255 -207 268 -190 c 1
 283 -173 293 -160 296 -149 c 1
 270 -135 240 -128 205 -128 c 0
 177 -128 156 -134 141 -146 c 0
 124 -157 112 -172 106 -192 c 1
 108 -214 l 2
 110 -233 128 -243 161 -243 c 0
 182 -243 196 -240 206 -234 c 1
EndSplineSet
EndChar
StartChar: uni0E0F
Encoding: 175 3599 144
OldEncoding: 3599
Width: 877
Flags: W
HStem: -359 99<92 116> -158 97<148 172> 226 88<142 172> 724 102<565 599>
DStem: 721 555 859 566 559 -178 655 -357
Fore
497 -97 m 1
 559 -178 l 1
 721 555 l 1
 726 578 728 597 727 613 c 0
 724 638 712 662 693 683 c 1
 664 711 623 724 567 724 c 0
 537 724 502 719 464 708 c 0
 423 698 387 683 357 663 c 1
 378 660 398 655 421 648 c 0
 446 642 472 627 501 604 c 1
 485 539 l 1
 459 539 433 531 408 515 c 0
 379 499 357 464 347 411 c 2
 293 162 l 1
 280 114 259 77 228 51 c 1
 198 22 156 7 104 5 c 1
 56 7 22 22 1 51 c 0
 -12 66 -19 85 -21 106 c 0
 -23 123 -22 140 -18 157 c 0
 -4 203 18 240 50 268 c 1
 82 299 123 314 172 314 c 2
 184 314 l 1
 188 312 l 1
 209 402 l 1
 220 449 233 484 249 506 c 0
 269 534 293 556 321 573 c 1
 309 580 291 586 268 592 c 0
 238 601 209 607 182 608 c 1
 192 652 l 1
 230 687 l 2
 255 711 281 731 307 745 c 1
 340 767 383 786 436 802 c 0
 483 818 538 826 599 826 c 0
 657 826 709 816 756 796 c 0
 801 775 831 745 848 708 c 0
 856 692 861 673 863 652 c 0
 866 628 864 599 859 566 c 1
 655 -357 l 1
 527 -357 l 1
 458 -243 l 1
 326 -357 l 1
 322 -337 314 -315 301 -291 c 0
 294 -279 286 -267 276 -253 c 1
 264 -271 245 -293 215 -317 c 0
 183 -345 143 -359 92 -359 c 0
 51 -359 21 -344 2 -315 c 1
 -8 -300 -15 -282 -18 -260 c 0
 -20 -242 -18 -219 -13 -192 c 1
 -1 -151 23 -118 60 -95 c 0
 95 -72 131 -61 172 -61 c 0
 211 -61 245 -71 276 -93 c 1
 305 -30 l 2
 321 1 333 31 342 60 c 1
 436 43 l 1
 396 -60 366 -127 345 -158 c 1
 357 -174 l 2
 363 -182 368 -191 371 -200 c 1
 450 -137 l 2
 482 -112 497 -99 497 -97 c 1
123 92 m 1
 147 95 163 103 174 115 c 0
 188 127 196 142 200 159 c 1
 202 184 l 1
 201 193 198 201 193 208 c 0
 184 220 167 226 142 226 c 1
 122 224 106 217 91 206 c 0
 77 194 68 179 65 162 c 1
 63 138 l 1
 65 127 68 119 75 113 c 1
 85 99 100 92 123 92 c 1
151 -253 m 0
 163 -248 178 -235 194 -216 c 1
 211 -190 l 1
 211 -190 l 1
 192 -169 171 -158 148 -158 c 0
 119 -158 97 -170 84 -194 c 1
 81 -208 80 -219 81 -227 c 0
 83 -249 94 -260 116 -260 c 0
 128 -260 140 -257 151 -253 c 0
EndSplineSet
EndChar
StartChar: uni0E10
Encoding: 176 3600 145
OldEncoding: 3600
Width: 665
Flags: W
HStem: -418 82<-65 -38> -272 78<341 360> -252 79<-18 2> -89 80<379 398> 214 95<218 241> 429 97<267 287> 669 107<661 684> 730 99<409 434>
Fore
381 24 m 1
 378 99 l 1
 366 174 l 1
 357 235 351 265 347 265 c 1
 343 259 328 249 304 232 c 1
 280 220 251 214 218 214 c 0
 168 214 133 229 114 260 c 0
 103 276 96 295 94 316 c 0
 92 335 93 353 97 369 c 1
 105 411 126 447 162 477 c 0
 196 507 237 524 287 526 c 0
 331 526 364 518 386 501 c 1
 406 483 419 453 427 411 c 1
 443 342 l 1
 452 298 l 1
 473 406 l 1
 482 456 485 487 484 496 c 0
 482 514 475 528 462 536 c 0
 455 540 430 548 389 561 c 0
 322 580 271 593 237 598 c 2
 118 616 l 1
 129 667 l 1
 156 697 186 725 219 751 c 0
 255 778 289 797 321 808 c 0
 356 823 394 829 434 829 c 0
 482 829 530 821 577 804 c 1
 635 786 670 776 684 776 c 0
 708 776 739 783 774 797 c 1
 774 795 l 1
 776 757 l 1
 776 691 l 1
 727 676 689 669 661 669 c 1
 607 674 l 1
 537 700 l 1
 465 722 l 2
 449 728 431 730 411 730 c 0
 390 730 369 725 348 716 c 0
 327 707 314 699 309 691 c 1
 394 677 l 1
 439 668 469 661 483 656 c 1
 562 635 607 608 618 572 c 1
 623 545 l 1
 626 510 621 465 609 411 c 1
 524 24 l 1
 381 24 l 1
307 -323 m 1
 350 -298 l 1
 356 -270 l 1
 355 -271 350 -272 341 -272 c 0
 300 -272 270 -259 251 -232 c 0
 241 -216 235 -200 233 -184 c 0
 232 -170 233 -156 237 -140 c 0
 245 -104 265 -73 294 -47 c 0
 325 -21 360 -9 398 -9 c 0
 438 -9 466 -21 484 -45 c 0
 494 -59 500 -75 502 -93 c 0
 503 -106 503 -119 500 -133 c 2
 470 -272 l 1
 466 -296 455 -315 438 -327 c 1
 423 -344 403 -358 379 -369 c 2
 290 -413 l 1
 214 -362 l 1
 124 -411 l 1
 76 -349 l 1
 43 -397 -5 -420 -65 -418 c 0
 -96 -418 -121 -405 -141 -378 c 0
 -151 -365 -155 -350 -157 -332 c 0
 -159 -318 -158 -302 -156 -286 c 0
 -148 -252 -126 -226 -94 -205 c 1
 -64 -183 -32 -173 2 -173 c 0
 33 -173 60 -183 84 -205 c 1
 110 -145 l 1
 138 -40 l 1
 226 -40 l 1
 215 -92 202 -133 187 -166 c 0
 168 -215 148 -250 133 -272 c 1
 162 -309 l 1
 199 -291 l 1
 233 -270 l 1
 307 -323 l 1
-18 -252 m 0
 -32 -252 -43 -256 -54 -265 c 0
 -63 -273 -69 -284 -73 -298 c 1
 -73 -314 l 1
 -71 -329 -60 -336 -38 -336 c 0
 -19 -336 -3 -330 9 -316 c 1
 20 -307 29 -296 36 -283 c 1
 33 -277 28 -270 21 -263 c 0
 12 -255 -1 -252 -18 -252 c 0
360 -194 m 0
 374 -194 388 -188 401 -177 c 0
 412 -167 418 -155 419 -142 c 1
 422 -124 l 1
 415 -106 l 1
 410 -95 400 -89 384 -89 c 0
 365 -89 351 -95 342 -106 c 0
 329 -120 322 -132 320 -142 c 2
 317 -159 l 1
 317 -164 320 -170 326 -177 c 1
 332 -188 342 -194 360 -194 c 0
241 309 m 0
 259 309 275 315 290 327 c 1
 302 340 310 354 312 369 c 1
 315 392 l 1
 308 411 l 1
 300 423 285 429 267 429 c 0
 248 429 232 423 218 411 c 0
 205 399 198 385 195 369 c 2
 192 351 l 1
 193 342 196 334 202 327 c 0
 210 315 224 309 241 309 c 0
EndSplineSet
EndChar
StartChar: uni0E11
Encoding: 177 3601 146
OldEncoding: 3601
Width: 1021
Flags: W
HStem: -2 21G<224 351 687 820> 341 93<117 136> 554 92<161 184> 683 106<805 830>
DStem: 330 484 463 478 224 -2 428 323 638 656 766 652 428 323 351 -2 817 593 955 603 687 -2 820 -2
Fore
463 478 m 1
 428 323 l 1
 638 656 l 2
 664 698 691 733 720 760 c 0
 743 780 780 789 830 789 c 0
 903 789 946 773 958 741 c 1
 963 711 l 1
 966 682 964 646 955 603 c 1
 820 -2 l 1
 687 -2 l 1
 817 593 l 1
 824 633 828 657 827 665 c 2
 827 667 l 2
 826 676 820 681 809 683 c 1
 797 683 787 679 780 672 c 0
 772 663 768 656 766 652 c 1
 351 -2 l 1
 224 -2 l 1
 330 484 l 2
 343 546 377 592 432 621 c 0
 453 631 464 642 465 654 c 1
 465 661 l 2
 463 673 451 687 425 705 c 1
 307 654 l 1
 210 705 l 1
 185 700 165 689 146 672 c 0
 131 657 119 643 114 630 c 1
 116 634 124 637 136 639 c 1
 147 644 163 646 184 646 c 0
 215 646 240 639 259 626 c 1
 278 615 292 598 300 575 c 1
 308 546 l 1
 309 531 308 515 303 500 c 0
 294 455 272 417 238 387 c 0
 202 356 161 341 117 341 c 0
 58 341 17 359 -6 396 c 0
 -17 416 -23 438 -26 462 c 0
 -28 486 -27 513 -21 542 c 0
 -18 559 -11 581 -2 607 c 0
 12 647 36 683 70 716 c 0
 100 745 133 768 171 785 c 0
 204 801 231 809 254 809 c 1
 331 760 l 1
 442 809 l 1
 480 802 514 783 542 753 c 0
 562 731 572 709 575 685 c 0
 576 673 576 661 573 648 c 0
 569 632 562 617 553 605 c 0
 549 598 537 586 520 570 c 0
 506 558 496 545 485 531 c 1
 475 520 468 502 463 478 c 1
134 434 m 0
 153 434 170 439 182 452 c 0
 196 464 204 478 207 493 c 1
 209 517 l 1
 203 537 l 1
 194 549 181 554 161 554 c 0
 144 554 128 548 115 535 c 1
 101 525 91 511 86 493 c 1
 86 478 l 1
 87 468 90 460 94 452 c 0
 105 439 117 434 134 434 c 0
EndSplineSet
EndChar
StartChar: uni0E12
Encoding: 178 3602 147
OldEncoding: 3602
Width: 1075
Flags: W
HStem: -14 80<455 465> 0 21G<19 136 743 880> 514 95<349 370> 766 20G<914 1051>
VStem: 42 106<163.019 182.969>
DStem: 564 552 696 534 509 293 641 287 914 786 1051 786 784 185 880 0
Fore
148 163 m 1
 176 193 195 216 210 233 c 1
 269 300 l 1
 236 302 210 319 192 349 c 1
 182 368 178 385 176 402 c 0
 174 421 175 439 179 455 c 0
 189 499 211 535 247 565 c 0
 284 594 324 609 370 609 c 0
 416 609 450 595 473 567 c 1
 484 550 491 531 494 509 c 0
 495 490 494 472 490 453 c 0
 478 401 455 356 419 317 c 2
 136 0 l 1
 19 0 l 1
 35 84 43 145 42 183 c 1
 20 254 l 1
 7 300 -1 343 -5 384 c 0
 -10 432 -7 476 4 516 c 1
 19 579 60 638 124 693 c 1
 186 748 248 784 308 801 c 1
 421 748 l 1
 562 803 l 1
 632 763 675 725 692 689 c 1
 699 679 704 663 707 640 c 0
 709 614 706 579 696 534 c 2
 641 287 l 1
 677 278 709 261 734 238 c 0
 761 212 778 194 784 185 c 1
 914 786 l 1
 1051 786 l 1
 880 0 l 1
 743 0 l 1
 737 31 724 65 706 101 c 1
 688 145 659 172 620 183 c 1
 599 92 l 1
 593 64 577 38 549 15 c 0
 524 -4 493 -14 455 -14 c 0
 416 -14 389 0 374 28 c 0
 367 40 362 54 361 71 c 0
 359 86 361 108 365 136 c 1
 379 181 395 215 415 238 c 0
 439 264 470 283 509 293 c 1
 564 552 l 1
 573 582 575 608 573 629 c 1
 569 647 l 1
 562 666 549 681 529 693 c 1
 399 647 l 1
 284 693 l 1
 192 650 136 589 117 511 c 0
 111 481 111 445 116 404 c 0
 118 385 124 348 136 296 c 1
 150 231 l 1
 149 210 l 1
 148 163 l 1
481 79 m 1
 509 205 l 1
 474 201 451 175 441 127 c 1
 438 104 l 1
 445 85 l 1
 448 73 454 66 463 66 c 0
 471 66 477 70 481 79 c 1
320 391 m 0
 339 391 356 397 371 409 c 1
 384 423 391 438 395 453 c 1
 397 476 l 1
 391 497 l 1
 384 508 369 514 349 514 c 0
 331 514 316 507 302 495 c 1
 288 484 279 470 274 453 c 1
 274 432 l 1
 281 409 l 1
 289 397 303 391 320 391 c 0
EndSplineSet
MinimumDistance: x40,26 
EndChar
StartChar: uni0E13
Encoding: 179 3603 148
OldEncoding: 3603
Width: 1075
Flags: W
HStem: -36 20G<814 853.5> -14 85<122 145> 0 21G<408 538> 196 86<172 186> 710 95<398 453> 766 20G<880 1014>
DStem: 538 592 666 571 408 0 595 245 765 258 900 258 732 110 866 113 880 786 1014 786 787 358 920 358
Fore
408 0 m 1
 538 592 l 1
 539 627 l 1
 537 649 528 666 513 678 c 0
 487 697 448 708 398 710 c 0
 373 710 344 705 307 693 c 0
 263 682 232 666 210 645 c 1
 231 642 252 636 275 627 c 0
 306 616 332 601 354 583 c 1
 341 518 l 1
 315 518 288 510 261 495 c 0
 232 478 211 443 201 391 c 1
 178 280 l 1
 181 282 l 1
 186 282 l 2
 219 282 245 275 264 261 c 0
 283 246 296 228 300 205 c 2
 305 183 l 1
 307 166 306 150 304 134 c 0
 300 110 289 86 269 62 c 1
 254 39 234 21 208 6 c 0
 182 -7 153 -14 122 -14 c 0
 74 -14 41 1 23 30 c 0
 12 46 6 64 4 83 c 0
 2 100 4 117 8 136 c 2
 63 382 l 1
 72 428 85 463 103 485 c 1
 118 511 141 533 172 552 c 1
 160 559 144 565 121 571 c 0
 94 580 67 585 36 587 c 1
 48 631 l 1
 66 657 112 693 187 740 c 0
 256 783 345 805 453 805 c 0
 506 805 547 797 576 782 c 0
 608 766 631 746 644 724 c 0
 659 701 668 677 670 653 c 2
 671 647 l 1
 672 619 670 594 666 571 c 1
 595 245 l 1
 615 267 647 291 693 317 c 0
 730 340 762 353 787 358 c 1
 880 786 l 1
 1014 786 l 1
 920 358 l 1
 967 349 999 326 1017 289 c 0
 1024 275 1029 257 1031 236 c 0
 1034 212 1032 185 1026 154 c 0
 1014 102 991 61 953 32 c 1
 915 0 875 -16 832 -16 c 0
 796 -16 769 -6 749 13 c 0
 737 24 731 39 729 57 c 0
 727 75 728 92 732 110 c 2
 765 258 l 1
 715 241 670 207 630 157 c 1
 586 105 556 52 538 0 c 1
 408 0 l 1
145 71 m 0
 157 71 168 74 179 81 c 0
 192 88 200 95 205 104 c 0
 212 115 217 125 220 134 c 1
 219 157 l 1
 213 180 l 1
 206 191 192 196 172 196 c 0
 153 196 135 190 118 178 c 0
 105 167 97 152 94 134 c 1
 91 115 l 1
 92 107 95 99 100 92 c 0
 109 78 123 71 145 71 c 0
937 166 m 1
 937 201 l 1
 930 227 l 1
 920 243 910 254 900 258 c 1
 866 113 l 1
 866 97 l 1
 867 88 871 83 878 83 c 0
 890 85 902 94 915 110 c 1
 925 128 932 146 937 166 c 1
EndSplineSet
EndChar
StartChar: uni0E14
Encoding: 180 3604 149
OldEncoding: 3604
Width: 796
Flags: W
HStem: -1 21G<38 156 464 599> 511 95<368 389> 688 116<408 441>
DStem: 582 544 715 533 464 -1 599 -1
Fore
437 804 m 0
 552 802 632 775 675 723 c 0
 701 691 716 654 720 615 c 0
 723 591 721 564 715 533 c 1
 599 -1 l 1
 464 -1 l 1
 582 544 l 1
 587 559 589 573 587 589 c 0
 584 616 572 637 550 654 c 0
 517 677 472 688 415 688 c 0
 351 688 291 671 239 637 c 1
 183 605 150 558 139 498 c 0
 133 477 132 445 137 403 c 0
 140 370 147 334 155 295 c 0
 160 270 165 248 169 230 c 1
 169 209 l 1
 167 163 l 1
 229 230 l 1
 290 297 l 1
 259 299 233 315 212 346 c 0
 201 363 195 381 193 399 c 0
 191 418 192 436 196 452 c 0
 209 496 232 533 266 561 c 0
 300 591 341 606 389 606 c 0
 436 606 471 592 491 564 c 0
 503 546 511 525 513 503 c 0
 515 486 514 468 510 450 c 0
 499 399 475 354 438 314 c 1
 156 -1 l 1
 38 -1 l 1
 55 83 63 144 61 182 c 1
 42 253 l 1
 29 294 21 334 17 372 c 2
 16 383 l 2
 11 428 14 472 26 515 c 0
 38 562 64 607 104 652 c 0
 146 697 195 734 250 763 c 1
 308 790 370 804 437 804 c 0
339 390 m 0
 358 390 375 396 391 408 c 1
 402 422 410 436 415 450 c 1
 416 473 l 1
 410 494 l 1
 403 505 389 511 368 511 c 0
 349 511 333 504 319 491 c 1
 305 481 296 467 294 450 c 1
 294 431 l 1
 300 408 l 1
 309 396 322 390 339 390 c 0
EndSplineSet
EndChar
StartChar: uni0E15
Encoding: 181 3605 150
OldEncoding: 3605
Width: 795
Flags: W
HStem: -1 21G<38 155 461 598> 513 95<368 388>
DStem: 583 551 713 533 461 -1 598 -1
Fore
598 -1 m 1
 461 -1 l 1
 583 551 l 1
 591 581 594 607 592 628 c 1
 588 646 l 1
 581 665 568 681 548 693 c 1
 418 646 l 1
 303 693 l 1
 210 649 155 588 136 511 c 0
 131 480 130 444 135 403 c 0
 137 384 143 348 155 295 c 1
 169 230 l 1
 168 209 l 1
 166 163 l 1
 194 192 214 215 228 233 c 1
 289 299 l 1
 255 302 230 318 211 348 c 1
 201 367 197 384 195 401 c 0
 193 421 194 438 198 454 c 0
 208 498 230 534 266 564 c 0
 303 593 343 608 388 608 c 0
 435 608 470 594 493 566 c 1
 502 547 508 528 510 508 c 0
 511 493 511 474 508 452 c 1
 497 401 473 355 437 316 c 2
 155 -1 l 1
 38 -1 l 1
 54 83 62 144 61 182 c 1
 38 253 l 1
 25 302 18 345 14 383 c 0
 9 431 11 475 23 515 c 1
 38 578 78 638 143 693 c 1
 205 748 267 783 327 800 c 1
 440 747 l 1
 581 802 l 1
 650 762 694 724 710 688 c 0
 717 675 721 658 723 639 c 0
 726 613 722 578 713 533 c 2
 598 -1 l 1
339 390 m 0
 358 390 375 396 390 408 c 1
 403 422 410 437 413 452 c 1
 416 476 l 1
 409 496 l 1
 402 507 388 513 368 513 c 0
 350 513 335 507 321 494 c 1
 307 483 298 469 293 452 c 1
 293 432 l 1
 300 408 l 1
 308 396 322 390 339 390 c 0
EndSplineSet
EndChar
StartChar: uni0E16
Encoding: 182 3606 151
OldEncoding: 3606
Width: 804
Flags: W
HStem: -14 88<145 175> -1 21G<473 607> 207 88<194 210.013> 703 102<434 469>
DStem: 591 534 725 545 473 -1 607 -1
Fore
196 295 m 1
 212 295 l 2
 264 295 300 280 319 249 c 0
 331 230 338 210 340 192 c 0
 342 174 340 157 337 141 c 0
 327 96 305 60 271 32 c 1
 236 1 194 -14 145 -14 c 0
 98 -14 65 1 44 32 c 1
 31 47 24 66 22 88 c 0
 20 107 21 125 25 141 c 1
 79 381 l 1
 88 428 101 463 119 485 c 1
 134 511 157 533 188 552 c 1
 179 558 163 564 137 571 c 0
 107 580 78 586 51 587 c 1
 64 631 l 1
 100 666 l 1
 113 681 138 700 176 724 c 1
 225 750 268 769 305 781 c 0
 352 797 407 805 469 805 c 0
 532 805 584 796 625 777 c 0
 666 757 698 727 718 689 c 0
 725 674 730 656 732 633 c 0
 735 605 734 575 725 545 c 1
 607 -1 l 1
 473 -1 l 1
 591 534 l 2
 595 558 597 577 596 592 c 0
 593 619 582 642 562 662 c 0
 534 689 492 703 436 703 c 0
 371 703 301 683 227 642 c 1
 234 640 244 638 258 636 c 1
 310 620 l 1
 333 610 353 598 370 583 c 1
 356 518 l 1
 331 518 304 510 277 494 c 0
 247 478 226 443 216 390 c 2
 196 295 l 1
175 74 m 1
 196 76 212 83 224 94 c 0
 237 104 246 119 252 138 c 1
 254 163 l 1
 253 174 250 182 245 189 c 0
 235 201 218 207 194 207 c 1
 174 205 158 198 145 187 c 1
 131 177 123 162 120 141 c 1
 117 119 l 1
 119 109 121 101 127 94 c 0
 135 81 151 74 175 74 c 1
EndSplineSet
EndChar
StartChar: uni0E17
Encoding: 183 3607 152
OldEncoding: 3607
Width: 867
Flags: W
HStem: -1 21G<77 205 540 674> 489 93<135 180> 684 106<658 683> 705 95<205 227>
DStem: 184 492 353 640 77 -1 282 323 492 657 619 652 282 323 205 -1 671 593 807 603 540 -1 674 -1
Fore
77 -1 m 1
 184 492 l 1
 178 490 162 489 135 489 c 1
 96 494 68 512 51 542 c 0
 42 557 37 574 35 593 c 0
 33 613 35 631 40 646 c 1
 49 689 70 725 102 756 c 1
 136 785 178 800 227 800 c 0
 278 800 313 785 336 754 c 0
 347 737 354 718 356 697 c 0
 358 678 357 658 353 640 c 2
 282 323 l 1
 492 657 l 2
 524 707 551 742 573 763 c 1
 596 781 633 790 683 790 c 0
 757 790 800 774 812 741 c 1
 817 712 l 1
 820 682 817 646 807 603 c 1
 674 -1 l 1
 540 -1 l 1
 671 593 l 1
 683 666 l 1
 683 668 l 2
 682 676 675 681 663 684 c 0
 651 684 643 680 636 672 c 0
 627 665 622 658 619 652 c 1
 205 -1 l 1
 77 -1 l 1
180 582 m 0
 200 582 216 588 229 600 c 0
 241 611 250 626 254 644 c 1
 255 668 l 1
 248 688 l 1
 240 700 227 705 207 705 c 0
 191 705 175 699 158 686 c 0
 145 675 138 661 135 644 c 1
 132 637 131 630 131 624 c 0
 132 617 135 609 140 600 c 0
 148 588 162 582 180 582 c 0
EndSplineSet
EndChar
StartChar: uni0E18
Encoding: 184 3608 153
OldEncoding: 3608
Width: 690
Flags: W
HStem: -1 120<-30 345> 540 95<119 268> 646 103<607 624> 703 99<332 371>
DStem: 147 487 282 487 68 119 199 119 441 385 575 383 399 186 525 149
Fore
189 633 m 1
 213 635 l 1
 268 635 l 2
 405 635 501 610 554 559 c 0
 571 543 581 519 585 487 c 0
 588 460 584 425 575 383 c 2
 525 149 l 1
 511 86 491 45 467 27 c 0
 441 8 393 -1 324 -1 c 2
 -56 -1 l 1
 -29 119 l 1
 68 119 l 1
 147 487 l 1
 282 487 l 1
 199 119 l 1
 322 119 l 2
 351 119 369 123 377 131 c 0
 385 139 392 158 399 186 c 1
 441 385 l 1
 445 407 449 429 450 450 c 1
 448 467 438 483 422 498 c 0
 407 512 371 522 312 529 c 0
 246 536 181 540 119 540 c 2
 24 538 l 1
 41 619 l 1
 79 667 126 710 182 747 c 1
 243 784 306 802 371 802 c 0
 415 802 464 794 519 776 c 1
 569 758 603 749 622 749 c 0
 651 749 680 757 712 772 c 1
 722 672 l 1
 677 655 639 646 607 646 c 0
 581 646 537 656 477 675 c 0
 420 693 372 703 332 703 c 0
 298 703 267 694 240 677 c 0
 226 667 209 652 189 633 c 1
EndSplineSet
EndChar
StartChar: uni0E19
Encoding: 185 3609 154
OldEncoding: 3609
Width: 858
Flags: W
HStem: -16 99<588 638> 0 21G<73 202> 495 92<160 182> 497 90<175 183> 710 95<208 229> 766 20G<638 772>
DStem: 183 497 354 666 73 0 253 201 523 258 656 258 492 110 623 113 638 786 772 786 546 358 678 358
Fore
638 786 m 1
 772 786 l 1
 678 358 l 1
 723 349 757 326 776 289 c 1
 782 273 786 255 788 236 c 0
 790 215 789 188 786 154 c 1
 773 103 747 62 711 32 c 1
 675 0 634 -16 588 -16 c 0
 553 -16 526 -6 509 13 c 0
 495 27 487 42 485 57 c 0
 484 68 486 85 492 110 c 1
 523 258 l 1
 460 241 396 205 332 150 c 0
 270 97 226 47 202 0 c 1
 73 0 l 1
 183 497 l 1
 176 497 l 1
 160 495 l 1
 114 495 80 511 58 543 c 0
 46 562 39 581 37 601 c 0
 35 620 37 636 42 649 c 1
 49 692 69 728 104 759 c 1
 142 790 184 805 229 805 c 0
 272 805 306 793 330 768 c 0
 345 752 354 733 356 710 c 0
 358 697 357 682 354 666 c 1
 253 201 l 1
 294 244 340 277 388 300 c 0
 441 327 494 346 546 358 c 1
 638 786 l 1
182 587 m 0
 201 587 218 594 230 606 c 0
 243 617 252 631 257 649 c 1
 259 673 l 1
 252 693 l 1
 245 705 230 710 208 710 c 0
 190 710 175 704 162 691 c 0
 150 680 142 666 139 649 c 2
 136 627 l 1
 143 606 l 1
 152 594 164 587 182 587 c 0
694 166 m 0
 697 180 698 193 696 205 c 1
 692 229 l 1
 683 245 671 255 656 258 c 1
 623 113 l 1
 625 99 l 2
 626 88 630 83 638 83 c 1
 647 86 654 91 660 97 c 0
 671 109 677 120 682 132 c 1
 689 142 693 153 694 166 c 0
EndSplineSet
EndChar
StartChar: uni0E1A
Encoding: 186 3610 155
OldEncoding: 3610
Width: 827
Flags: W
HStem: -1 120<-17 457> 705 95<191 212> 765 20G<665 800>
DStem: 170 492 338 640 86 119 220 119 665 785 800 785 533 186 661 151
Fore
86 119 m 1
 170 492 l 1
 120 489 l 1
 79 494 50 512 35 542 c 0
 27 558 23 574 21 593 c 0
 19 611 19 628 22 646 c 0
 28 674 41 699 58 723 c 0
 73 746 94 764 121 779 c 0
 150 793 180 800 212 800 c 0
 262 800 298 785 320 754 c 0
 332 737 339 718 341 697 c 0
 343 678 342 658 338 640 c 2
 220 119 l 1
 447 119 l 2
 477 119 498 124 509 133 c 0
 517 139 526 157 533 186 c 1
 665 785 l 1
 800 785 l 1
 661 151 l 1
 649 93 624 53 586 32 c 0
 549 10 494 -1 421 -1 c 2
 -40 -1 l 1
 -16 119 l 1
 86 119 l 1
166 582 m 0
 183 582 199 588 214 600 c 0
 226 611 234 626 240 644 c 1
 240 666 l 1
 239 673 236 681 233 688 c 0
 225 700 212 705 192 705 c 0
 175 705 160 699 146 686 c 1
 129 674 120 660 117 644 c 1
 117 624 l 1
 124 600 l 1
 133 588 147 582 166 582 c 0
EndSplineSet
EndChar
StartChar: uni0E1B
Encoding: 187 3611 156
OldEncoding: 3611
Width: 827
Flags: W
HStem: -18 120<-64 410> 688 95<144 165>
DStem: 123 475 291 623 39 102 173 102 687 1077 824 1077 486 170 615 135
Fore
39 102 m 1
 123 475 l 1
 72 472 l 1
 32 477 3 495 -12 526 c 0
 -20 541 -25 558 -27 576 c 0
 -28 594 -28 611 -25 630 c 0
 -19 657 -7 682 11 706 c 0
 25 729 46 747 74 762 c 0
 102 776 133 783 165 783 c 0
 215 783 251 768 274 737 c 0
 284 720 291 701 294 680 c 0
 296 661 295 642 291 623 c 2
 173 102 l 1
 401 102 l 2
 430 102 451 107 462 116 c 0
 471 123 479 140 486 170 c 1
 687 1077 l 1
 824 1077 l 1
 615 135 l 1
 602 76 577 36 538 15 c 0
 502 -7 447 -18 374 -18 c 2
 -87 -18 l 1
 -63 102 l 1
 39 102 l 1
119 565 m 0
 136 565 152 571 168 583 c 0
 179 594 187 609 193 627 c 1
 193 649 l 1
 192 656 189 664 185 671 c 0
 178 683 165 688 145 688 c 0
 128 688 112 682 99 669 c 1
 82 657 72 643 72 627 c 1
 70 607 l 1
 77 583 l 1
 86 571 100 565 119 565 c 0
EndSplineSet
EndChar
StartChar: uni0E1C
Encoding: 188 3612 157
OldEncoding: 3612
Width: 814
Flags: W
HStem: -1 21G<-26 101 485 617> 489 93<250.389 268> 705 95<287 308> 765 20G<654 789>
DStem: 115 640 216 492 -26 -1 168 266 395 458 360 309 168 266 176 145 654 785 789 785 543 266 617 -1
Fore
101 -1 m 1
 -26 -1 l 1
 115 640 l 1
 125 686 147 724 182 754 c 0
 216 785 259 800 308 800 c 0
 344 800 372 793 392 779 c 0
 413 764 426 745 431 723 c 2
 435 701 l 1
 437 682 436 664 432 646 c 0
 423 606 404 572 373 542 c 0
 341 512 306 494 268 489 c 1
 240 489 222 490 216 492 c 1
 168 266 l 1
 395 458 l 1
 543 266 l 1
 654 785 l 1
 789 785 l 1
 617 -1 l 1
 485 -1 l 1
 493 32 496 61 493 85 c 0
 491 109 482 129 470 145 c 1
 360 309 l 1
 176 145 l 2
 141 113 116 64 101 -1 c 1
289 705 m 0
 272 705 257 699 243 686 c 1
 226 674 217 660 214 644 c 1
 213 624 l 1
 221 600 l 1
 230 588 244 582 263 582 c 0
 280 582 296 588 311 600 c 0
 323 611 331 626 337 644 c 1
 337 666 l 1
 336 673 333 681 330 688 c 0
 322 700 309 705 289 705 c 0
EndSplineSet
EndChar
StartChar: uni0E1D
Encoding: 189 3613 158
OldEncoding: 3613
Width: 814
Flags: W
HStem: -18 21G<-72 54 438 571> 472 93<203.389 221> 688 95<240 262>
DStem: 68 623 169 475 -72 -18 121 249 348 441 313 292 121 249 129 128 678 1077 811 1077 496 249 571 -18
Fore
54 -18 m 1
 -72 -18 l 1
 68 623 l 1
 78 669 100 707 136 737 c 0
 169 768 212 783 262 783 c 0
 297 783 324 776 345 762 c 0
 366 747 379 728 384 706 c 2
 388 684 l 1
 390 665 389 647 385 630 c 0
 376 590 357 555 326 526 c 0
 294 495 259 477 220 472 c 1
 192 472 175 473 169 475 c 1
 121 249 l 1
 348 441 l 1
 496 249 l 1
 678 1077 l 1
 811 1077 l 1
 571 -18 l 1
 438 -18 l 1
 446 15 448 44 446 68 c 0
 443 92 436 112 423 128 c 1
 313 292 l 1
 129 128 l 2
 94 96 69 48 54 -18 c 1
242 688 m 0
 225 688 209 682 196 669 c 1
 179 657 169 643 169 627 c 1
 167 607 l 1
 174 583 l 1
 183 571 197 565 216 565 c 0
 233 565 249 571 265 583 c 0
 276 594 285 609 290 627 c 1
 293 649 l 1
 292 658 288 665 282 671 c 1
 275 683 262 688 242 688 c 0
EndSplineSet
EndChar
StartChar: uni0E1E
Encoding: 190 3614 159
OldEncoding: 3614
Width: 922
Flags: W
HStem: -1 21G<43 175 590 723> 489 93<104 149> 705 95<174 195> 765 20G<761 896>
DStem: 152 492 321 640 43 -1 261 359 493 501 553 767 595 105 667 359 553 767 493 501 261 359 217 105 761 785 896 785 667 359 723 -1
Fore
261 359 m 1
 553 767 l 1
 667 359 l 1
 761 785 l 1
 896 785 l 1
 723 -1 l 1
 590 -1 l 1
 591 10 594 27 599 50 c 1
 598 92 l 1
 595 105 l 1
 493 501 l 1
 217 105 l 1
 208 89 199 71 191 50 c 1
 175 -1 l 1
 43 -1 l 1
 152 492 l 1
 146 490 131 489 104 489 c 1
 62 494 34 512 19 542 c 0
 11 558 7 574 5 593 c 0
 3 613 4 631 8 646 c 1
 12 672 24 698 42 723 c 0
 57 746 78 764 105 779 c 0
 134 793 164 800 195 800 c 0
 246 800 281 785 304 754 c 0
 316 737 323 718 325 697 c 0
 327 677 326 658 321 640 c 1
 261 359 l 1
149 582 m 0
 165 582 181 588 198 600 c 1
 210 612 218 627 223 644 c 1
 223 666 l 1
 216 688 l 1
 208 700 196 705 176 705 c 0
 159 705 143 699 129 686 c 1
 112 674 104 660 103 644 c 1
 100 624 l 1
 101 616 105 608 110 600 c 0
 119 588 132 582 149 582 c 0
EndSplineSet
EndChar
StartChar: uni0E1F
Encoding: 191 3615 160
OldEncoding: 3615
Width: 921
Flags: W
HStem: -18 21G<-4 129 543 677> 472 93<56 103> 688 95<127 148>
DStem: 105 475 274 623 -4 -18 214 342 446 484 506 750 550 88 621 342 506 750 446 484 214 342 171 88 784 1077 919 1077 621 342 677 -18
Fore
214 342 m 1
 506 750 l 1
 621 342 l 1
 784 1077 l 1
 919 1077 l 1
 677 -18 l 1
 543 -18 l 1
 547 -7 549 10 552 33 c 1
 551 75 l 1
 550 88 l 1
 446 484 l 1
 171 88 l 1
 160 72 151 54 144 33 c 1
 129 -18 l 1
 -4 -18 l 1
 105 475 l 1
 100 473 83 472 56 472 c 1
 16 477 -13 495 -28 526 c 0
 -36 541 -41 558 -43 576 c 0
 -45 596 -44 614 -39 630 c 1
 -35 655 -24 681 -5 706 c 0
 9 729 30 747 58 762 c 0
 86 776 117 783 148 783 c 0
 199 783 235 768 257 737 c 0
 268 720 275 701 278 680 c 0
 280 660 279 641 274 623 c 1
 214 342 l 1
103 565 m 0
 118 565 134 571 151 583 c 1
 162 595 171 610 176 627 c 1
 176 649 l 1
 169 671 l 1
 162 683 149 688 129 688 c 0
 112 688 96 682 83 669 c 1
 65 657 56 643 56 627 c 1
 54 607 l 1
 55 599 58 591 63 583 c 0
 72 571 85 565 103 565 c 0
EndSplineSet
EndChar
StartChar: uni0E20
Encoding: 192 3616 161
OldEncoding: 3616
Width: 878
Flags: W
HStem: 0 21G<547 682> 205 88<96 116> 704 102<508 544>
DStem: 665 534 803 545 547 0 682 0
Fore
116 293 m 2
 128 293 l 1
 133 291 l 1
 151 382 l 2
 160 423 174 458 194 485 c 0
 213 515 237 537 263 552 c 1
 253 558 236 565 213 571 c 0
 177 580 148 586 127 587 c 1
 137 631 l 1
 175 666 l 2
 200 690 226 710 252 724 c 1
 286 746 329 765 381 782 c 0
 426 797 481 806 544 806 c 0
 606 806 657 795 700 775 c 1
 743 757 775 727 793 687 c 0
 800 672 806 654 809 631 c 0
 811 605 808 576 803 545 c 1
 682 0 l 1
 547 0 l 1
 665 534 l 2
 669 553 671 572 669 592 c 0
 666 620 655 644 638 662 c 1
 609 690 566 704 508 704 c 0
 478 704 445 698 409 687 c 1
 369 677 334 662 304 643 c 1
 366 627 l 2
 394 620 420 605 446 583 c 1
 431 518 l 1
 406 518 379 510 352 495 c 0
 322 477 302 443 292 391 c 1
 236 141 l 1
 226 95 204 58 173 30 c 0
 143 1 100 -14 48 -16 c 1
 -3 -14 -36 1 -54 30 c 0
 -65 46 -72 64 -74 85 c 0
 -76 102 -75 119 -70 136 c 0
 -62 179 -42 216 -9 247 c 0
 26 278 67 293 116 293 c 2
69 71 m 0
 88 71 106 78 122 92 c 0
 136 103 146 118 152 139 c 1
 154 166 l 1
 151 192 132 205 98 205 c 0
 79 205 61 199 44 187 c 1
 33 176 23 160 17 139 c 1
 17 119 l 1
 19 108 22 99 27 92 c 0
 35 78 50 71 69 71 c 0
EndSplineSet
EndChar
StartChar: uni0E21
Encoding: 193 3617 162
OldEncoding: 3617
Width: 839
Flags: W
HStem: -16 102<95 102> 0 21G<514 644> 490 93<182 206> 493 90<195 206> 706 95<231 252> 766 20G<681 816>
DStem: 152 259 285 252 121 113 256 120 681 786 816 786 555 212 644 0
Fore
681 786 m 1
 816 786 l 1
 644 0 l 1
 514 0 l 1
 513 11 l 2
 510 34 501 63 485 97 c 0
 468 132 443 165 408 196 c 0
 372 227 331 245 285 252 c 1
 256 120 l 1
 246 76 225 43 195 20 c 0
 159 -4 128 -16 100 -16 c 0
 48 -18 9 -2 -16 33 c 1
 -33 49 -42 70 -45 95 c 0
 -47 114 -45 134 -41 155 c 0
 -29 211 -3 260 38 300 c 0
 77 339 123 360 176 364 c 1
 203 493 l 1
 196 493 l 1
 182 490 l 1
 134 490 101 506 81 537 c 0
 69 555 61 574 59 594 c 0
 57 612 58 629 62 645 c 0
 72 688 93 725 126 757 c 1
 161 786 203 801 252 801 c 0
 293 801 326 788 351 761 c 0
 367 743 376 725 378 706 c 0
 379 692 379 677 374 662 c 2
 307 360 l 1
 386 349 445 327 483 294 c 0
 523 258 547 231 555 212 c 1
 681 786 l 1
206 583 m 0
 222 583 238 589 255 601 c 1
 266 614 274 628 277 645 c 1
 280 667 l 1
 273 689 l 1
 265 700 252 706 233 706 c 0
 215 706 199 700 186 687 c 1
 170 675 161 661 157 645 c 1
 155 625 l 1
 156 616 160 608 167 601 c 1
 175 589 189 583 206 583 c 0
152 259 m 1
 129 256 111 247 97 231 c 0
 80 214 68 192 65 166 c 1
 60 152 58 137 59 123 c 0
 61 100 74 88 95 86 c 0
 107 86 116 95 121 113 c 1
 152 259 l 1
EndSplineSet
EndChar
StartChar: uni0E22
Encoding: 194 3618 163
OldEncoding: 3618
Width: 778
Flags: W
HStem: -1 120<137 414> 503 93<282 307> 707 95<328 348> 765 20G<616 751>
DStem: 616 785 751 785 487 186 613 149
Fore
169 376 m 1
 136 387 112 411 96 450 c 0
 89 467 85 485 83 503 c 0
 81 521 83 544 87 573 c 1
 95 603 106 632 120 661 c 1
 147 706 181 742 221 767 c 1
 262 791 304 802 348 802 c 0
 393 802 425 788 447 760 c 1
 458 744 465 725 467 705 c 0
 469 687 468 670 462 654 c 1
 456 616 436 580 403 547 c 1
 369 517 328 503 282 503 c 0
 259 503 238 508 218 520 c 1
 202 526 193 530 193 533 c 1
 195 533 l 1
 193 513 l 1
 195 491 211 472 241 454 c 0
 275 435 314 425 358 423 c 1
 336 323 l 1
 279 323 236 311 208 288 c 0
 181 268 163 236 153 191 c 2
 137 119 l 1
 399 119 l 2
 430 119 451 123 462 133 c 0
 471 139 479 157 487 186 c 1
 616 785 l 1
 751 785 l 1
 613 149 l 1
 599 86 579 45 554 27 c 0
 526 8 479 -1 412 -1 c 2
 -23 -1 l 1
 19 191 l 1
 27 235 43 272 67 302 c 0
 89 329 110 348 131 359 c 0
 144 368 158 373 169 376 c 1
307 596 m 0
 324 596 340 601 352 612 c 0
 363 625 371 638 374 652 c 1
 376 670 l 1
 368 690 l 1
 361 702 349 707 330 707 c 0
 312 707 297 702 286 690 c 1
 271 680 263 667 261 652 c 2
 261 635 l 1
 268 615 l 1
 277 602 290 596 307 596 c 0
EndSplineSet
EndChar
StartChar: uni0E23
Encoding: 195 3619 164
OldEncoding: 3619
Width: 668
Flags: W
HStem: -10 95<305 330> 205 97<356 374> 654 102<594 616> 710 99<312 348>
Fore
560 388 m 1
 506 149 l 1
 495 103 470 66 432 36 c 0
 393 5 350 -10 305 -10 c 0
 257 -10 223 5 202 36 c 0
 192 52 186 70 183 92 c 0
 181 111 182 129 187 145 c 0
 195 188 216 225 252 253 c 1
 286 283 327 299 374 302 c 0
 389 302 398 301 402 299 c 1
 423 388 l 2
 428 409 430 430 428 450 c 0
 426 469 417 486 400 501 c 1
 387 514 364 524 329 531 c 0
 309 536 260 542 181 551 c 0
 127 557 70 559 12 559 c 1
 27 631 l 1
 62 680 107 722 162 756 c 0
 219 791 281 809 348 809 c 0
 394 809 446 800 502 783 c 0
 556 765 594 756 614 756 c 0
 644 756 675 764 706 779 c 1
 717 679 l 1
 672 663 632 654 594 654 c 0
 559 654 513 663 456 681 c 0
 400 700 352 710 312 710 c 0
 275 710 247 702 227 686 c 0
 203 669 187 656 180 646 c 1
 358 646 476 618 534 562 c 0
 553 542 565 516 568 485 c 0
 571 460 568 428 560 388 c 1
330 85 m 0
 348 85 365 90 378 101 c 0
 389 110 398 124 405 145 c 1
 406 168 l 1
 406 175 403 182 398 189 c 0
 391 199 376 205 356 205 c 0
 335 205 318 199 305 186 c 0
 293 174 284 161 282 145 c 1
 279 127 l 1
 280 118 282 110 288 103 c 0
 297 91 311 85 330 85 c 0
EndSplineSet
EndChar
StartChar: uni0E24
Encoding: 196 3620 165
OldEncoding: 3620
Width: 797
Flags: W
HStem: 9 88<200 221> 230 88<249 254> 726 102<489 526>
DStem: 645 557 780 568 436 -387 571 -387
Fore
249 318 m 1
 268 318 l 2
 317 318 351 303 374 272 c 1
 385 254 392 235 395 214 c 0
 396 198 395 182 393 163 c 1
 382 118 359 82 325 55 c 1
 290 24 249 9 200 9 c 0
 155 9 120 24 98 55 c 0
 86 70 79 88 76 110 c 0
 74 130 75 148 80 163 c 1
 134 404 l 1
 143 449 155 483 174 508 c 1
 189 534 211 557 244 575 c 1
 231 582 213 588 193 594 c 0
 161 603 132 608 107 610 c 1
 116 654 l 1
 155 689 l 1
 166 702 193 722 234 747 c 1
 284 774 327 793 362 804 c 0
 409 820 463 828 526 828 c 0
 588 828 639 818 680 800 c 0
 722 779 753 749 772 711 c 0
 780 697 786 679 788 656 c 0
 791 628 788 599 780 568 c 1
 571 -387 l 1
 436 -387 l 1
 645 557 l 2
 649 576 650 595 648 614 c 0
 646 641 636 665 620 684 c 1
 588 712 545 726 491 726 c 0
 425 726 356 706 282 665 c 1
 289 663 299 661 310 658 c 2
 362 643 l 1
 387 633 408 620 424 605 c 1
 410 541 l 1
 383 541 356 533 330 517 c 0
 304 502 285 467 272 413 c 2
 249 318 l 1
219 97 m 0
 242 97 260 104 275 117 c 1
 287 126 296 142 302 163 c 1
 304 192 l 1
 301 217 284 230 251 230 c 0
 231 230 213 224 198 212 c 0
 185 200 176 184 170 163 c 1
 168 140 l 1
 169 131 172 124 178 117 c 0
 185 104 199 97 219 97 c 0
EndSplineSet
EndChar
StartChar: uni0E25
Encoding: 197 3621 166
OldEncoding: 3621
Width: 772
Flags: W
HStem: -16 93<144 167> 0 21G<442 579> 701 102<395 429>
DStem: 562 539 698 541 520 349 579 0
Fore
144 -16 m 0
 97 -16 63 -2 42 26 c 1
 25 45 15 68 12 95 c 1
 14 125 l 1
 26 203 40 271 54 329 c 0
 71 391 102 446 147 495 c 1
 192 540 243 562 298 562 c 0
 356 565 401 550 437 518 c 1
 469 487 489 453 500 417 c 2
 520 349 l 1
 562 539 l 2
 566 558 567 577 565 596 c 0
 563 622 553 643 538 660 c 1
 509 687 463 701 401 701 c 0
 348 701 301 689 257 664 c 0
 218 642 180 613 143 578 c 1
 83 645 l 1
 121 689 167 726 222 755 c 0
 283 787 351 803 424 803 c 0
 517 803 589 780 643 733 c 0
 679 704 699 666 704 620 c 0
 706 595 704 569 698 541 c 2
 579 0 l 1
 442 0 l 1
 443 29 441 89 436 178 c 1
 435 187 l 2
 429 249 413 312 390 375 c 1
 364 434 329 463 284 461 c 0
 224 458 182 400 158 287 c 1
 180 291 l 1
 213 293 l 1
 263 291 298 277 317 252 c 0
 329 236 337 217 339 196 c 0
 341 181 340 164 335 143 c 0
 325 98 303 60 271 30 c 0
 239 2 196 -14 144 -16 c 0
167 77 m 0
 182 77 198 83 215 95 c 1
 229 109 237 124 240 139 c 1
 240 161 l 1
 234 183 l 1
 227 193 213 199 193 199 c 0
 174 199 158 193 143 180 c 0
 131 169 124 155 120 139 c 1
 121 117 l 1
 127 97 l 1
 133 83 146 77 167 77 c 0
EndSplineSet
EndChar
StartChar: uni0E26
Encoding: 198 3622 167
OldEncoding: 3622
Width: 871
Flags: W
HStem: 228 88<149 169> 726 102<563 597>
DStem: 717 557 855 568 510 -387 647 -387
Fore
169 316 m 2
 182 316 l 1
 186 314 l 1
 207 404 l 1
 217 449 231 483 250 508 c 1
 265 537 286 559 316 575 c 1
 308 581 291 587 266 594 c 0
 232 603 204 608 180 610 c 1
 192 654 l 1
 228 689 l 1
 253 713 279 732 304 747 c 1
 338 768 381 788 433 804 c 0
 481 820 536 828 597 828 c 0
 655 828 707 818 753 797 c 0
 798 776 828 747 845 709 c 0
 854 693 859 675 861 654 c 0
 864 630 862 601 855 568 c 1
 647 -387 l 1
 510 -387 l 1
 717 557 l 1
 724 579 726 598 724 614 c 0
 722 640 710 663 691 684 c 1
 662 712 621 726 565 726 c 0
 535 726 500 721 461 709 c 0
 421 699 386 684 357 665 c 1
 377 662 399 657 421 649 c 0
 447 643 473 628 498 605 c 1
 483 541 l 1
 457 541 431 533 406 517 c 0
 375 501 355 466 345 413 c 2
 290 163 l 1
 278 116 257 79 225 53 c 1
 194 24 154 9 102 6 c 1
 54 9 19 24 -3 53 c 0
 -13 69 -19 87 -21 108 c 0
 -23 125 -22 142 -18 159 c 0
 -7 204 15 241 48 270 c 1
 79 301 120 316 169 316 c 2
121 93 m 0
 142 93 159 101 175 115 c 1
 190 127 200 142 205 161 c 0
 208 172 209 182 208 188 c 0
 205 215 187 228 151 228 c 0
 132 228 116 222 100 210 c 0
 82 197 73 181 70 161 c 1
 70 142 l 1
 71 133 73 124 77 115 c 0
 86 101 101 93 121 93 c 0
EndSplineSet
EndChar
StartChar: uni0E27
Encoding: 199 3623 168
OldEncoding: 3623
Width: 696
Flags: W
HStem: -16 93<338 361> 198 95<385 407> 693 112<333 362>
DStem: 481 534 618 536 430 291 531 143
Fore
407 293 m 1
 430 291 l 1
 481 534 l 1
 486 560 487 581 485 596 c 0
 483 620 475 641 459 657 c 1
 428 681 387 693 334 693 c 0
 248 696 164 651 80 560 c 1
 3 631 l 1
 41 678 91 720 154 757 c 1
 218 789 286 805 362 805 c 0
 463 805 537 781 581 733 c 0
 605 705 618 671 623 631 c 0
 626 600 624 569 618 536 c 2
 531 143 l 1
 522 96 500 58 465 30 c 0
 428 -1 386 -16 338 -16 c 0
 289 -16 255 -1 236 30 c 1
 223 45 216 64 214 88 c 0
 212 104 214 123 219 145 c 0
 230 187 253 222 287 252 c 0
 320 279 359 293 407 293 c 1
361 77 m 0
 377 77 393 82 410 94 c 1
 421 107 428 121 432 139 c 1
 432 161 l 1
 428 183 l 1
 421 193 407 198 386 198 c 0
 368 198 352 192 337 180 c 0
 325 169 318 155 314 139 c 1
 313 117 l 1
 313 110 316 104 321 97 c 1
 327 83 340 77 361 77 c 0
EndSplineSet
EndChar
StartChar: uni0E28
Encoding: 200 3624 169
OldEncoding: 3624
Width: 790
Flags: W
HStem: -4 21G<30 167 449 582> 511 97<344 366> 700 109<382 420>
DStem: 60 133 236 306 30 -4 167 -4 559 498 700 531 449 -4 582 -4
Fore
652 727 m 1
 655 727 665 739 683 763 c 0
 702 784 718 811 731 842 c 1
 835 787 l 1
 823 756 803 724 774 692 c 0
 737 653 715 630 704 624 c 1
 706 605 l 1
 708 593 l 1
 707 565 704 544 700 531 c 2
 582 -4 l 1
 449 -4 l 1
 559 498 l 1
 566 535 l 1
 546 523 520 513 489 504 c 1
 491 485 l 1
 485 450 l 1
 473 404 452 367 422 339 c 0
 391 310 348 295 295 292 c 1
 260 297 l 1
 244 301 236 304 236 306 c 1
 236 306 l 1
 167 -4 l 1
 30 -4 l 1
 60 133 l 2
 66 162 68 191 65 219 c 2
 64 228 l 1
 62 241 53 273 38 325 c 0
 25 363 15 395 11 422 c 1
 10 431 l 2
 7 456 9 486 17 522 c 0
 33 584 62 637 105 679 c 0
 145 722 193 753 249 774 c 0
 303 795 360 807 420 809 c 0
 456 809 487 806 515 800 c 0
 539 795 568 784 599 767 c 0
 622 755 639 742 652 727 c 1
450 579 m 1
 468 579 485 587 504 601 c 1
 552 630 l 1
 537 654 516 672 488 683 c 0
 457 695 421 700 382 700 c 0
 326 698 273 680 225 646 c 0
 171 609 140 566 131 517 c 0
 125 495 124 469 127 438 c 2
 128 429 l 1
 134 401 136 387 137 387 c 1
 137 390 l 1
 145 428 166 473 202 524 c 1
 234 578 289 605 366 608 c 0
 395 608 415 604 425 598 c 0
 439 590 448 584 450 579 c 1
318 387 m 0
 334 387 351 393 367 405 c 1
 378 419 385 434 390 450 c 1
 391 473 l 1
 385 494 l 1
 378 505 364 511 344 511 c 0
 326 511 311 504 298 491 c 1
 283 481 275 467 272 450 c 1
 270 429 l 1
 271 421 274 413 278 405 c 0
 285 393 297 387 318 387 c 0
EndSplineSet
EndChar
StartChar: uni0E29
Encoding: 201 3625 170
OldEncoding: 3625
Width: 837
Flags: W
HStem: -1 120<-4 468> 268 85<528 563> 485 72<461 481> 705 95<200 222> 765 20G<677 811>
DStem: 182 492 348 640 99 119 232 119 677 785 811 785 581 355 727 403
Fore
940 568 m 1
 931 523 916 484 895 452 c 0
 875 421 852 394 824 372 c 0
 803 352 780 336 754 323 c 2
 706 297 l 1
 672 151 l 1
 657 90 632 51 597 32 c 0
 559 10 504 -1 431 -1 c 2
 -29 -1 l 1
 -3 119 l 1
 99 119 l 1
 182 492 l 1
 132 489 l 1
 94 494 66 512 47 542 c 1
 38 561 32 578 31 593 c 0
 29 613 30 631 34 646 c 0
 45 689 66 726 97 756 c 1
 131 785 173 800 222 800 c 0
 274 800 310 785 331 756 c 0
 341 739 348 721 350 701 c 0
 353 679 352 658 348 640 c 2
 232 119 l 1
 462 119 l 2
 491 119 512 124 523 133 c 1
 531 139 539 156 545 186 c 2
 563 268 l 1
 477 268 418 278 384 299 c 1
 356 324 339 342 334 353 c 0
 330 362 327 370 326 379 c 0
 324 395 325 414 329 434 c 0
 335 463 352 491 379 518 c 0
 406 544 440 557 481 557 c 0
 514 557 542 546 561 524 c 1
 571 509 575 494 577 478 c 1
 577 441 l 1
 569 405 554 375 528 353 c 1
 561 353 578 353 581 355 c 1
 677 785 l 1
 811 785 l 1
 727 403 l 1
 771 425 805 480 825 568 c 1
 940 568 l 1
445 394 m 0
 460 394 472 399 483 408 c 0
 493 418 500 429 503 441 c 1
 504 454 l 1
 497 474 l 1
 489 481 478 485 466 485 c 0
 453 485 441 480 429 471 c 0
 419 462 413 452 413 441 c 1
 412 427 l 1
 416 408 l 1
 421 399 432 394 445 394 c 0
175 582 m 0
 195 582 211 588 224 600 c 0
 237 611 245 626 250 644 c 1
 252 668 l 1
 251 675 248 681 243 688 c 0
 235 700 222 705 202 705 c 0
 186 705 170 699 153 686 c 0
 140 675 133 661 129 644 c 1
 126 624 l 1
 134 600 l 1
 143 588 157 582 175 582 c 0
EndSplineSet
EndChar
StartChar: uni0E2A
Encoding: 202 3626 171
OldEncoding: 3626
Width: 766
Flags: W
HStem: -21 92<125 145> -6 21G<422 559> 696 102<370 406>
Fore
145 71 m 0
 165 71 181 77 194 89 c 0
 207 101 215 115 217 133 c 1
 220 156 l 1
 212 178 l 1
 205 188 192 193 172 193 c 0
 152 193 135 187 123 175 c 0
 111 164 102 150 100 133 c 1
 97 126 95 119 96 112 c 0
 97 104 101 98 106 92 c 1
 115 78 128 71 145 71 c 0
508 644 m 1
 485 679 442 696 381 696 c 0
 328 696 279 684 237 659 c 0
 197 636 159 608 123 573 c 1
 63 640 l 1
 100 684 146 721 201 749 c 0
 261 782 328 798 402 798 c 0
 474 798 536 783 588 754 c 0
 589 754 607 776 643 821 c 0
 676 866 695 888 699 888 c 1
 743 860 l 2
 761 847 775 835 785 823 c 1
 728 757 l 1
 720 749 l 2
 685 710 666 688 663 682 c 1
 677 667 684 647 687 622 c 1
 687 591 683 562 677 536 c 1
 559 -6 l 1
 422 -6 l 1
 424 30 421 89 415 173 c 1
 414 182 l 2
 407 247 392 309 369 370 c 1
 343 429 308 458 263 456 c 0
 202 453 160 395 137 282 c 1
 160 286 l 1
 192 288 l 1
 242 286 277 272 298 246 c 1
 308 229 313 211 315 191 c 0
 317 176 316 158 314 138 c 1
 303 93 281 55 249 25 c 0
 218 -4 177 -19 125 -21 c 0
 77 -21 43 -7 22 20 c 1
 4 39 -7 62 -9 89 c 1
 -11 120 l 1
 31 323 l 1
 54 390 85 446 127 489 c 0
 172 535 221 557 276 557 c 1
 331 559 376 549 413 524 c 1
 415 524 431 544 460 584 c 1
 490 624 507 644 508 644 c 1
543 566 m 1
 502 511 l 1
 481 488 471 474 471 471 c 0
 480 453 487 432 491 407 c 1
 498 344 l 1
 521 456 l 1
 527 489 534 526 543 566 c 1
EndSplineSet
EndChar
StartChar: uni0E2B
Encoding: 203 3627 172
OldEncoding: 3627
Width: 838
Flags: W
HStem: -1 21G<46 178 505 641> 489 93<107 150> 705 95<174 196 645 675> 802 21G<648.5 698.5>
DStem: 154 491 321 639 46 -1 260 359 585 372 722 372 505 -1 641 -1
Fore
260 359 m 1
 297 406 340 446 389 478 c 0
 428 504 463 524 492 538 c 1
 481 554 474 573 472 593 c 0
 470 613 471 630 476 646 c 0
 487 693 509 731 542 760 c 1
 578 788 622 802 675 802 c 0
 722 802 755 788 774 758 c 1
 783 739 789 722 791 705 c 0
 793 685 792 665 788 646 c 0
 777 590 747 548 699 520 c 1
 708 517 716 505 726 482 c 1
 730 462 l 1
 732 444 729 414 722 372 c 1
 641 -1 l 1
 505 -1 l 1
 585 372 l 2
 591 399 594 420 592 434 c 0
 592 441 590 446 589 447 c 0
 583 460 577 467 571 467 c 1
 474 421 389 356 316 270 c 0
 245 183 200 103 184 29 c 1
 178 -1 l 1
 46 -1 l 1
 154 491 l 1
 149 490 134 489 107 489 c 1
 65 494 37 511 22 542 c 0
 12 561 6 578 5 593 c 0
 3 613 4 630 8 646 c 1
 16 688 36 724 71 756 c 0
 104 785 146 800 196 800 c 0
 249 800 285 785 305 756 c 0
 315 739 321 721 323 701 c 0
 326 679 325 658 321 639 c 2
 260 359 l 1
619 584 m 0
 638 584 654 591 668 603 c 0
 680 615 688 629 691 646 c 1
 693 670 l 1
 686 690 l 1
 679 702 666 707 645 707 c 0
 627 707 611 701 599 688 c 1
 585 678 576 664 573 646 c 1
 571 639 570 632 570 626 c 0
 571 617 574 609 581 603 c 1
 588 591 601 584 619 584 c 0
150 582 m 0
 166 582 182 588 199 600 c 1
 211 612 218 627 223 644 c 1
 223 665 l 1
 217 688 l 1
 210 699 196 705 175 705 c 0
 159 705 144 699 129 686 c 0
 115 675 107 661 103 644 c 1
 101 624 l 1
 102 615 105 607 111 600 c 0
 119 588 133 582 150 582 c 0
EndSplineSet
EndChar
StartChar: uni0E2C
Encoding: 204 3628 173
OldEncoding: 3628
Width: 918
Flags: W
HStem: -8 21G<24 154 568 702> 483 92<81 127> 619 93<704 721> 699 95<154 177> 816 93<743 763>
DStem: 132 485 299 633 24 -8 234 335 704 619 847 650 644 335 702 -8
Fore
847 650 m 1
 702 -8 l 1
 568 -8 l 1
 574 43 l 1
 575 83 l 1
 574 99 l 1
 462 451 l 1
 199 99 l 1
 189 88 180 70 171 43 c 2
 154 -8 l 1
 24 -8 l 1
 132 485 l 1
 126 483 109 483 81 483 c 1
 41 487 13 505 -2 536 c 0
 -11 553 -16 570 -18 587 c 0
 -19 604 -18 622 -13 640 c 0
 -7 665 4 691 21 717 c 0
 36 740 57 758 84 772 c 0
 112 786 144 794 177 794 c 0
 226 794 261 778 282 747 c 0
 293 731 300 712 302 691 c 0
 304 671 303 652 299 633 c 2
 234 335 l 1
 514 684 l 1
 644 335 l 1
 704 619 l 1
 662 619 630 633 610 661 c 1
 595 678 587 697 584 719 c 0
 583 732 583 747 586 763 c 0
 597 805 618 840 650 867 c 0
 682 895 719 909 763 909 c 0
 820 909 855 893 868 860 c 0
 874 844 879 827 881 809 c 0
 882 799 881 790 878 781 c 1
 906 799 931 831 950 878 c 1
 1041 832 l 1
 1026 796 1007 767 983 745 c 1
 956 717 930 695 906 679 c 1
 873 661 853 651 847 650 c 1
721 712 m 0
 738 712 753 717 763 728 c 0
 775 738 782 750 786 765 c 1
 787 783 l 1
 782 802 l 1
 773 812 761 816 745 816 c 0
 729 816 716 812 706 802 c 0
 692 790 684 778 681 765 c 1
 680 749 l 1
 681 742 684 735 689 728 c 0
 698 717 709 712 721 712 c 0
127 575 m 0
 144 575 160 581 177 593 c 1
 188 605 197 620 202 638 c 1
 202 659 l 1
 194 682 l 1
 187 693 174 699 154 699 c 0
 138 699 122 692 107 679 c 0
 93 669 84 655 82 638 c 1
 79 617 l 1
 80 609 84 601 89 593 c 0
 98 581 111 575 127 575 c 0
EndSplineSet
EndChar
StartChar: uni0E2D
Encoding: 205 3629 174
OldEncoding: 3629
Width: 785
Flags: W
HStem: -1 120<190 426> 242 95<192 214> 457 94<239 261> 695 110<394 426>
DStem: 566 533 702 535 489 186 619 153
Fore
163 244 m 1
 151 186 l 1
 146 170 145 156 146 144 c 1
 149 133 l 1
 156 123 173 119 202 119 c 2
 403 119 l 2
 432 119 453 123 464 133 c 0
 473 139 481 157 489 186 c 1
 566 533 l 2
 570 552 571 571 569 591 c 0
 562 660 504 695 396 695 c 0
 351 695 307 686 265 668 c 1
 217 644 178 618 147 589 c 1
 76 659 l 1
 114 697 162 732 222 763 c 1
 284 790 351 805 424 805 c 0
 531 805 610 781 660 734 c 0
 687 709 704 674 709 630 c 0
 712 599 709 568 702 535 c 2
 619 153 l 1
 605 92 585 52 559 31 c 0
 530 10 482 -1 416 -1 c 2
 145 -1 l 2
 100 -1 66 2 42 10 c 0
 18 17 5 31 1 52 c 1
 -1 63 l 2
 -3 82 0 111 9 149 c 1
 61 385 l 1
 72 432 94 471 131 503 c 0
 168 535 210 551 261 551 c 0
 295 551 322 544 341 529 c 1
 364 515 378 497 382 473 c 1
 385 450 l 2
 386 435 386 418 383 399 c 1
 373 357 351 320 316 288 c 0
 281 257 240 242 192 242 c 0
 184 242 179 242 176 244 c 1
 163 244 l 1
214 337 m 0
 233 337 249 343 263 355 c 0
 274 366 283 380 288 396 c 1
 291 420 l 1
 284 440 l 1
 275 452 261 457 240 457 c 0
 223 457 208 451 194 438 c 0
 181 428 171 414 165 396 c 1
 165 381 l 1
 166 372 169 363 174 355 c 0
 184 343 197 337 214 337 c 0
EndSplineSet
EndChar
StartChar: uni0E2E
Encoding: 206 3630 175
OldEncoding: 3630
Width: 776
Flags: W
HStem: -3 120<163 407> 194 95<158 188> 395 95<210 235> 523 86<322 348> 720 95<371 405>
DStem: 561 565 711 631 479 185 608 152
Fore
838 742 m 1
 799 701 757 664 711 631 c 1
 608 152 l 1
 594 91 575 51 548 30 c 0
 519 8 472 -3 405 -3 c 2
 134 -3 l 2
 89 -3 55 1 31 9 c 0
 8 16 -6 30 -10 48 c 1
 -12 62 l 2
 -14 84 -12 111 -4 143 c 2
 36 322 l 1
 46 369 69 409 106 442 c 0
 141 474 184 490 235 490 c 0
 278 490 309 476 328 448 c 1
 339 433 347 414 350 391 c 0
 351 377 350 362 348 344 c 0
 338 304 318 268 288 238 c 0
 258 210 219 194 169 192 c 1
 158 194 l 2
 151 194 146 195 144 196 c 1
 133 159 l 1
 131 134 l 1
 131 130 134 126 137 123 c 0
 144 119 163 117 191 117 c 2
 395 117 l 2
 425 117 445 122 456 132 c 0
 463 138 471 156 479 185 c 1
 561 565 l 1
 554 559 532 551 494 539 c 0
 459 528 402 523 324 523 c 0
 255 523 194 534 143 556 c 0
 105 572 85 595 82 625 c 1
 83 655 l 1
 93 688 114 717 146 740 c 1
 178 765 216 784 262 796 c 0
 308 808 350 815 388 815 c 0
 471 815 535 804 580 782 c 0
 614 765 640 747 659 729 c 1
 679 743 713 775 762 824 c 1
 838 742 l 1
188 289 m 0
 206 289 219 294 230 305 c 0
 241 319 248 332 251 342 c 1
 253 361 l 1
 247 379 l 1
 240 390 227 395 210 395 c 0
 192 395 179 391 169 382 c 0
 155 370 147 357 144 342 c 1
 143 329 l 1
 144 320 147 312 153 305 c 0
 160 294 172 289 188 289 c 0
348 609 m 0
 396 607 445 613 492 627 c 1
 528 640 547 649 549 655 c 1
 546 664 530 677 501 694 c 0
 473 711 431 720 373 720 c 0
 333 720 295 714 257 704 c 0
 218 691 197 676 193 660 c 2
 190 653 l 1
 193 626 246 611 348 609 c 0
EndSplineSet
EndChar
StartChar: uni0E2F
Encoding: 207 3631 176
OldEncoding: 3631
Width: 732
Flags: W
HStem: 334 120<273 327> 491 93<230 256> 707 97<280 299> 767 20G<579 711>
Fore
72 607 m 0
 110 736 185 802 299 804 c 0
 327 804 353 797 376 783 c 0
 394 770 409 751 419 725 c 1
 427 692 l 1
 429 677 427 662 424 646 c 0
 413 601 391 565 358 535 c 0
 323 506 280 491 230 491 c 1
 212 493 l 1
 197 493 l 1
 202 467 245 454 327 454 c 1
 377 462 428 497 477 561 c 0
 524 623 558 698 579 787 c 1
 711 787 l 1
 594 246 l 1
 578 169 547 109 497 65 c 1
 450 26 373 -6 265 -32 c 1
 260 75 l 1
 316 93 357 108 382 120 c 0
 404 132 422 146 434 165 c 1
 440 176 447 206 458 255 c 1
 503 442 l 1
 481 412 450 388 410 369 c 0
 366 346 320 334 273 334 c 1
 221 339 l 1
 162 352 119 383 93 431 c 0
 78 458 69 485 66 513 c 0
 62 549 65 580 72 607 c 0
256 584 m 0
 273 584 289 590 305 602 c 1
 316 614 324 629 329 646 c 0
 332 655 333 662 333 667 c 0
 332 676 328 684 322 690 c 1
 315 701 302 707 282 707 c 0
 265 707 249 701 236 688 c 1
 219 676 210 662 209 646 c 1
 207 626 l 1
 214 602 l 1
 223 590 237 584 256 584 c 0
EndSplineSet
EndChar
StartChar: uni0E30
Encoding: 208 3632 177
OldEncoding: 3632
Width: 583
Flags: W
HStem: 0 113<96 129> 227 95<120 141> 465 111<199 230> 691 95<222 243>
Fore
141 322 m 0
 187 322 221 308 244 280 c 0
 255 264 262 246 264 225 c 0
 266 207 265 190 261 174 c 1
 260 162 256 152 250 141 c 1
 237 110 l 1
 255 113 283 127 319 152 c 1
 352 179 378 232 394 312 c 1
 523 312 l 1
 505 216 462 140 397 83 c 1
 336 28 247 0 129 0 c 0
 73 0 28 15 -6 46 c 1
 -30 64 -43 88 -46 117 c 0
 -48 136 -47 154 -43 172 c 0
 -32 217 -10 253 23 280 c 0
 56 308 95 322 141 322 c 0
243 786 m 0
 289 786 323 772 345 744 c 0
 356 729 364 710 367 687 c 0
 368 672 367 655 365 636 c 0
 364 630 360 619 353 604 c 1
 341 574 l 1
 341 574 l 1
 341 574 l 1
 375 585 l 1
 397 597 420 618 443 647 c 1
 467 681 485 724 497 775 c 1
 627 775 l 1
 611 708 588 653 560 611 c 0
 528 564 485 529 432 504 c 0
 376 478 308 465 230 465 c 0
 177 465 132 481 95 512 c 1
 70 530 56 555 53 585 c 0
 51 603 52 619 56 634 c 0
 70 679 91 716 122 744 c 0
 154 772 194 786 243 786 c 0
96 113 m 0
 114 113 129 119 142 132 c 0
 156 145 164 158 166 172 c 1
 167 192 l 1
 160 210 l 1
 153 221 140 227 123 227 c 0
 103 227 88 221 77 210 c 0
 63 198 56 185 52 172 c 1
 52 155 l 1
 59 132 l 1
 68 119 81 113 96 113 c 0
199 576 m 0
 216 576 231 582 244 594 c 0
 258 607 266 620 268 634 c 1
 270 655 l 1
 264 676 l 1
 257 686 243 691 224 691 c 0
 207 691 192 686 178 676 c 0
 165 664 158 650 155 634 c 1
 153 631 152 625 153 618 c 0
 154 610 158 602 164 594 c 0
 173 582 184 576 199 576 c 0
EndSplineSet
EndChar
StartChar: uni0E31
Encoding: 209 3633 178
OldEncoding: 3633
Width: 0
Flags: W
HStem: 851 107<-175 -129> 1091 95<-256 -238>
Fore
-238 1186 m 0
 -193 1186 -161 1172 -140 1142 c 0
 -129 1126 -124 1109 -121 1089 c 0
 -120 1076 -121 1058 -127 1034 c 1
 -143 992 l 2
 -148 980 -154 970 -161 963 c 1
 -147 960 l 1
 -129 958 l 1
 -87 958 -41 972 8 1001 c 0
 60 1030 112 1084 165 1161 c 1
 269 1122 l 1
 238 1065 202 1017 158 978 c 0
 110 937 57 905 2 883 c 1
 -60 862 -118 851 -175 851 c 1
 -227 853 l 1
 -285 860 -336 880 -378 912 c 0
 -405 932 -421 957 -424 987 c 0
 -425 1002 -424 1018 -422 1034 c 0
 -412 1080 -390 1116 -358 1142 c 1
 -325 1174 -285 1189 -238 1186 c 0
-281 981 m 0
 -261 981 -247 986 -237 996 c 0
 -224 1009 -215 1022 -211 1036 c 1
 -210 1057 l 1
 -217 1076 l 1
 -224 1086 -237 1091 -256 1091 c 0
 -276 1091 -291 1086 -300 1076 c 0
 -314 1064 -321 1050 -324 1036 c 0
 -325 1031 -326 1025 -325 1018 c 1
 -317 996 l 1
 -310 986 -298 981 -281 981 c 0
EndSplineSet
EndChar
StartChar: uni0E32
Encoding: 210 3634 179
OldEncoding: 3634
Width: 643
Flags: W
HStem: -2 21G<308 442> 702 106<313 351>
DStem: 433 572 568 570 308 -2 442 -2
Fore
14 595 m 1
 39 647 79 696 133 741 c 0
 187 786 260 808 351 808 c 0
 445 806 509 786 545 746 c 0
 562 726 572 700 576 667 c 0
 579 642 576 610 568 570 c 1
 442 -2 l 1
 308 -2 l 1
 433 572 l 1
 437 588 438 605 437 623 c 0
 431 676 390 702 313 702 c 0
 232 702 168 656 122 563 c 1
 14 595 l 1
EndSplineSet
EndChar
StartChar: uni0E33
Encoding: 211 3635 180
OldEncoding: 3635
Width: 666
Flags: W
HStem: -26 21G<265 399> 677 106<270 308> 903 95<-215 -190> 1122 95<-165 -146>
DStem: 391 548 525 545 265 -26 399 -26
Fore
-30 570 m 1
 -4 622 35 671 90 716 c 1
 146 761 219 783 308 783 c 0
 402 781 466 761 500 722 c 0
 518 701 529 675 533 642 c 0
 535 618 533 585 525 545 c 1
 399 -26 l 1
 265 -26 l 1
 391 548 l 1
 397 563 398 580 396 598 c 0
 391 651 348 677 270 677 c 0
 188 677 124 631 77 538 c 1
 -30 570 l 1
-146 1217 m 0
 -96 1217 -61 1202 -42 1172 c 0
 -29 1154 -21 1134 -19 1115 c 0
 -17 1097 -19 1080 -24 1062 c 0
 -33 1017 -54 980 -88 950 c 1
 -126 919 -168 903 -215 903 c 4
 -263 903 -298 919 -317 950 c 0
 -328 966 -335 986 -337 1007 c 0
 -339 1026 -338 1044 -334 1062 c 0
 -324 1105 -303 1142 -269 1172 c 0
 -234 1202 -194 1217 -146 1217 c 0
-190 998 m 0
 -173 998 -157 1005 -141 1018 c 0
 -130 1027 -122 1042 -117 1062 c 1
 -117 1082 l 1
 -123 1105 l 1
 -130 1116 -144 1122 -163 1122 c 0
 -184 1122 -199 1116 -210 1105 c 1
 -224 1095 -233 1081 -237 1062 c 1
 -238 1038 l 1
 -237 1031 -235 1024 -229 1018 c 1
 -224 1005 -210 998 -190 998 c 0
EndSplineSet
EndChar
StartChar: uni0E34
Encoding: 212 3636 181
OldEncoding: 3636
Width: 0
Flags: W
HStem: 915 97<-408 -371.34>
Fore
-236 1176 m 0
 -182 1176 -137 1161 -101 1130 c 1
 -68 1104 -46 1073 -35 1037 c 1
 -24 973 l 1
 -21 927 l 1
 -19 841 l 1
 -120 873 l 1
 -172 886 -227 897 -284 905 c 0
 -321 912 -370 915 -433 915 c 1
 -550 911 l 1
 -628 903 l 1
 -606 958 -577 1004 -541 1042 c 1
 -500 1082 -453 1115 -403 1139 c 0
 -351 1166 -295 1179 -236 1176 c 0
-256 1084 m 1
 -301 1084 -340 1076 -372 1061 c 0
 -408 1044 -433 1027 -447 1008 c 1
 -408 1012 l 1
 -352 1012 l 1
 -271 1008 l 1
 -228 1003 -194 996 -167 989 c 1
 -140 979 -123 972 -116 968 c 1
 -135 1036 -181 1075 -256 1084 c 1
EndSplineSet
EndChar
StartChar: uni0E35
Encoding: 213 3637 182
OldEncoding: 3637
Width: 0
Flags: W
HStem: 968 21G<-130 -130>
DStem: -359 1012 -359 1012 -423 1010 -289 1007 -72 1259 48 1259 -104 1120 -23 940
Fore
-254 1176 m 0
 -219 1176 -185 1168 -151 1153 c 1
 -104 1120 l 1
 -72 1259 l 1
 48 1259 l 1
 -23 940 l 1
 -22 940 -20 936 -20 928 c 0
 -17 908 -17 877 -19 836 c 1
 -137 873 l 2
 -177 884 -230 895 -297 906 c 0
 -337 912 -387 915 -448 915 c 2
 -534 912 l 1
 -602 906 l 1
 -644 902 l 1
 -623 957 -595 1004 -558 1041 c 0
 -519 1083 -473 1116 -424 1138 c 0
 -366 1166 -309 1178 -254 1176 c 0
-274 1083 m 1
 -316 1083 -354 1076 -386 1060 c 0
 -422 1044 -447 1025 -461 1005 c 1
 -423 1010 l 1
 -359 1012 l 1
 -289 1007 l 1
 -204 993 l 1
 -149 975 l 1
 -130 968 l 1
 -130 968 l 1
 -151 1033 -199 1072 -274 1083 c 1
EndSplineSet
EndChar
StartChar: uni0E36
Encoding: 214 3638 183
OldEncoding: 3638
Width: 0
Flags: W
HStem: 914 97<-420 -382.049> 1082 93<-272 -247> 1182 90<-72 -49>
Fore
54 1157 m 0
 40 1088 9 1043 -35 1022 c 1
 -19 956 l 1
 -17 949 -14 940 -13 928 c 0
 -11 909 -12 878 -16 835 c 1
 -133 872 l 1
 -173 883 -226 894 -293 905 c 0
 -333 911 -382 914 -442 914 c 2
 -530 912 l 1
 -599 905 l 1
 -638 902 l 1
 -617 955 -588 1001 -550 1040 c 1
 -513 1083 -467 1115 -415 1138 c 1
 -364 1163 -308 1175 -247 1175 c 1
 -221 1173 l 2
 -211 1170 -206 1169 -206 1168 c 0
 -166 1238 -114 1272 -49 1272 c 0
 -12 1272 15 1262 32 1243 c 0
 45 1226 53 1208 55 1189 c 0
 57 1175 56 1164 54 1157 c 0
-270 1082 m 1
 -312 1082 -350 1075 -386 1060 c 1
 -422 1042 -445 1024 -454 1007 c 1
 -420 1011 l 1
 -363 1011 l 1
 -284 1007 l 1
 -246 1003 -212 996 -178 987 c 1
 -152 978 -135 972 -127 967 c 1
 -150 1033 -198 1071 -270 1082 c 1
-92 1102 m 0
 -80 1102 -69 1106 -58 1115 c 0
 -50 1122 -45 1131 -41 1142 c 1
 -40 1155 l 1
 -41 1161 -42 1165 -46 1168 c 1
 -52 1177 -60 1182 -72 1182 c 0
 -99 1182 -115 1169 -119 1142 c 2
 -122 1124 l 1
 -121 1109 -110 1102 -92 1102 c 0
EndSplineSet
EndChar
StartChar: uni0E37
Encoding: 215 3639 184
OldEncoding: 3639
Width: 0
Flags: W
HStem: 968 21G<-130 -130> 1083 93<-277 -249>
DStem: -359 1012 -359 1012 -423 1010 -289 1007 -67 1259 48 1259 -101 1116 -23 940
Fore
-101 1116 m 1
 -67 1259 l 1
 48 1259 l 1
 -23 940 l 1
 -22 940 -20 936 -20 928 c 0
 -17 908 -17 877 -19 836 c 1
 -137 873 l 2
 -177 884 -230 895 -297 906 c 0
 -337 912 -387 915 -448 915 c 2
 -534 912 l 1
 -602 906 l 1
 -644 902 l 1
 -593 1013 -533 1086 -461 1123 c 0
 -388 1158 -317 1176 -249 1176 c 1
 -230 1259 l 1
 -120 1259 l 1
 -147 1149 l 1
 -138 1145 -132 1141 -127 1136 c 0
 -118 1129 -109 1123 -101 1116 c 1
-274 1083 m 1
 -316 1083 -354 1076 -386 1060 c 0
 -422 1044 -447 1025 -461 1005 c 1
 -423 1010 l 1
 -359 1012 l 1
 -289 1007 l 1
 -204 993 l 1
 -149 975 l 1
 -130 968 l 1
 -130 968 l 1
 -151 1033 -199 1072 -274 1083 c 1
EndSplineSet
EndChar
StartChar: uni0E38
Encoding: 216 3640 185
OldEncoding: 3640
Width: 0
Flags: W
HStem: -124 95<-371 -346>
DStem: -384 -339 -225 -173 -425 -515 -299 -515
Fore
-299 -515 m 1
 -425 -515 l 1
 -384 -339 l 1
 -443 -341 l 1
 -467 -339 -489 -330 -508 -314 c 0
 -524 -299 -535 -280 -539 -256 c 1
 -543 -237 l 1
 -545 -220 -544 -203 -539 -186 c 0
 -533 -145 -512 -109 -475 -78 c 0
 -439 -45 -396 -29 -346 -29 c 0
 -319 -29 -295 -34 -276 -45 c 0
 -259 -55 -243 -72 -230 -96 c 1
 -222 -128 l 1
 -220 -139 -221 -154 -225 -173 c 1
 -299 -515 l 1
-396 -246 m 0
 -379 -246 -362 -240 -345 -228 c 1
 -333 -217 -326 -203 -320 -186 c 1
 -318 -166 l 1
 -318 -157 -322 -149 -327 -142 c 0
 -336 -130 -351 -124 -371 -124 c 0
 -387 -124 -403 -130 -420 -142 c 0
 -433 -153 -441 -168 -444 -186 c 1
 -444 -205 l 1
 -438 -228 l 1
 -429 -240 -415 -246 -396 -246 c 0
EndSplineSet
EndChar
StartChar: uni0E39
Encoding: 217 3641 186
OldEncoding: 3641
Width: 0
Flags: W
HStem: -529 113<-488 -464> -122 93<-590 -569>
DStem: -346 -41 -222 -41 -419 -378 -299 -398
Fore
-628 -398 m 1
 -613 -339 l 1
 -664 -341 l 1
 -690 -339 -711 -330 -729 -314 c 0
 -746 -299 -756 -280 -760 -256 c 1
 -764 -237 l 1
 -766 -221 -765 -204 -760 -186 c 0
 -754 -146 -733 -109 -697 -78 c 0
 -661 -45 -618 -29 -569 -29 c 4
 -527 -29 -494 -42 -471 -69 c 0
 -455 -85 -446 -105 -443 -129 c 0
 -442 -142 -442 -157 -446 -173 c 1
 -488 -376 l 1
 -491 -395 l 1
 -490 -409 -481 -416 -464 -416 c 0
 -440 -416 -426 -403 -419 -378 c 2
 -346 -41 l 1
 -222 -41 l 1
 -299 -398 l 1
 -305 -435 -330 -466 -372 -493 c 0
 -415 -517 -453 -529 -488 -529 c 0
 -530 -529 -566 -517 -594 -493 c 0
 -615 -476 -626 -456 -629 -432 c 1
 -628 -398 l 1
-618 -246 m 0
 -597 -246 -580 -239 -564 -226 c 0
 -552 -215 -545 -201 -542 -184 c 2
 -540 -166 l 1
 -541 -155 -544 -147 -548 -140 c 0
 -558 -128 -571 -122 -590 -122 c 0
 -607 -122 -625 -128 -641 -140 c 1
 -654 -155 -661 -170 -664 -184 c 2
 -667 -203 l 1
 -666 -212 -662 -219 -657 -226 c 0
 -649 -239 -636 -246 -618 -246 c 0
EndSplineSet
EndChar
StartChar: uni0E3A
Encoding: 218 3642 187
OldEncoding: 3642
Width: 0
Flags: W
Fore
-272 -61 m 0
 -257 -61 -244 -65 -233 -72 c 0
 -223 -80 -216 -90 -211 -103 c 1
 -210 -114 l 1
 -212 -141 l 1
 -217 -161 -227 -180 -243 -198 c 1
 -262 -213 -284 -220 -308 -220 c 0
 -330 -220 -349 -213 -362 -198 c 0
 -369 -189 -373 -178 -374 -167 c 1
 -372 -141 l 1
 -366 -118 -354 -99 -336 -83 c 0
 -318 -68 -296 -61 -272 -61 c 0
EndSplineSet
EndChar
StartChar: dottedcircle
Encoding: 221 9676 188
OldEncoding: 65536
Width: 1269
VWidth: 1000
Flags: W
HStem: 734 20G<698 698>
VStem: 231 100<397 397 397 408> 259 50<198 208> 259 100<197 208> 281 50<397 399> 309 100<576 576 576 587> 359 50<576 578> 378 50<76 86> 378 100<75 86> 459 100<697 708> 509 50<698 708> 572 100<26 26 26 37> 622 50<26 28> 648 50<752 754> 648 100<743 754> 800 50<696 698> 800 100<687 698> 912 100<568 568 568 579> 941 100<387 398> 962 50<568 570> 991 50<388 398>
Fore
347 603 m 6
496 725 m 6
415 103 m 6
296 225 m 6
789 117 m 6
912 241 m 6
949 595 m 6
837 715 m 6
978 415 m 6
268 424 m 6
685 771 m 6
360 631 m 0
 384 632 408 610 409 586 c 0
 410 583 410 579 409 576 c 0
 406 550 387 532 359 531 c 0
 335 530 311 552 309 576 c 0
 309 579 309 583 309 586 c 0
 313 612 333 630 360 631 c 0
365 581 m 0
 365 581 361 585 359 586 c 0
 359 586 l 0
 361 585 354 581 354 581 c 0
 354 581 358 577 359 576 c 0
 359 576 l 0
 359 577 365 581 365 581 c 0
509 753 m 0
 533 754 557 732 559 708 c 0
 559 705 559 701 559 698 c 0
 555 672 535 654 508 653 c 0
 484 652 460 674 459 698 c 0
 458 701 458 705 459 708 c 0
 462 734 482 752 509 753 c 0
514 703 m 0
 514 703 510 707 509 708 c 0
 509 708 l 0
 510 707 503 703 503 703 c 0
 503 703 508 699 509 698 c 0
 509 698 l 0
 509 699 514 703 514 703 c 0
428 131 m 0
 452 132 476 110 478 86 c 0
 478 83 479 79 478 76 c 0
 474 50 455 32 428 31 c 0
 404 30 380 52 378 76 c 0
 378 79 377 83 378 86 c 0
 381 112 400 130 428 131 c 0
433 81 m 0
 433 81 429 85 428 86 c 0
 428 86 l 0
 428 85 422 81 422 81 c 0
 422 81 426 77 428 76 c 0
 428 76 l 0
 427 77 433 81 433 81 c 0
309 253 m 0
 333 254 358 232 359 208 c 0
 359 205 360 201 359 198 c 0
 355 172 336 154 309 153 c 0
 285 152 261 174 259 198 c 0
 259 201 258 205 259 208 c 0
 262 234 282 252 309 253 c 0
315 203 m 0
 315 203 310 207 309 208 c 0
 309 208 l 0
 309 207 304 203 304 203 c 0
 304 203 307 199 309 198 c 0
 309 198 l 0
 308 199 315 203 315 203 c 0
802 145 m 0
 826 146 850 124 851 100 c 0
 852 97 852 93 852 90 c 0
 847 64 828 46 801 45 c 0
 777 44 753 66 752 90 c 0
 751 93 751 97 751 100 c 0
 755 126 774 144 802 145 c 0
807 95 m 0
 807 95 803 99 801 100 c 0
 801 100 l 0
 802 99 796 95 796 95 c 0
 796 95 799 91 802 90 c 0
 802 90 l 0
 800 91 807 95 807 95 c 0
925 269 m 0
 949 270 973 248 974 224 c 0
 975 221 975 217 975 214 c 0
 971 188 952 170 924 169 c 0
 900 168 876 190 875 214 c 0
 874 217 874 221 874 224 c 0
 878 250 898 268 925 269 c 0
930 219 m 0
 930 219 927 223 924 224 c 0
 924 224 l 0
 926 223 919 219 919 219 c 0
 919 219 923 215 925 214 c 0
 925 214 l 0
 924 215 930 219 930 219 c 0
963 623 m 0
 987 624 1011 602 1012 578 c 0
 1013 575 1013 571 1012 568 c 0
 1009 542 990 524 963 523 c 0
 938 522 914 544 912 568 c 0
 912 571 913 575 912 578 c 0
 917 604 936 622 963 623 c 0
968 573 m 0
 968 573 964 577 962 578 c 0
 962 578 l 0
 963 577 958 573 958 573 c 0
 958 573 961 569 962 568 c 0
 962 568 l 0
 962 569 968 573 968 573 c 0
850 743 m 0
 874 744 898 722 900 698 c 0
 900 695 900 691 900 688 c 0
 896 662 876 644 849 643 c 0
 826 642 801 664 800 688 c 0
 799 691 799 695 800 698 c 0
 803 724 822 742 850 743 c 0
855 693 m 0
 855 693 851 697 850 698 c 0
 850 698 l 0
 850 697 844 693 844 693 c 0
 844 693 849 689 850 688 c 0
 850 688 l 0
 849 689 855 693 855 693 c 0
991 443 m 0
 1015 444 1040 422 1041 398 c 0
 1041 395 1042 391 1041 388 c 0
 1038 362 1019 344 991 343 c 0
 967 342 943 364 941 388 c 0
 941 391 940 395 941 398 c 0
 944 424 965 442 991 443 c 0
997 393 m 0
 997 393 993 397 991 398 c 0
 991 398 l 0
 992 397 986 393 986 393 c 0
 986 393 990 389 991 388 c 0
 991 388 l 0
 991 389 997 393 997 393 c 0
281 452 m 0
 305 453 330 431 331 407 c 0
 332 404 332 400 331 397 c 0
 328 371 308 353 281 352 c 0
 257 351 233 373 231 397 c 0
 231 400 231 404 231 407 c 0
 234 433 255 451 281 452 c 0
287 402 m 0
 287 402 282 406 281 407 c 0
 281 407 l 0
 282 406 276 402 276 402 c 0
 276 402 280 398 281 397 c 0
 281 397 l 0
 281 398 287 402 287 402 c 0
622 81 m 0
 646 82 671 60 672 36 c 0
 673 33 673 29 672 26 c 0
 669 0 650 -18 622 -19 c 0
 598 -20 574 2 572 26 c 0
 572 29 572 33 572 36 c 0
 576 62 596 80 622 81 c 0
628 31 m 0
 628 31 624 35 622 36 c 0
 622 36 l 0
 623 35 617 31 617 31 c 0
 617 31 621 27 622 26 c 0
 622 26 l 0
 622 27 628 31 628 31 c 0
698 799 m 0
 722 800 746 778 748 754 c 0
 748 751 748 747 748 744 c 0
 744 718 724 700 698 699 c 0
 674 698 649 720 648 744 c 0
 647 747 647 751 648 754 c 0
 651 780 670 798 698 799 c 0
703 749 m 0
 703 749 699 753 698 754 c 0
 698 754 l 0
 698 753 692 749 692 749 c 0
 692 749 696 745 698 744 c 0
 698 744 l 0
 697 745 703 749 703 749 c 0
EndSplineSet
EndChar
StartChar: uni0E3F
Encoding: 223 3647 189
OldEncoding: 3647
Width: 897
Flags: W
HStem: -20 20G<-60 261> 797 164<151 437 546 567>
DStem: 151 961 312 797 -60 0 264 577 151 961 229 413 -60 0 173 164 353 413 445 413 297 164 390 164 437 797 529 797 388 577 480 577 497 1065 588 1065 474 961 565 961
Fore
437 797 m 1
 312 797 l 1
 264 577 l 1
 388 577 l 1
 437 797 l 1
353 413 m 1
 229 413 l 1
 173 164 l 1
 297 164 l 1
 353 413 l 1
529 797 m 1
 480 577 l 1
 489 577 l 2
 532 577 567 587 594 607 c 0
 621 628 638 654 644 685 c 0
 646 702 647 715 646 725 c 0
 641 773 608 797 546 797 c 2
 529 797 l 1
445 413 m 1
 390 164 l 1
 405 164 l 2
 445 164 481 172 513 188 c 0
 547 205 571 242 583 299 c 0
 587 316 588 332 587 347 c 0
 584 368 577 382 564 389 c 0
 540 405 508 413 465 413 c 2
 445 413 l 1
261 0 m 1
 -60 0 l 1
 151 961 l 1
 474 961 l 1
 497 1065 l 5
 588 1065 l 1
 565 961 l 1
 577 961 l 2
 610 961 650 955 698 943 c 1
 739 930 770 911 792 886 c 1
 810 869 824 848 835 822 c 1
 839 804 l 1
 840 769 l 1
 840 709 l 1
 832 675 818 641 795 607 c 0
 769 570 738 538 703 512 c 1
 729 490 748 462 761 426 c 0
 768 405 773 384 775 364 c 1
 775 310 l 1
 764 257 746 211 721 170 c 0
 697 131 663 96 620 65 c 0
 561 22 478 0 373 0 c 2
 353 0 l 1
 336 -81 l 1
 243 -81 l 1
 261 0 l 1
EndSplineSet
EndChar
StartChar: uni0E40
Encoding: 224 3648 190
OldEncoding: 3648
Width: 412
Flags: W
HStem: -9 95<157 180> 206 97<202 207> 767 20G<175 309>
DStem: 175 787 309 787 34 151 202 303
Fore
157 -9 m 0
 105 -9 69 7 50 38 c 0
 39 55 32 73 30 93 c 0
 28 114 29 133 34 151 c 1
 175 787 l 1
 309 787 l 1
 202 303 l 1
 226 303 l 2
 274 303 309 288 330 259 c 1
 340 242 346 223 348 204 c 0
 350 183 349 165 346 151 c 0
 339 107 318 69 282 38 c 0
 245 7 204 -9 157 -9 c 0
180 86 m 0
 198 86 214 91 229 102 c 0
 241 113 249 127 252 146 c 1
 253 170 l 1
 247 190 l 1
 240 201 226 206 205 206 c 0
 188 206 171 200 154 188 c 0
 143 178 135 164 130 146 c 1
 125 130 l 1
 126 120 131 111 138 104 c 0
 149 92 163 86 180 86 c 0
EndSplineSet
EndChar
StartChar: uni0E41
Encoding: 225 3649 191
OldEncoding: 3649
Width: 760
Flags: W
HStem: -9 95<136 158 506 528> 206 97<181 186 554 569> 767 20G<153 288 526 660>
DStem: 153 787 288 787 13 151 181 303 526 787 660 787 384 151 554 303
Fore
136 -9 m 0
 84 -9 48 7 29 38 c 0
 17 55 10 73 8 93 c 0
 6 114 8 133 13 151 c 1
 153 787 l 1
 288 787 l 1
 181 303 l 1
 202 303 l 2
 250 303 286 288 307 259 c 0
 317 243 323 225 326 204 c 0
 327 187 326 169 322 151 c 0
 316 105 295 68 261 38 c 0
 224 7 182 -9 136 -9 c 0
506 -9 m 0
 457 -9 421 7 401 38 c 0
 390 53 383 72 381 93 c 0
 379 113 380 132 384 151 c 2
 526 787 l 1
 660 787 l 1
 554 303 l 1
 575 303 l 2
 619 303 653 288 677 257 c 0
 690 242 697 223 699 199 c 0
 701 184 699 168 695 151 c 0
 684 103 663 65 630 38 c 0
 593 7 552 -9 506 -9 c 0
158 86 m 0
 177 86 193 91 207 102 c 0
 219 113 227 127 230 146 c 1
 230 170 l 1
 225 190 l 1
 218 201 204 206 184 206 c 0
 167 206 150 200 133 188 c 0
 122 178 114 164 108 146 c 1
 104 130 l 1
 105 120 109 111 117 104 c 0
 128 92 142 86 158 86 c 0
528 86 m 0
 549 86 565 91 577 102 c 0
 586 113 595 127 601 146 c 1
 600 170 l 1
 596 190 l 1
 589 201 575 206 555 206 c 0
 535 206 519 200 506 188 c 0
 494 177 486 163 480 146 c 1
 478 128 l 1
 479 118 482 110 489 104 c 1
 498 92 511 86 528 86 c 0
EndSplineSet
EndChar
StartChar: uni0E42
Encoding: 226 3650 192
OldEncoding: 3650
Width: 502
Flags: W
HStem: -46 99<127 148> 164 102<174 179> 1215 115<468 491>
DStem: 211 1030 342 1026 7 114 177 266
Fore
342 1026 m 1
 177 266 l 1
 198 266 l 2
 246 266 281 251 303 220 c 0
 314 204 319 186 322 164 c 0
 323 149 323 132 320 114 c 1
 309 66 286 29 253 1 c 0
 216 -30 175 -46 127 -46 c 0
 77 -46 42 -30 22 1 c 1
 12 18 6 36 4 56 c 0
 2 76 3 96 7 114 c 2
 211 1030 l 1
 217 1056 221 1079 221 1100 c 1
 220 1113 214 1125 204 1136 c 0
 197 1145 177 1158 147 1174 c 1
 0 1244 l 1
 8 1252 26 1268 55 1292 c 1
 90 1318 125 1340 161 1359 c 1
 209 1381 252 1392 290 1392 c 0
 320 1392 340 1389 351 1384 c 2
 418 1354 l 1
 448 1339 473 1330 491 1330 c 0
 513 1330 542 1342 580 1363 c 1
 602 1262 l 1
 554 1231 509 1215 468 1215 c 0
 436 1215 402 1225 365 1244 c 0
 332 1259 308 1269 293 1273 c 1
 261 1278 l 2
 251 1278 242 1276 233 1273 c 1
 220 1264 l 1
 269 1235 302 1215 319 1202 c 1
 337 1185 350 1165 354 1141 c 1
 355 1136 l 2
 358 1108 353 1071 342 1026 c 1
148 53 m 0
 167 53 184 59 195 70 c 1
 207 83 215 96 220 109 c 1
 222 127 l 1
 221 135 218 142 212 149 c 0
 205 159 193 164 174 164 c 0
 156 164 141 159 129 149 c 0
 119 137 111 123 108 109 c 1
 104 93 l 1
 105 84 109 76 115 70 c 1
 122 59 133 53 148 53 c 0
EndSplineSet
EndChar
StartChar: uni0E43
Encoding: 227 3651 193
OldEncoding: 3651
Width: 515
Flags: W
HStem: -46 99<142 164> 164 100<189 202.274> 1016 93<86 95> 1294 104<220 246>
DStem: 257 1189 394 1187 20 113 189 264
Fore
394 1187 m 1
 189 264 l 1
 210 264 l 2
 255 264 290 249 315 219 c 1
 326 204 332 184 334 162 c 0
 336 145 335 129 333 113 c 0
 323 67 302 30 268 0 c 0
 232 -31 190 -46 142 -46 c 0
 91 -46 56 -31 37 0 c 1
 26 15 19 35 17 58 c 0
 15 77 16 95 20 113 c 2
 257 1189 l 1
 265 1220 267 1246 265 1266 c 2
 265 1268 l 1
 261 1285 246 1294 220 1294 c 0
 196 1294 179 1291 170 1284 c 0
 164 1279 156 1273 150 1266 c 1
 183 1266 207 1253 220 1229 c 1
 228 1195 l 1
 231 1173 230 1150 227 1127 c 1
 203 1053 157 1016 90 1016 c 0
 61 1016 35 1023 13 1036 c 1
 -7 1052 -17 1070 -20 1092 c 2
 -20 1094 l 1
 -21 1123 -19 1148 -14 1171 c 0
 -1 1233 31 1286 79 1330 c 0
 129 1375 185 1398 246 1398 c 0
 308 1398 352 1379 378 1340 c 0
 389 1322 395 1299 398 1273 c 0
 402 1252 400 1224 394 1187 c 1
162 53 m 0
 182 53 198 59 210 69 c 0
 221 80 228 94 234 109 c 1
 237 127 l 1
 236 134 233 142 227 148 c 0
 220 159 208 164 189 164 c 0
 171 164 155 159 143 148 c 0
 133 135 125 122 124 109 c 1
 119 93 l 1
 120 83 124 75 130 69 c 1
 137 59 147 53 162 53 c 0
112 1182 m 0
 103 1182 94 1178 85 1171 c 0
 79 1164 75 1156 74 1146 c 1
 73 1134 l 1
 76 1120 l 1
 80 1113 85 1109 93 1109 c 0
 119 1109 134 1121 139 1146 c 2
 141 1162 l 1
 140 1175 130 1182 112 1182 c 0
EndSplineSet
EndChar
StartChar: uni0E44
Encoding: 228 3652 194
OldEncoding: 3652
Width: 580
Flags: W
HStem: -46 99<205 231> 164 102<255 260>
DStem: 53 1264 160 1319 66 990 173 1109 289 1333 323 1184 173 1109 211 970 323 1184 483 1296 88 113 258 266
Fore
323 1184 m 1
 211 970 l 1
 192 930 165 910 128 910 c 0
 107 910 93 916 84 928 c 0
 71 948 65 969 66 990 c 1
 53 1264 l 1
 53 1270 l 2
 50 1293 39 1310 19 1321 c 1
 110 1398 l 1
 141 1388 159 1365 162 1330 c 1
 160 1319 l 1
 173 1109 l 1
 289 1333 l 1
 309 1375 346 1396 400 1396 c 0
 428 1396 451 1387 471 1370 c 1
 479 1360 484 1348 486 1333 c 0
 487 1322 486 1310 483 1296 c 2
 258 266 l 1
 274 266 l 2
 323 266 359 251 380 222 c 0
 391 207 398 187 401 164 c 0
 402 148 401 131 398 113 c 0
 386 65 364 27 332 0 c 0
 295 -31 253 -46 205 -46 c 0
 156 -46 122 -31 103 0 c 0
 92 16 86 33 83 53 c 0
 82 70 83 91 88 113 c 2
 323 1184 l 1
231 53 m 0
 249 53 265 59 276 69 c 0
 287 82 295 95 297 109 c 2
 300 127 l 1
 292 148 l 1
 285 159 273 164 255 164 c 0
 235 164 219 159 210 148 c 0
 200 137 191 124 187 109 c 1
 185 91 l 1
 193 69 l 1
 200 59 212 53 231 53 c 0
EndSplineSet
EndChar
StartChar: uni0E45
Encoding: 229 3653 195
OldEncoding: 3653
Width: 635
Flags: W
HStem: 726 106<370 407>
DStem: 492 596 625 594 274 -387 411 -387
Fore
71 619 m 1
 97 671 137 720 191 764 c 0
 244 810 317 832 407 832 c 0
 502 830 567 809 601 770 c 0
 619 750 630 723 633 691 c 0
 636 665 633 632 625 594 c 1
 411 -387 l 1
 274 -387 l 1
 492 596 l 1
 497 612 499 629 497 647 c 0
 491 700 449 726 370 726 c 0
 288 726 224 680 178 587 c 1
 71 619 l 1
EndSplineSet
EndChar
StartChar: uni0E46
Encoding: 230 3654 196
OldEncoding: 3654
Width: 840
Flags: W
HStem: 338 97<382 405> 518 99<419 443>
DStem: 678 572 815 586 548 -19 681 -28
Fore
453 701 m 1
 424 690 402 672 389 648 c 2
 359 597 l 1
 391 610 l 2
 404 615 421 617 443 617 c 0
 488 617 520 605 538 581 c 0
 549 565 554 548 556 532 c 0
 558 514 557 497 552 482 c 0
 546 442 527 409 496 380 c 0
 465 352 426 338 382 338 c 0
 325 340 283 361 256 400 c 1
 240 420 230 446 227 479 c 0
 224 500 226 526 230 557 c 0
 244 621 276 679 325 729 c 0
 372 777 425 807 484 820 c 1
 544 787 l 2
 565 774 576 765 576 761 c 1
 576 761 l 1
 682 820 l 1
 744 807 786 780 805 740 c 0
 813 726 818 707 820 683 c 0
 824 650 822 618 815 586 c 2
 681 -28 l 2
 665 -101 627 -159 564 -202 c 1
 499 -244 428 -272 351 -285 c 1
 341 -167 l 1
 415 -143 l 1
 457 -132 487 -117 507 -99 c 0
 526 -83 539 -57 548 -19 c 2
 678 572 l 1
 684 606 686 633 684 652 c 0
 683 670 673 687 655 701 c 1
 551 643 l 1
 551 643 l 1
 515 664 l 1
 453 701 l 1
405 435 m 0
 415 435 427 440 439 449 c 0
 447 456 452 465 456 477 c 1
 456 493 l 1
 451 506 l 1
 444 514 435 518 421 518 c 0
 409 518 397 514 389 506 c 0
 379 499 374 489 372 477 c 1
 371 462 l 1
 372 455 374 450 375 449 c 0
 385 440 394 435 405 435 c 0
EndSplineSet
EndChar
StartChar: uni0E47
Encoding: 231 3655 197
OldEncoding: 3655
Width: 0
Flags: W
HStem: 837 88<-150 -132> 956 108<-360 -325> 1002 85<-116 -96> 1106 99<-181 -144> 1110 104<-314 -279>
Fore
-150 837 m 0
 -172 837 -192 843 -211 856 c 0
 -226 867 -245 881 -265 899 c 1
 -283 919 -298 933 -312 943 c 0
 -325 951 -341 956 -360 956 c 0
 -375 956 -391 942 -409 916 c 0
 -426 890 -437 863 -444 832 c 1
 -475 832 l 1
 -506 848 -529 878 -545 923 c 0
 -553 939 -557 958 -559 978 c 0
 -561 1001 -560 1023 -554 1046 c 1
 -550 1069 -541 1089 -528 1108 c 0
 -503 1147 -472 1174 -438 1192 c 0
 -404 1207 -359 1214 -302 1214 c 2
 -273 1214 l 1
 -254 1212 l 2
 -215 1208 -178 1205 -144 1205 c 0
 -104 1205 -74 1212 -53 1226 c 1
 -34 1242 -18 1271 -6 1312 c 1
 105 1312 l 1
 88 1235 60 1183 18 1154 c 0
 -27 1122 -93 1106 -181 1106 c 0
 -214 1106 -247 1107 -279 1110 c 1
 -331 1110 -369 1104 -395 1091 c 1
 -416 1077 -432 1050 -441 1011 c 1
 -439 1019 -426 1031 -406 1046 c 1
 -385 1058 -358 1064 -325 1064 c 0
 -294 1064 -269 1059 -253 1048 c 1
 -238 1035 -229 1025 -225 1018 c 1
 -200 1064 -157 1087 -96 1087 c 0
 -56 1087 -27 1075 -9 1053 c 1
 -1 1041 3 1028 5 1011 c 0
 6 996 6 980 3 965 c 0
 -5 930 -23 900 -50 874 c 0
 -79 849 -112 837 -150 837 c 0
-132 925 m 0
 -106 925 -92 938 -87 965 c 1
 -87 978 l 1
 -88 992 l 1
 -93 999 -101 1002 -114 1002 c 0
 -126 1002 -137 998 -146 990 c 0
 -153 983 -159 975 -163 965 c 0
 -165 960 -165 954 -164 945 c 0
 -163 932 -152 925 -132 925 c 0
EndSplineSet
EndChar
StartChar: uni0E48
Encoding: 232 3656 198
OldEncoding: 3656
Width: 0
Flags: W
DStem: -7 1580 114 1580 -67 1309 54 1309
Fore
-67 1309 m 5
 -7 1580 l 5
 114 1580 l 5
 54 1309 l 5
 -67 1309 l 5
EndSplineSet
EndChar
StartChar: uni0E49
Encoding: 233 3657 199
OldEncoding: 3657
Width: 0
Flags: W
HStem: 1552 80<-120 -99>
Fore
-4 1503 m 0
 -15 1466 -26 1439 -36 1422 c 0
 -49 1404 -59 1394 -64 1391 c 2
 -30 1399 l 2
 -9 1405 10 1413 28 1422 c 0
 44 1432 60 1446 76 1464 c 0
 98 1489 113 1512 123 1533 c 1
 148 1623 l 1
 256 1623 l 1
 225 1477 157 1382 52 1338 c 0
 -10 1312 -74 1299 -140 1299 c 0
 -153 1299 -171 1301 -194 1304 c 2
 -227 1309 l 1
 -219 1347 l 1
 -191 1364 l 2
 -177 1371 -169 1380 -165 1391 c 1
 -199 1402 l 2
 -219 1409 -233 1422 -243 1440 c 1
 -251 1471 l 1
 -252 1484 -252 1499 -248 1515 c 0
 -239 1546 -220 1573 -192 1598 c 0
 -167 1621 -136 1632 -99 1632 c 0
 -61 1632 -33 1619 -17 1594 c 0
 -8 1579 -2 1563 -0 1545 c 0
 1 1530 -0 1516 -4 1503 c 0
-137 1473 m 0
 -127 1473 -116 1477 -104 1484 c 1
 -96 1492 -91 1501 -90 1512 c 1
 -89 1526 l 1
 -93 1540 l 1
 -99 1548 -107 1552 -120 1552 c 0
 -146 1552 -162 1539 -169 1512 c 1
 -170 1501 l 1
 -169 1497 -167 1491 -162 1484 c 0
 -155 1477 -148 1473 -137 1473 c 0
EndSplineSet
EndChar
StartChar: uni0E4A
Encoding: 234 3658 200
OldEncoding: 3658
Width: 0
Flags: W
HStem: 1285 68<-295 -280> 1514 86<-87 -50> 1519 81<-233 -214>
DStem: 203 1604 203 1604 110 1572 204 1598
Fore
-295 1285 m 0
 -334 1285 -361 1302 -375 1335 c 0
 -383 1351 -388 1368 -390 1389 c 0
 -393 1413 -392 1435 -386 1454 c 0
 -378 1490 -358 1525 -328 1558 c 1
 -299 1586 -263 1600 -223 1600 c 0
 -199 1600 -180 1595 -166 1586 c 1
 -155 1576 -148 1567 -145 1560 c 1
 -142 1563 -129 1572 -106 1586 c 0
 -92 1595 -72 1600 -50 1600 c 0
 -11 1600 16 1588 31 1565 c 0
 38 1555 42 1542 44 1525 c 0
 45 1511 43 1492 39 1468 c 0
 30 1436 24 1418 21 1412 c 0
 15 1400 4 1386 -10 1368 c 1
 -6 1370 3 1376 19 1386 c 0
 33 1395 46 1407 57 1421 c 0
 82 1454 98 1487 104 1519 c 0
 108 1530 109 1548 110 1572 c 1
 203 1604 l 1
 204 1598 l 2
 206 1577 205 1558 201 1542 c 0
 188 1482 160 1428 117 1380 c 1
 83 1346 49 1325 15 1317 c 0
 -30 1305 -79 1299 -129 1299 c 1
 -124 1317 l 1
 -123 1333 l 1
 -88 1368 l 1
 -74 1386 -63 1409 -55 1437 c 1
 -51 1464 -49 1482 -50 1494 c 0
 -53 1507 -66 1514 -87 1514 c 0
 -102 1514 -115 1511 -126 1505 c 1
 -148 1486 l 1
 -148 1486 l 1
 -148 1489 -155 1494 -167 1503 c 0
 -181 1513 -199 1519 -220 1519 c 0
 -255 1519 -276 1503 -284 1472 c 1
 -271 1477 l 1
 -238 1479 l 1
 -210 1477 -191 1467 -180 1450 c 0
 -174 1441 -171 1430 -170 1419 c 0
 -169 1405 -170 1390 -175 1375 c 0
 -179 1351 -194 1330 -216 1313 c 0
 -242 1294 -268 1285 -295 1285 c 0
-268 1412 m 0
 -288 1412 -300 1402 -305 1382 c 1
 -306 1370 l 1
 -305 1358 -296 1353 -280 1353 c 0
 -260 1353 -247 1362 -241 1382 c 1
 -241 1396 l 1
 -242 1407 -251 1412 -268 1412 c 0
EndSplineSet
EndChar
StartChar: uni0E4B
Encoding: 235 3659 201
OldEncoding: 3659
Width: 0
Flags: W
HStem: 1409 106<-145 -50 88 182>
Fore
-50 1409 m 1
 -165 1409 l 1
 -144 1515 l 1
 -28 1515 l 1
 -7 1617 l 1
 109 1617 l 1
 88 1515 l 1
 203 1515 l 1
 182 1409 l 1
 66 1409 l 1
 44 1309 l 5
 -72 1309 l 1
 -50 1409 l 1
EndSplineSet
EndChar
StartChar: uni0E4C
Encoding: 236 3660 202
OldEncoding: 3660
Width: 0
Flags: W
HStem: 1237 79<-162 -150>
Fore
62 1482 m 4
 58 1482 17 1478 -63 1471 c 5
 -110 1469 l 5
 -76 1469 -51 1459 -35 1438 c 4
 -27 1425 -21 1412 -20 1396 c 5
 -20 1363 l 5
 -28 1331 -44 1302 -69 1277 c 4
 -95 1250 -126 1237 -162 1237 c 4
 -207 1235 -241 1248 -263 1277 c 5
 -276 1289 -283 1306 -286 1328 c 4
 -287 1346 -286 1363 -282 1378 c 4
 -264 1457 -223 1509 -157 1535 c 4
 -123 1549 -83 1557 -39 1559 c 4
 3 1561 38 1567 65 1575 c 4
 87 1581 102 1601 110 1635 c 5
 207 1635 l 5
 200 1596 184 1563 158 1535 c 4
 129 1504 97 1486 62 1482 c 4
-135 1392 m 4
 -162 1392 -177 1380 -183 1356 c 5
 -185 1337 l 5
 -183 1323 -172 1316 -152 1316 c 4
 -144 1316 -134 1320 -121 1328 c 5
 -111 1335 -106 1344 -106 1356 c 6
 -105 1367 l 5
 -110 1381 l 5
 -117 1388 -125 1392 -135 1392 c 4
EndSplineSet
EndChar
StartChar: uni0E4D
Encoding: 237 3661 203
OldEncoding: 3661
Width: 0
Flags: W
HStem: 903 95<-211 -188> 1121 95<-163 -142>
Fore
-142 1216 m 4
 -94 1216 -58 1201 -34 1170 c 5
 -25 1149 -19 1129 -17 1112 c 4
 -15 1096 -15 1079 -19 1061 c 5
 -29 1018 -51 980 -86 949 c 4
 -121 918 -163 903 -211 903 c 4
 -257 903 -291 918 -315 949 c 5
 -326 969 -333 988 -335 1007 c 4
 -337 1026 -336 1044 -332 1061 c 4
 -325 1103 -303 1139 -266 1170 c 4
 -230 1201 -189 1216 -142 1216 c 4
-188 998 m 4
 -171 998 -155 1004 -139 1017 c 4
 -124 1028 -116 1043 -114 1061 c 5
 -114 1082 l 5
 -120 1102 l 5
 -129 1115 -144 1121 -162 1121 c 4
 -182 1121 -197 1115 -208 1104 c 5
 -222 1094 -231 1080 -235 1061 c 5
 -236 1037 l 5
 -230 1017 l 5
 -222 1004 -208 998 -188 998 c 4
EndSplineSet
EndChar
StartChar: uni0E4E
Encoding: 238 3662 204
OldEncoding: 3662
Width: 0
Flags: W
HStem: 978 85<-189 -144> 1173 76<-39 -11> 1342 74<8 26>
Fore
-178 1231 m 1
 -193 1244 -200 1260 -202 1279 c 1
 -204 1299 l 1
 -192 1340 -160 1371 -108 1391 c 0
 -66 1408 -22 1416 26 1416 c 0
 63 1416 102 1407 143 1388 c 1
 64 1333 l 1
 36 1336 l 1
 10 1342 l 1
 -46 1342 -75 1323 -79 1285 c 0
 -79 1276 -70 1267 -51 1259 c 0
 -36 1252 -22 1249 -11 1249 c 2
 14 1249 l 1
 -29 1173 l 1
 -39 1173 l 2
 -130 1173 -179 1148 -183 1098 c 0
 -187 1074 -174 1063 -144 1063 c 0
 -129 1063 -115 1064 -103 1068 c 1
 -70 1093 l 1
 -8 1038 l 1
 -59 998 -119 978 -189 978 c 0
 -272 978 -317 1005 -323 1059 c 1
 -322 1087 l 1
 -315 1160 -266 1208 -178 1231 c 1
EndSplineSet
EndChar
StartChar: uni0E4F
Encoding: 239 3663 205
OldEncoding: 3663
Width: 741
Flags: W
HStem: 0 88<260 284> 172 92<300 321> 530 83<376 397> 698 88<410 444>
Fore
378 530 m 4
 305 530 234 470 217 397 c 0
 201 324 247 264 319 264 c 0
 391 264 463 324 479 397 c 4
 496 470 450 530 378 530 c 4
262 0 m 0
 141 0 54 39 1 117 c 0
 -51 197 -65 289 -42 393 c 0
 -19 501 36 593 120 671 c 0
 205 748 310 786 435 786 c 0
 518 786 586 768 638 731 c 1
 690 692 724 643 740 585 c 0
 757 526 756 462 742 393 c 0
 726 323 698 259 656 201 c 0
 614 143 559 94 490 55 c 1
 422 18 346 0 262 0 c 0
416 698 m 0
 320 698 238 668 172 609 c 0
 104 546 61 474 44 393 c 0
 32 340 33 290 45 243 c 0
 57 196 84 159 125 132 c 1
 163 103 215 88 282 88 c 0
 348 88 407 103 461 132 c 0
 515 162 558 200 591 245 c 0
 624 289 645 339 657 393 c 0
 675 475 664 547 623 609 c 0
 584 668 515 698 416 698 c 0
300 172 m 0
 255 172 218 182 187 203 c 0
 157 226 138 254 131 287 c 0
 122 321 121 357 130 393 c 0
 137 428 153 464 178 499 c 0
 199 532 230 559 270 581 c 0
 311 602 354 613 397 613 c 0
 443 613 480 602 511 581 c 0
 540 560 559 533 567 499 c 0
 576 465 577 429 569 393 c 0
 556 334 525 283 477 238 c 0
 428 194 368 172 300 172 c 0
EndSplineSet
EndChar
StartChar: uni0E50
Encoding: 240 3664 206
OldEncoding: 3664
Width: 761
Flags: W
HStem: 4 118<307 338> 461 121<408 436>
Fore
307 4 m 0
 203 4 128 33 82 92 c 0
 56 127 40 165 35 207 c 0
 32 235 34 264 41 293 c 0
 52 345 75 392 108 434 c 0
 144 479 189 515 245 543 c 1
 304 569 368 582 436 582 c 0
 504 582 562 569 609 543 c 1
 653 514 683 478 699 434 c 0
 706 415 710 397 712 379 c 0
 715 350 713 322 706 293 c 0
 696 246 673 199 637 152 c 0
 600 106 555 70 500 46 c 0
 442 18 378 4 307 4 c 0
410 461 m 0
 348 461 296 444 255 411 c 0
 214 377 190 337 179 293 c 0
 175 276 174 259 176 242 c 0
 178 217 188 193 204 172 c 0
 227 138 271 122 333 122 c 0
 394 122 446 138 489 172 c 1
 530 208 557 248 568 291 c 0
 573 307 574 324 572 344 c 0
 569 369 560 392 542 411 c 1
 514 444 470 461 410 461 c 0
EndSplineSet
EndChar
StartChar: uni0E51
Encoding: 241 3665 207
OldEncoding: 3665
Width: 781
Flags: W
HStem: 38 123<244 249> 38 188<245 359> 316 106<381 404> 481 124<416 445>
Fore
183 300 m 0
 178 278 176 259 177 245 c 0
 179 228 185 213 194 201 c 1
 211 175 229 161 249 161 c 1
 239 164 230 174 222 190 c 1
 216 214 l 1
 214 233 215 252 219 270 c 0
 230 314 253 349 286 376 c 0
 323 407 362 422 404 422 c 0
 456 425 494 409 515 376 c 1
 525 359 531 342 533 325 c 0
 534 311 533 289 528 261 c 1
 513 199 481 147 430 104 c 1
 382 60 320 38 245 38 c 1
 172 46 117 72 82 117 c 1
 64 142 54 172 50 208 c 0
 47 235 50 267 58 305 c 0
 67 358 93 408 134 457 c 0
 175 506 222 542 276 566 c 0
 332 592 388 605 445 605 c 0
 559 603 639 573 687 515 c 0
 712 481 728 441 732 395 c 0
 736 358 735 316 726 270 c 1
 696 137 610 25 472 -63 c 1
 407 20 l 1
 456 52 495 89 527 131 c 0
 559 175 581 221 592 270 c 0
 598 298 599 323 597 347 c 1
 591 379 l 1
 581 413 560 437 530 453 c 1
 502 472 464 481 416 481 c 0
 359 481 309 464 267 430 c 0
 224 394 195 351 183 300 c 0
381 316 m 0
 369 316 357 312 347 303 c 0
 337 294 331 283 330 272 c 1
 329 259 l 1
 334 240 l 1
 339 231 347 226 359 226 c 0
 375 226 388 231 398 240 c 0
 407 248 413 259 417 272 c 1
 418 287 l 1
 411 305 l 1
 403 312 393 316 381 316 c 0
EndSplineSet
EndChar
StartChar: uni0E52
Encoding: 242 3666 208
OldEncoding: 3666
Width: 933
Flags: W
HStem: -4 120<221 572> 147 99<311 339> 350 97<363 376> 469 115<431 452>
DStem: 100 632 245 681 14 241 153 272 700 383 843 411 664 214 793 179
Fore
524 383 m 1
 502 440 472 469 432 469 c 0
 420 469 409 466 398 462 c 1
 376 447 l 1
 405 447 432 440 455 427 c 0
 475 414 489 395 497 369 c 1
 502 343 l 1
 504 324 503 306 499 290 c 0
 487 246 466 212 433 186 c 0
 401 160 361 147 311 147 c 0
 264 147 229 163 205 197 c 0
 191 220 183 242 180 263 c 0
 179 280 180 301 186 325 c 0
 203 401 236 463 285 510 c 0
 336 559 392 584 452 584 c 0
 490 584 518 576 538 559 c 0
 554 544 564 530 568 517 c 1
 574 527 591 541 618 559 c 0
 643 576 678 584 720 584 c 0
 781 584 820 565 836 528 c 0
 841 513 846 496 848 478 c 0
 850 458 848 436 843 411 c 1
 793 179 l 2
 779 119 753 73 714 43 c 0
 678 12 621 -4 544 -4 c 2
 222 -4 l 2
 124 -4 60 15 31 54 c 1
 16 76 7 101 5 128 c 0
 1 159 4 197 14 241 c 1
 100 632 l 2
 107 660 108 684 106 702 c 2
 106 707 l 1
 101 728 90 746 70 760 c 1
 190 844 l 1
 216 827 233 806 242 780 c 1
 249 747 l 1
 251 729 250 707 245 681 c 1
 153 272 l 2
 145 235 143 203 146 175 c 1
 150 151 l 1
 160 128 192 116 247 116 c 2
 548 116 l 2
 587 116 615 123 631 138 c 0
 645 151 656 177 664 214 c 1
 700 383 l 1
 705 408 707 425 706 436 c 2
 705 445 l 1
 702 458 688 464 666 464 c 0
 644 464 628 459 617 449 c 0
 601 436 591 423 583 411 c 2
 571 385 l 1
 524 383 l 1
363 350 m 0
 345 350 331 345 321 334 c 1
 309 324 302 313 299 299 c 1
 298 281 l 1
 305 263 l 1
 310 252 321 246 339 246 c 0
 376 248 397 265 403 297 c 1
 404 316 l 1
 397 334 l 1
 391 345 380 350 363 350 c 0
EndSplineSet
EndChar
StartChar: uni0E53
Encoding: 243 3667 209
OldEncoding: 3667
Width: 904
Flags: W
HStem: 7 104<152 185> 213 106<208 231> 477 122<657 683> 484 115<327 345>
DStem: 413 349 545 345 337 11 472 11
Fore
329 484 m 0
 257 484 208 426 183 310 c 0
 183 311 186 312 192 314 c 0
 201 317 214 319 231 319 c 0
 281 319 316 303 336 270 c 0
 346 254 353 236 355 215 c 0
 358 194 357 173 353 153 c 1
 340 108 315 74 280 49 c 1
 246 21 203 7 152 7 c 0
 78 7 37 50 28 135 c 0
 22 187 29 249 46 321 c 0
 56 368 77 413 105 456 c 0
 137 502 173 536 210 560 c 0
 252 586 296 599 343 599 c 0
 401 599 441 587 465 564 c 1
 491 543 506 524 510 509 c 1
 513 516 520 526 531 539 c 0
 547 554 565 568 588 581 c 1
 616 593 647 599 683 599 c 0
 762 599 811 568 832 506 c 1
 843 447 l 1
 849 388 845 332 830 278 c 0
 801 161 761 72 712 11 c 1
 573 11 l 1
 594 30 619 69 646 129 c 0
 670 180 689 237 703 301 c 0
 713 350 717 387 715 411 c 2
 713 428 l 1
 705 461 686 477 657 477 c 0
 624 477 599 466 581 444 c 1
 568 425 556 392 545 345 c 1
 472 11 l 1
 337 11 l 1
 413 349 l 2
 417 367 418 386 416 405 c 0
 415 423 410 437 403 447 c 0
 388 471 364 484 329 484 c 0
208 213 m 0
 191 213 177 208 167 199 c 1
 155 186 150 174 148 162 c 1
 148 146 l 1
 152 127 l 1
 159 116 170 111 185 111 c 0
 202 111 216 116 226 127 c 0
 238 139 247 150 250 162 c 1
 250 181 l 1
 244 199 l 1
 236 208 224 213 208 213 c 0
EndSplineSet
EndChar
StartChar: uni0E54
Encoding: 244 3668 210
OldEncoding: 3668
Width: 913
Flags: W
HStem: -6 130<212 302> 325 111<389 412> 445 128<586 606> 462 124<363 394>
Fore
110 277 m 1
 107 257 107 241 108 228 c 0
 112 195 126 170 153 154 c 1
 189 134 239 124 302 124 c 1
 265 135 240 155 229 182 c 0
 225 194 222 206 221 217 c 0
 220 232 220 253 226 279 c 0
 232 314 252 350 287 387 c 0
 319 420 360 436 412 436 c 0
 463 436 498 420 517 387 c 0
 528 369 534 350 536 330 c 0
 538 315 538 299 535 284 c 0
 528 251 516 226 501 209 c 0
 488 194 475 184 462 180 c 1
 484 161 509 151 537 149 c 2
 638 138 l 1
 673 131 708 116 744 94 c 1
 669 -24 l 1
 655 -10 634 2 605 10 c 1
 567 18 534 22 505 22 c 0
 475 22 428 18 367 8 c 0
 311 -1 259 -6 212 -6 c 0
 174 -6 139 0 106 12 c 0
 68 26 39 45 19 69 c 0
 -7 97 -23 127 -29 160 c 1
 -34 189 l 1
 -37 216 -34 250 -25 288 c 0
 -16 339 10 389 51 438 c 0
 89 484 138 520 198 547 c 0
 258 573 323 586 394 586 c 1
 464 582 l 1
 520 576 563 573 588 573 c 0
 647 575 691 585 722 603 c 1
 753 619 782 651 809 698 c 0
 836 751 861 816 883 895 c 1
 1007 880 l 1
 1001 852 992 818 977 776 c 0
 959 724 940 679 919 639 c 0
 895 594 862 554 820 522 c 0
 752 471 681 445 606 445 c 0
 579 445 550 448 517 453 c 1
 482 455 453 458 428 460 c 2
 383 462 l 1
 318 462 260 448 209 420 c 1
 156 389 123 341 110 277 c 1
370 230 m 0
 400 230 419 247 427 279 c 1
 427 295 l 1
 423 312 l 1
 418 321 407 325 389 325 c 0
 376 325 364 321 353 312 c 1
 341 297 335 286 334 279 c 2
 331 263 l 1
 337 244 l 1
 343 235 354 230 370 230 c 0
EndSplineSet
EndChar
StartChar: uni0E55
Encoding: 245 3669 211
OldEncoding: 3669
Width: 940
Flags: W
HStem: -6 130<216 304> 325 111<393 416> 445 128<601 627.567> 672 113<475 502>
Fore
601 573 m 1
 708 573 782 622 821 721 c 1
 844 771 866 829 887 895 c 1
 1011 880 l 1
 994 816 l 1
 957 714 l 1
 942 678 924 643 903 610 c 1
 879 575 852 545 824 522 c 1
 756 471 684 445 607 445 c 1
 523 453 l 1
 436 460 l 1
 391 462 l 1
 323 462 264 448 213 420 c 1
 160 389 127 341 114 277 c 1
 111 257 111 240 112 226 c 0
 116 193 130 170 157 156 c 0
 195 135 244 124 304 124 c 1
 269 135 245 155 233 182 c 0
 229 194 226 206 225 217 c 0
 224 232 224 253 230 279 c 0
 236 314 256 350 291 387 c 0
 323 420 364 436 416 436 c 0
 467 436 502 420 521 387 c 0
 532 369 538 350 540 330 c 0
 542 315 542 299 539 284 c 0
 532 251 520 226 505 209 c 0
 492 195 480 185 467 180 c 1
 487 161 512 151 541 149 c 2
 639 138 l 1
 680 131 717 116 751 94 c 1
 675 -24 l 1
 661 -11 639 0 609 8 c 0
 577 18 544 22 509 22 c 0
 479 22 432 18 371 8 c 0
 315 -1 263 -6 216 -6 c 0
 178 -6 143 0 110 12 c 0
 74 25 45 44 23 69 c 0
 -3 97 -19 127 -25 160 c 1
 -30 189 l 1
 -33 216 -30 250 -21 288 c 0
 2 391 50 464 125 506 c 0
 200 547 259 571 304 577 c 1
 302 597 303 614 308 628 c 0
 320 674 344 712 380 742 c 0
 415 771 456 785 502 785 c 1
 549 783 584 768 607 739 c 0
 619 724 627 705 629 681 c 0
 631 663 630 645 626 628 c 0
 620 609 612 590 601 573 c 1
374 230 m 0
 405 230 423 247 429 279 c 1
 429 295 l 1
 425 312 l 1
 422 321 411 325 393 325 c 0
 379 325 366 321 356 312 c 1
 344 297 336 287 334 279 c 1
 334 258 l 1
 336 239 349 230 374 230 c 0
454 580 m 0
 469 580 483 584 493 593 c 0
 504 605 510 616 512 626 c 1
 514 629 514 634 514 642 c 0
 513 650 511 656 509 661 c 1
 500 668 488 672 475 672 c 0
 460 672 448 668 437 659 c 0
 429 651 423 640 418 626 c 0
 417 623 415 618 416 612 c 0
 416 609 420 602 426 593 c 0
 432 584 441 580 454 580 c 0
EndSplineSet
EndChar
StartChar: uni0E56
Encoding: 246 3670 212
OldEncoding: 3670
Width: 679
Flags: W
HStem: -15 161<168 201> 244 110<187 217> 480 132<318 413>
Fore
307 122 m 1
 311 122 328 128 353 140 c 1
 377 153 402 173 428 200 c 1
 453 224 471 257 481 299 c 0
 487 328 489 352 487 374 c 0
 484 398 475 419 460 436 c 0
 434 467 386 482 318 480 c 0
 280 480 244 471 211 453 c 0
 175 432 153 418 149 413 c 1
 98 413 l 1
 105 453 107 499 104 552 c 1
 98 630 l 1
 87 711 l 1
 78 757 68 798 56 836 c 1
 184 892 l 1
 196 869 206 821 213 749 c 1
 229 572 l 1
 296 599 358 612 413 612 c 0
 472 612 518 598 551 570 c 0
 585 542 607 504 619 457 c 1
 625 424 l 1
 630 385 626 344 616 301 c 0
 594 195 542 116 459 63 c 0
 378 11 292 -15 201 -15 c 0
 168 -15 134 -7 101 10 c 0
 66 28 43 51 29 80 c 0
 19 99 13 117 11 133 c 0
 9 150 10 168 15 186 c 0
 25 232 47 271 81 303 c 0
 119 340 164 357 217 354 c 0
 243 354 269 347 294 332 c 0
 311 323 327 306 338 281 c 1
 344 253 l 1
 344 212 l 1
 323 146 l 1
 307 122 l 1
168 146 m 0
 183 146 195 152 206 163 c 0
 218 174 224 184 225 195 c 2
 227 216 l 1
 225 235 211 244 187 244 c 0
 155 244 135 227 128 195 c 1
 129 181 l 1
 133 163 l 1
 140 152 152 146 168 146 c 0
EndSplineSet
EndChar
StartChar: uni0E57
Encoding: 247 3671 213
OldEncoding: 3671
Width: 931
Flags: W
HStem: -19 104<118 142> 177 106<159 190> 443 116<226 258>
Fore
585 140 m 1
 623 156 652 183 674 221 c 0
 695 260 711 310 722 369 c 1
 734 420 l 1
 751 515 l 1
 758 556 763 587 770 608 c 1
 796 729 838 815 895 867 c 1
 944 836 l 1
 991 804 l 1
 946 761 913 691 893 595 c 1
 883 538 l 1
 874 480 l 1
 863 434 l 1
 853 381 l 1
 841 323 822 267 796 215 c 1
 778 169 747 127 704 89 c 0
 670 62 628 37 574 15 c 0
 514 -10 475 -24 455 -30 c 1
 397 54 l 1
 421 72 442 96 461 124 c 1
 479 148 497 178 514 215 c 0
 527 241 536 272 546 308 c 0
 552 338 555 364 552 387 c 2
 550 406 l 1
 541 430 523 443 497 443 c 0
 444 443 408 399 388 312 c 1
 284 312 l 1
 283 369 l 1
 277 401 l 1
 272 429 255 443 226 443 c 0
 198 443 172 426 146 392 c 0
 121 357 105 324 96 293 c 1
 96 260 l 1
 94 255 l 1
 96 262 105 268 120 274 c 0
 132 280 155 283 190 283 c 0
 238 283 272 269 290 239 c 1
 300 226 306 209 308 189 c 0
 310 173 309 154 303 131 c 0
 295 89 273 53 240 25 c 1
 209 -5 168 -19 118 -19 c 0
 70 -19 32 -4 7 27 c 1
 -19 55 -35 93 -43 142 c 1
 -45 158 l 2
 -49 199 -47 244 -37 290 c 1
 -25 337 -4 382 25 425 c 1
 58 467 93 500 132 524 c 1
 174 548 217 559 258 559 c 0
 303 559 333 551 347 533 c 1
 363 517 370 503 372 489 c 1
 386 505 403 520 425 535 c 0
 449 554 483 564 529 564 c 0
 574 564 609 551 637 526 c 1
 660 501 674 471 681 436 c 1
 683 420 l 2
 686 392 683 359 674 321 c 0
 667 285 656 254 642 228 c 0
 630 201 617 178 603 160 c 0
 594 147 587 140 585 140 c 1
 585 140 l 1
 585 140 l 1
142 85 m 0
 156 85 169 89 179 98 c 0
 186 103 194 114 201 131 c 1
 203 144 l 1
 202 150 199 156 194 163 c 0
 188 172 177 177 161 177 c 0
 149 177 137 172 126 163 c 0
 118 155 113 144 111 131 c 1
 109 114 l 1
 113 98 l 1
 118 89 128 85 142 85 c 0
EndSplineSet
EndChar
